%TF.GenerationSoftware,KiCad,Pcbnew,9.0.4*%
%TF.CreationDate,2026-05-12T17:33:10+08:00*%
%TF.ProjectId,TTR9-Can2 Signal Box,54545239-2d43-4616-9e32-205369676e61,v1.0*%
%TF.SameCoordinates,Original*%
%TF.FileFunction,Copper,L2,Bot*%
%TF.FilePolarity,Positive*%
%FSLAX46Y46*%
G04 Gerber Fmt 4.6, Leading zero omitted, Abs format (unit mm)*
G04 Created by KiCad (PCBNEW 9.0.4) date 2026-05-12 17:33:10*
%MOMM*%
%LPD*%
G01*
G04 APERTURE LIST*
G04 Aperture macros list*
%AMRotRect*
0 Rectangle, with rotation*
0 The origin of the aperture is its center*
0 $1 length*
0 $2 width*
0 $3 Rotation angle, in degrees counterclockwise*
0 Add horizontal line*
21,1,$1,$2,0,0,$3*%
G04 Aperture macros list end*
%TA.AperFunction,ComponentPad*%
%ADD10RotRect,1.500000X1.500000X225.000000*%
%TD*%
%TA.AperFunction,ComponentPad*%
%ADD11C,1.500000*%
%TD*%
%TA.AperFunction,ComponentPad*%
%ADD12RotRect,1.500000X1.500000X45.000000*%
%TD*%
%TA.AperFunction,ViaPad*%
%ADD13C,1.400000*%
%TD*%
G04 APERTURE END LIST*
D10*
%TO.P,J8,1,Pin_1*%
%TO.N,+12V*%
X98043999Y-115442999D03*
D11*
%TO.P,J8,2,Pin_2*%
%TO.N,/CAN2.+*%
X95543999Y-117942999D03*
%TO.P,J8,3,Pin_3*%
%TO.N,GND*%
X93044000Y-115443000D03*
%TO.P,J8,4,Pin_4*%
%TO.N,/CAN2.-*%
X95543999Y-112943001D03*
%TO.P,J8,5,Pin_5*%
%TO.N,GND*%
X95544000Y-115443000D03*
%TD*%
D12*
%TO.P,J5,1,Pin_1*%
%TO.N,+12V*%
X169244001Y-88138001D03*
D11*
%TO.P,J5,2,Pin_2*%
%TO.N,/CAN2.+*%
X171744001Y-85638001D03*
%TO.P,J5,3,Pin_3*%
%TO.N,GND*%
X174244000Y-88138000D03*
%TO.P,J5,4,Pin_4*%
%TO.N,/CAN2.-*%
X171744001Y-90637999D03*
%TO.P,J5,5,Pin_5*%
%TO.N,GND*%
X171744000Y-88138000D03*
%TD*%
D10*
%TO.P,J12,1,Pin_1*%
%TO.N,+12V*%
X199643999Y-115442999D03*
D11*
%TO.P,J12,2,Pin_2*%
%TO.N,/CAN2.+*%
X197143999Y-117942999D03*
%TO.P,J12,3,Pin_3*%
%TO.N,GND*%
X194644000Y-115443000D03*
%TO.P,J12,4,Pin_4*%
%TO.N,/CAN2.-*%
X197143999Y-112943001D03*
%TO.P,J12,5,Pin_5*%
%TO.N,GND*%
X197144000Y-115443000D03*
%TD*%
D12*
%TO.P,J4,1,Pin_1*%
%TO.N,+12V*%
X143844001Y-88138001D03*
D11*
%TO.P,J4,2,Pin_2*%
%TO.N,/CAN2.+*%
X146344001Y-85638001D03*
%TO.P,J4,3,Pin_3*%
%TO.N,GND*%
X148844000Y-88138000D03*
%TO.P,J4,4,Pin_4*%
%TO.N,/CAN2.-*%
X146344001Y-90637999D03*
%TO.P,J4,5,Pin_5*%
%TO.N,GND*%
X146344000Y-88138000D03*
%TD*%
D10*
%TO.P,J14,1,Pin_1*%
%TO.N,+12V*%
X72643999Y-115442999D03*
D11*
%TO.P,J14,2,Pin_2*%
%TO.N,unconnected-(J14-Pin_2-Pad2)*%
X70143999Y-117942999D03*
%TO.P,J14,3,Pin_3*%
%TO.N,GND*%
X67644000Y-115443000D03*
%TO.P,J14,4,Pin_4*%
%TO.N,unconnected-(J14-Pin_4-Pad4)*%
X70143999Y-112943001D03*
%TO.P,J14,5,Pin_5*%
%TO.N,GND*%
X70144000Y-115443000D03*
%TD*%
D10*
%TO.P,J11,1,Pin_1*%
%TO.N,+12V*%
X174243999Y-115442999D03*
D11*
%TO.P,J11,2,Pin_2*%
%TO.N,/CAN2.+*%
X171743999Y-117942999D03*
%TO.P,J11,3,Pin_3*%
%TO.N,GND*%
X169244000Y-115443000D03*
%TO.P,J11,4,Pin_4*%
%TO.N,/CAN2.-*%
X171743999Y-112943001D03*
%TO.P,J11,5,Pin_5*%
%TO.N,GND*%
X171744000Y-115443000D03*
%TD*%
D12*
%TO.P,J7,1,Pin_1*%
%TO.N,+12V*%
X220044001Y-88138001D03*
D11*
%TO.P,J7,2,Pin_2*%
%TO.N,/CAN2.+*%
X222544001Y-85638001D03*
%TO.P,J7,3,Pin_3*%
%TO.N,GND*%
X225044000Y-88138000D03*
%TO.P,J7,4,Pin_4*%
%TO.N,/CAN2.-*%
X222544001Y-90637999D03*
%TO.P,J7,5,Pin_5*%
%TO.N,GND*%
X222544000Y-88138000D03*
%TD*%
D10*
%TO.P,J9,1,Pin_1*%
%TO.N,+12V*%
X123443999Y-115442999D03*
D11*
%TO.P,J9,2,Pin_2*%
%TO.N,/CAN2.+*%
X120943999Y-117942999D03*
%TO.P,J9,3,Pin_3*%
%TO.N,GND*%
X118444000Y-115443000D03*
%TO.P,J9,4,Pin_4*%
%TO.N,/CAN2.-*%
X120943999Y-112943001D03*
%TO.P,J9,5,Pin_5*%
%TO.N,GND*%
X120944000Y-115443000D03*
%TD*%
D10*
%TO.P,J10,1,Pin_1*%
%TO.N,+12V*%
X148843999Y-115442999D03*
D11*
%TO.P,J10,2,Pin_2*%
%TO.N,/CAN2.+*%
X146343999Y-117942999D03*
%TO.P,J10,3,Pin_3*%
%TO.N,GND*%
X143844000Y-115443000D03*
%TO.P,J10,4,Pin_4*%
%TO.N,/CAN2.-*%
X146343999Y-112943001D03*
%TO.P,J10,5,Pin_5*%
%TO.N,unconnected-(J10-Pin_5-Pad5)*%
X146344000Y-115443000D03*
%TD*%
D10*
%TO.P,J13,1,Pin_1*%
%TO.N,+12V*%
X225043999Y-115442999D03*
D11*
%TO.P,J13,2,Pin_2*%
%TO.N,/CAN2.+*%
X222543999Y-117942999D03*
%TO.P,J13,3,Pin_3*%
%TO.N,GND*%
X220044000Y-115443000D03*
%TO.P,J13,4,Pin_4*%
%TO.N,/CAN2.-*%
X222543999Y-112943001D03*
%TO.P,J13,5,Pin_5*%
%TO.N,GND*%
X222544000Y-115443000D03*
%TD*%
D12*
%TO.P,J3,1,Pin_1*%
%TO.N,+12V*%
X118444001Y-88138001D03*
D11*
%TO.P,J3,2,Pin_2*%
%TO.N,/CAN2.+*%
X120944001Y-85638001D03*
%TO.P,J3,3,Pin_3*%
%TO.N,GND*%
X123444000Y-88138000D03*
%TO.P,J3,4,Pin_4*%
%TO.N,/CAN2.-*%
X120944001Y-90637999D03*
%TO.P,J3,5,Pin_5*%
%TO.N,GND*%
X120944000Y-88138000D03*
%TD*%
D12*
%TO.P,J2,1,Pin_1*%
%TO.N,+12V*%
X93044001Y-88138001D03*
D11*
%TO.P,J2,2,Pin_2*%
%TO.N,/CAN2.+*%
X95544001Y-85638001D03*
%TO.P,J2,3,Pin_3*%
%TO.N,GND*%
X98044000Y-88138000D03*
%TO.P,J2,4,Pin_4*%
%TO.N,/CAN2.-*%
X95544001Y-90637999D03*
%TO.P,J2,5,Pin_5*%
%TO.N,GND*%
X95544000Y-88138000D03*
%TD*%
D12*
%TO.P,J6,1,Pin_1*%
%TO.N,+12V*%
X194644001Y-88138001D03*
D11*
%TO.P,J6,2,Pin_2*%
%TO.N,/CAN2.+*%
X197144001Y-85638001D03*
%TO.P,J6,3,Pin_3*%
%TO.N,GND*%
X199644000Y-88138000D03*
%TO.P,J6,4,Pin_4*%
%TO.N,/CAN2.-*%
X197144001Y-90637999D03*
%TO.P,J6,5,Pin_5*%
%TO.N,GND*%
X197144000Y-88138000D03*
%TD*%
D12*
%TO.P,J1,1,Pin_1*%
%TO.N,unconnected-(J1-Pin_1-Pad1)*%
X67644001Y-88138001D03*
D11*
%TO.P,J1,2,Pin_2*%
%TO.N,/CAN2.+*%
X70144001Y-85638001D03*
%TO.P,J1,3,Pin_3*%
%TO.N,GND*%
X72644000Y-88138000D03*
%TO.P,J1,4,Pin_4*%
%TO.N,/CAN2.-*%
X70144001Y-90637999D03*
%TO.P,J1,5,Pin_5*%
%TO.N,GND*%
X70144000Y-88138000D03*
%TD*%
D13*
%TO.N,GND*%
X82550000Y-76200000D03*
X125730000Y-127080000D03*
X212090000Y-76200000D03*
X156210000Y-127080000D03*
X85090000Y-76200000D03*
X173990000Y-127080000D03*
X85090000Y-127080000D03*
X55880000Y-100330000D03*
X236220000Y-118110000D03*
X97790000Y-76200000D03*
X90170000Y-127080000D03*
X219710000Y-76200000D03*
X140970000Y-127080000D03*
X115570000Y-76200000D03*
X181610000Y-127080000D03*
X138430000Y-76200000D03*
X128270000Y-127080000D03*
X67310000Y-76200000D03*
X168910000Y-127080000D03*
X156210000Y-76200000D03*
X186690000Y-76200000D03*
X55880000Y-82550000D03*
X107950000Y-76200000D03*
X194310000Y-76200000D03*
X120650000Y-76200000D03*
X110490000Y-76200000D03*
X214630000Y-76200000D03*
X115570000Y-127080000D03*
X77470000Y-76200000D03*
X236220000Y-97790000D03*
X143510000Y-127080000D03*
X201930000Y-76200000D03*
X189230000Y-127080000D03*
X201930000Y-127080000D03*
X80010000Y-76200000D03*
X64770000Y-76200000D03*
X55880000Y-95250000D03*
X55800000Y-120650000D03*
X194310000Y-127080000D03*
X151130000Y-76200000D03*
X176530000Y-76200000D03*
X168910000Y-76200000D03*
X236220000Y-100330000D03*
X105410000Y-127080000D03*
X184150000Y-127080000D03*
X113030000Y-127080000D03*
X196850000Y-127080000D03*
X236220000Y-102870000D03*
X224790000Y-127080000D03*
X55800000Y-110490000D03*
X186690000Y-127080000D03*
X196850000Y-76200000D03*
X236220000Y-110490000D03*
X219710000Y-127080000D03*
X55880000Y-105410000D03*
X158750000Y-76200000D03*
X151130000Y-127080000D03*
X102870000Y-76200000D03*
X95250000Y-76200000D03*
X222250000Y-127080000D03*
X153670000Y-127080000D03*
X105410000Y-76200000D03*
X146050000Y-127080000D03*
X209550000Y-76200000D03*
X100330000Y-127080000D03*
X214630000Y-127080000D03*
X92710000Y-76200000D03*
X69850000Y-76200000D03*
X171450000Y-127080000D03*
X227330000Y-76200000D03*
X236220000Y-90170000D03*
X135890000Y-127080000D03*
X95250000Y-127080000D03*
X55800000Y-113030000D03*
X236220000Y-120650000D03*
X236220000Y-113030000D03*
X128270000Y-76200000D03*
X236220000Y-95250000D03*
X222250000Y-76200000D03*
X148590000Y-76200000D03*
X189230000Y-76200000D03*
X161290000Y-127080000D03*
X199390000Y-127080000D03*
X118110000Y-76200000D03*
X236220000Y-87630000D03*
X236220000Y-92710000D03*
X55880000Y-107950000D03*
X55800000Y-118110000D03*
X118110000Y-127080000D03*
X191770000Y-76200000D03*
X74930000Y-76200000D03*
X199390000Y-76200000D03*
X87630000Y-76200000D03*
X77470000Y-127080000D03*
X143510000Y-76200000D03*
X100330000Y-76200000D03*
X212090000Y-127080000D03*
X130810000Y-76200000D03*
X236220000Y-105410000D03*
X97790000Y-127080000D03*
X158750000Y-127080000D03*
X55880000Y-102870000D03*
X107950000Y-127080000D03*
X72390000Y-76200000D03*
X69850000Y-127080000D03*
X64770000Y-127080000D03*
X55800000Y-115570000D03*
X74930000Y-127080000D03*
X153670000Y-76200000D03*
X113030000Y-76200000D03*
X173990000Y-76200000D03*
X55880000Y-90170000D03*
X55880000Y-97790000D03*
X236220000Y-85090000D03*
X130810000Y-127080000D03*
X236220000Y-115570000D03*
X67310000Y-127080000D03*
X90170000Y-76200000D03*
X125730000Y-76200000D03*
X146050000Y-76200000D03*
X224790000Y-76200000D03*
X133350000Y-76200000D03*
X123190000Y-76200000D03*
X135890000Y-76200000D03*
X166370000Y-127080000D03*
X163830000Y-127080000D03*
X171450000Y-76200000D03*
X176530000Y-127080000D03*
X55880000Y-85090000D03*
X72390000Y-127080000D03*
X92710000Y-127080000D03*
X229870000Y-127080000D03*
X236220000Y-107950000D03*
X209550000Y-127080000D03*
X163830000Y-76200000D03*
X140970000Y-76200000D03*
X55880000Y-92710000D03*
X191770000Y-127080000D03*
X62230000Y-127080000D03*
X207010000Y-76200000D03*
X179070000Y-76200000D03*
X123190000Y-127080000D03*
X229870000Y-76200000D03*
X55880000Y-87630000D03*
X166370000Y-76200000D03*
X82550000Y-127080000D03*
X102870000Y-127080000D03*
X227330000Y-127080000D03*
X179070000Y-127080000D03*
X236220000Y-82550000D03*
X120650000Y-127080000D03*
X148590000Y-127080000D03*
X217170000Y-76200000D03*
X133350000Y-127080000D03*
X62230000Y-76200000D03*
X184150000Y-76200000D03*
X80010000Y-127080000D03*
X181610000Y-76200000D03*
X204470000Y-76200000D03*
X161290000Y-76200000D03*
X207010000Y-127080000D03*
X217170000Y-127080000D03*
X204470000Y-127080000D03*
X138430000Y-127080000D03*
X110490000Y-127080000D03*
X87630000Y-127080000D03*
%TD*%
%TA.AperFunction,Conductor*%
%TO.N,GND*%
G36*
X236302702Y-71374617D02*
G01*
X236708212Y-71392322D01*
X236718947Y-71393262D01*
X237118688Y-71445889D01*
X237129315Y-71447762D01*
X237522958Y-71535031D01*
X237533370Y-71537820D01*
X237917911Y-71659066D01*
X237928046Y-71662755D01*
X238300542Y-71817048D01*
X238310334Y-71821614D01*
X238667965Y-72007785D01*
X238677305Y-72013178D01*
X238824493Y-72106947D01*
X239017336Y-72229802D01*
X239026197Y-72236006D01*
X239346056Y-72481442D01*
X239354343Y-72488396D01*
X239651583Y-72760767D01*
X239659232Y-72768416D01*
X239931603Y-73065656D01*
X239938557Y-73073943D01*
X240183993Y-73393802D01*
X240190197Y-73402663D01*
X240406813Y-73742680D01*
X240412218Y-73752042D01*
X240531181Y-73980566D01*
X240598382Y-74109659D01*
X240602954Y-74119463D01*
X240757238Y-74491938D01*
X240760937Y-74502101D01*
X240801363Y-74630316D01*
X240882173Y-74886610D01*
X240884973Y-74897060D01*
X240972234Y-75290672D01*
X240974112Y-75301325D01*
X241026735Y-75701032D01*
X241027678Y-75711808D01*
X241045382Y-76117297D01*
X241045500Y-76122706D01*
X241045500Y-127077293D01*
X241045382Y-127082702D01*
X241027678Y-127488191D01*
X241026735Y-127498967D01*
X240974112Y-127898674D01*
X240972234Y-127909327D01*
X240884973Y-128302939D01*
X240882173Y-128313389D01*
X240760938Y-128697896D01*
X240757238Y-128708061D01*
X240602954Y-129080536D01*
X240598382Y-129090340D01*
X240412222Y-129447951D01*
X240406813Y-129457319D01*
X240190197Y-129797336D01*
X240183993Y-129806197D01*
X239938557Y-130126056D01*
X239931603Y-130134343D01*
X239659232Y-130431583D01*
X239651583Y-130439232D01*
X239354343Y-130711603D01*
X239346056Y-130718557D01*
X239026197Y-130963993D01*
X239017336Y-130970197D01*
X238677319Y-131186813D01*
X238667951Y-131192222D01*
X238310340Y-131378382D01*
X238300536Y-131382954D01*
X237928061Y-131537238D01*
X237917896Y-131540938D01*
X237533389Y-131662173D01*
X237522939Y-131664973D01*
X237129327Y-131752234D01*
X237118674Y-131754112D01*
X236718967Y-131806735D01*
X236708191Y-131807678D01*
X236302703Y-131825382D01*
X236297294Y-131825500D01*
X55802706Y-131825500D01*
X55797297Y-131825382D01*
X55391808Y-131807678D01*
X55381032Y-131806735D01*
X54981325Y-131754112D01*
X54970672Y-131752234D01*
X54714740Y-131695495D01*
X54577057Y-131664972D01*
X54566614Y-131662174D01*
X54182101Y-131540937D01*
X54171938Y-131537238D01*
X53799463Y-131382954D01*
X53789659Y-131378382D01*
X53672813Y-131317556D01*
X53432042Y-131192218D01*
X53422686Y-131186817D01*
X53252671Y-131078505D01*
X53082663Y-130970197D01*
X53073802Y-130963993D01*
X52753943Y-130718557D01*
X52745656Y-130711603D01*
X52448416Y-130439232D01*
X52440767Y-130431583D01*
X52168396Y-130134343D01*
X52161442Y-130126056D01*
X51916006Y-129806197D01*
X51909802Y-129797336D01*
X51893660Y-129771999D01*
X51693178Y-129457305D01*
X51687785Y-129447965D01*
X51501614Y-129090334D01*
X51497045Y-129080536D01*
X51342755Y-128708046D01*
X51339066Y-128697911D01*
X51217820Y-128313370D01*
X51215031Y-128302958D01*
X51127762Y-127909315D01*
X51125889Y-127898688D01*
X51073262Y-127498947D01*
X51072322Y-127488210D01*
X51054618Y-127082701D01*
X51054500Y-127077293D01*
X51054500Y-126932224D01*
X53545500Y-126932224D01*
X53545500Y-127227775D01*
X53575503Y-127455662D01*
X53584076Y-127520775D01*
X53622321Y-127663507D01*
X53660566Y-127806242D01*
X53773660Y-128079275D01*
X53773665Y-128079286D01*
X53921425Y-128335212D01*
X53921436Y-128335228D01*
X54101339Y-128569682D01*
X54101345Y-128569689D01*
X54310310Y-128778654D01*
X54310316Y-128778659D01*
X54544780Y-128958570D01*
X54544787Y-128958574D01*
X54800713Y-129106334D01*
X54800718Y-129106336D01*
X54800721Y-129106338D01*
X54937240Y-129162886D01*
X55073757Y-129219433D01*
X55073758Y-129219433D01*
X55073760Y-129219434D01*
X55359225Y-129295924D01*
X55652232Y-129334500D01*
X55652239Y-129334500D01*
X55947761Y-129334500D01*
X55947768Y-129334500D01*
X56240775Y-129295924D01*
X56526240Y-129219434D01*
X56799279Y-129106338D01*
X57055220Y-128958570D01*
X57289684Y-128778659D01*
X57498659Y-128569684D01*
X57678570Y-128335220D01*
X57826338Y-128079279D01*
X57939434Y-127806240D01*
X58015924Y-127520775D01*
X58054500Y-127227768D01*
X58054500Y-126932232D01*
X58054499Y-126932224D01*
X234045500Y-126932224D01*
X234045500Y-127227775D01*
X234075503Y-127455662D01*
X234084076Y-127520775D01*
X234122321Y-127663507D01*
X234160566Y-127806242D01*
X234273660Y-128079275D01*
X234273665Y-128079286D01*
X234421425Y-128335212D01*
X234421436Y-128335228D01*
X234601339Y-128569682D01*
X234601345Y-128569689D01*
X234810310Y-128778654D01*
X234810316Y-128778659D01*
X235044780Y-128958570D01*
X235044787Y-128958574D01*
X235300713Y-129106334D01*
X235300718Y-129106336D01*
X235300721Y-129106338D01*
X235437240Y-129162886D01*
X235573757Y-129219433D01*
X235573758Y-129219433D01*
X235573760Y-129219434D01*
X235859225Y-129295924D01*
X236152232Y-129334500D01*
X236152239Y-129334500D01*
X236447761Y-129334500D01*
X236447768Y-129334500D01*
X236740775Y-129295924D01*
X237026240Y-129219434D01*
X237299279Y-129106338D01*
X237555220Y-128958570D01*
X237789684Y-128778659D01*
X237998659Y-128569684D01*
X238178570Y-128335220D01*
X238326338Y-128079279D01*
X238439434Y-127806240D01*
X238515924Y-127520775D01*
X238554500Y-127227768D01*
X238554500Y-126932232D01*
X238515924Y-126639225D01*
X238439434Y-126353760D01*
X238326338Y-126080721D01*
X238326336Y-126080718D01*
X238326334Y-126080713D01*
X238178574Y-125824787D01*
X238178570Y-125824780D01*
X237998659Y-125590316D01*
X237998654Y-125590310D01*
X237789689Y-125381345D01*
X237789682Y-125381339D01*
X237555228Y-125201436D01*
X237555226Y-125201434D01*
X237555220Y-125201430D01*
X237555215Y-125201427D01*
X237555212Y-125201425D01*
X237299286Y-125053665D01*
X237299275Y-125053660D01*
X237026242Y-124940566D01*
X236883507Y-124902321D01*
X236740775Y-124864076D01*
X236675662Y-124855503D01*
X236447775Y-124825500D01*
X236447768Y-124825500D01*
X236152232Y-124825500D01*
X236152224Y-124825500D01*
X235891781Y-124859789D01*
X235859225Y-124864076D01*
X235787858Y-124883198D01*
X235573757Y-124940566D01*
X235300724Y-125053660D01*
X235300713Y-125053665D01*
X235044787Y-125201425D01*
X235044771Y-125201436D01*
X234810317Y-125381339D01*
X234810310Y-125381345D01*
X234601345Y-125590310D01*
X234601339Y-125590317D01*
X234421436Y-125824771D01*
X234421425Y-125824787D01*
X234273665Y-126080713D01*
X234273660Y-126080724D01*
X234160566Y-126353757D01*
X234084076Y-126639226D01*
X234045500Y-126932224D01*
X58054499Y-126932224D01*
X58015924Y-126639225D01*
X57939434Y-126353760D01*
X57826338Y-126080721D01*
X57826336Y-126080718D01*
X57826334Y-126080713D01*
X57678574Y-125824787D01*
X57678570Y-125824780D01*
X57498659Y-125590316D01*
X57498654Y-125590310D01*
X57289689Y-125381345D01*
X57289682Y-125381339D01*
X57055228Y-125201436D01*
X57055226Y-125201434D01*
X57055220Y-125201430D01*
X57055215Y-125201427D01*
X57055212Y-125201425D01*
X56799286Y-125053665D01*
X56799275Y-125053660D01*
X56526242Y-124940566D01*
X56383507Y-124902321D01*
X56240775Y-124864076D01*
X56175662Y-124855503D01*
X55947775Y-124825500D01*
X55947768Y-124825500D01*
X55652232Y-124825500D01*
X55652224Y-124825500D01*
X55391781Y-124859789D01*
X55359225Y-124864076D01*
X55287858Y-124883198D01*
X55073757Y-124940566D01*
X54800724Y-125053660D01*
X54800713Y-125053665D01*
X54544787Y-125201425D01*
X54544771Y-125201436D01*
X54310317Y-125381339D01*
X54310310Y-125381345D01*
X54101345Y-125590310D01*
X54101339Y-125590317D01*
X53921436Y-125824771D01*
X53921425Y-125824787D01*
X53773665Y-126080713D01*
X53773660Y-126080724D01*
X53660566Y-126353757D01*
X53584076Y-126639226D01*
X53545500Y-126932224D01*
X51054500Y-126932224D01*
X51054500Y-112844578D01*
X68893499Y-112844578D01*
X68893499Y-113041423D01*
X68924289Y-113235827D01*
X68985116Y-113423030D01*
X69074475Y-113598406D01*
X69190171Y-113757647D01*
X69329353Y-113896829D01*
X69488594Y-114012525D01*
X69559792Y-114048802D01*
X69663969Y-114101883D01*
X69663971Y-114101883D01*
X69663974Y-114101885D01*
X69752008Y-114130489D01*
X69851172Y-114162710D01*
X70045577Y-114193501D01*
X70045582Y-114193501D01*
X70242421Y-114193501D01*
X70436825Y-114162710D01*
X70447360Y-114159287D01*
X70624024Y-114101885D01*
X70728206Y-114048801D01*
X70796874Y-114035906D01*
X70861615Y-114062182D01*
X70901872Y-114119289D01*
X70908500Y-114159287D01*
X70908500Y-116726712D01*
X70888815Y-116793751D01*
X70836011Y-116839506D01*
X70766853Y-116849450D01*
X70728206Y-116837197D01*
X70624031Y-116784117D01*
X70436825Y-116723289D01*
X70242421Y-116692499D01*
X70242416Y-116692499D01*
X70045582Y-116692499D01*
X70045577Y-116692499D01*
X69851172Y-116723289D01*
X69663969Y-116784116D01*
X69488593Y-116873475D01*
X69406837Y-116932875D01*
X69329353Y-116989171D01*
X69329351Y-116989173D01*
X69329350Y-116989173D01*
X69190173Y-117128350D01*
X69190173Y-117128351D01*
X69190171Y-117128353D01*
X69163431Y-117165157D01*
X69074475Y-117287593D01*
X68985116Y-117462969D01*
X68924289Y-117650172D01*
X68893499Y-117844576D01*
X68893499Y-118041421D01*
X68924289Y-118235825D01*
X68985116Y-118423028D01*
X69074475Y-118598404D01*
X69190171Y-118757645D01*
X69329353Y-118896827D01*
X69488594Y-119012523D01*
X69571454Y-119054742D01*
X69663969Y-119101881D01*
X69663971Y-119101881D01*
X69663974Y-119101883D01*
X69764316Y-119134486D01*
X69851172Y-119162708D01*
X70045577Y-119193499D01*
X70045582Y-119193499D01*
X70242421Y-119193499D01*
X70436825Y-119162708D01*
X70624024Y-119101883D01*
X70799404Y-119012523D01*
X70958645Y-118896827D01*
X71097827Y-118757645D01*
X71213523Y-118598404D01*
X71302883Y-118423024D01*
X71363708Y-118235825D01*
X71394499Y-118041421D01*
X71394499Y-117844576D01*
X71363708Y-117650172D01*
X71352725Y-117616374D01*
X71316346Y-117504411D01*
X71314351Y-117434574D01*
X71350431Y-117374741D01*
X71413132Y-117343912D01*
X71451921Y-117343358D01*
X71538000Y-117355734D01*
X71538003Y-117355734D01*
X73829990Y-117355734D01*
X73830000Y-117355734D01*
X73937456Y-117344181D01*
X73988967Y-117332975D01*
X74023197Y-117321581D01*
X74091497Y-117298850D01*
X74091501Y-117298847D01*
X74091504Y-117298847D01*
X74212543Y-117221059D01*
X74265347Y-117175304D01*
X74359567Y-117066570D01*
X74419338Y-116935693D01*
X74439023Y-116868654D01*
X74439024Y-116868650D01*
X74459500Y-116726234D01*
X74459500Y-110489370D01*
X74479185Y-110422331D01*
X74531989Y-110376576D01*
X74584180Y-110365372D01*
X96148889Y-110484065D01*
X96215820Y-110504118D01*
X96261283Y-110557173D01*
X96272205Y-110607327D01*
X96278758Y-111710825D01*
X96259472Y-111777980D01*
X96206940Y-111824047D01*
X96137842Y-111834401D01*
X96098466Y-111822046D01*
X96024031Y-111784119D01*
X95836825Y-111723291D01*
X95642421Y-111692501D01*
X95642416Y-111692501D01*
X95445582Y-111692501D01*
X95445577Y-111692501D01*
X95251172Y-111723291D01*
X95063969Y-111784118D01*
X94888593Y-111873477D01*
X94807925Y-111932087D01*
X94729353Y-111989173D01*
X94729351Y-111989175D01*
X94729350Y-111989175D01*
X94590173Y-112128352D01*
X94590173Y-112128353D01*
X94590171Y-112128355D01*
X94540484Y-112196742D01*
X94474475Y-112287595D01*
X94385116Y-112462971D01*
X94324289Y-112650174D01*
X94293499Y-112844578D01*
X94293499Y-113041423D01*
X94324289Y-113235827D01*
X94385116Y-113423030D01*
X94474475Y-113598406D01*
X94590171Y-113757647D01*
X94729353Y-113896829D01*
X94888594Y-114012525D01*
X94959792Y-114048802D01*
X95063969Y-114101883D01*
X95063971Y-114101883D01*
X95063974Y-114101885D01*
X95152008Y-114130489D01*
X95251172Y-114162710D01*
X95445577Y-114193501D01*
X95445582Y-114193501D01*
X95642421Y-114193501D01*
X95836825Y-114162710D01*
X95847360Y-114159287D01*
X96024024Y-114101885D01*
X96113050Y-114056523D01*
X96181719Y-114043628D01*
X96246460Y-114069904D01*
X96286717Y-114127011D01*
X96293343Y-114166272D01*
X96307777Y-116596287D01*
X96307778Y-116596295D01*
X96319642Y-116702205D01*
X96319642Y-116702207D01*
X96320873Y-116707783D01*
X96316096Y-116777489D01*
X96274391Y-116833547D01*
X96209000Y-116858158D01*
X96143491Y-116844986D01*
X96024028Y-116784116D01*
X95836825Y-116723289D01*
X95642421Y-116692499D01*
X95642416Y-116692499D01*
X95445582Y-116692499D01*
X95445577Y-116692499D01*
X95251172Y-116723289D01*
X95063969Y-116784116D01*
X94888593Y-116873475D01*
X94806837Y-116932875D01*
X94729353Y-116989171D01*
X94729351Y-116989173D01*
X94729350Y-116989173D01*
X94590173Y-117128350D01*
X94590173Y-117128351D01*
X94590171Y-117128353D01*
X94563431Y-117165157D01*
X94474475Y-117287593D01*
X94385116Y-117462969D01*
X94324289Y-117650172D01*
X94293499Y-117844576D01*
X94293499Y-118041421D01*
X94324289Y-118235825D01*
X94385116Y-118423028D01*
X94474475Y-118598404D01*
X94590171Y-118757645D01*
X94729353Y-118896827D01*
X94888594Y-119012523D01*
X94971454Y-119054742D01*
X95063969Y-119101881D01*
X95063971Y-119101881D01*
X95063974Y-119101883D01*
X95164316Y-119134486D01*
X95251172Y-119162708D01*
X95445577Y-119193499D01*
X95445582Y-119193499D01*
X95642421Y-119193499D01*
X95836825Y-119162708D01*
X96024024Y-119101883D01*
X96199404Y-119012523D01*
X96358645Y-118896827D01*
X96497827Y-118757645D01*
X96613523Y-118598404D01*
X96702883Y-118423024D01*
X96763708Y-118235825D01*
X96794499Y-118041421D01*
X96794499Y-117844576D01*
X96763708Y-117650172D01*
X96716348Y-117504415D01*
X96702883Y-117462974D01*
X96702880Y-117462970D01*
X96702880Y-117462967D01*
X96660360Y-117379518D01*
X96647463Y-117310848D01*
X96673739Y-117246108D01*
X96730845Y-117205850D01*
X96791621Y-117201757D01*
X96791714Y-117201117D01*
X96794716Y-117201548D01*
X96794741Y-117201547D01*
X96794839Y-117201566D01*
X96794846Y-117201567D01*
X96794850Y-117201568D01*
X96937266Y-117222044D01*
X96937269Y-117222044D01*
X99229990Y-117222044D01*
X99230000Y-117222044D01*
X99337456Y-117210491D01*
X99388967Y-117199285D01*
X99423197Y-117187891D01*
X99491497Y-117165160D01*
X99491501Y-117165157D01*
X99491504Y-117165157D01*
X99612543Y-117087369D01*
X99665347Y-117041614D01*
X99759567Y-116932880D01*
X99819338Y-116802003D01*
X99839023Y-116734964D01*
X99839024Y-116734960D01*
X99859500Y-116592544D01*
X99859500Y-110484500D01*
X99879185Y-110417461D01*
X99931989Y-110371706D01*
X99983500Y-110360500D01*
X121584500Y-110360500D01*
X121651539Y-110380185D01*
X121697294Y-110432989D01*
X121708500Y-110484500D01*
X121708500Y-111726714D01*
X121688815Y-111793753D01*
X121636011Y-111839508D01*
X121566853Y-111849452D01*
X121528206Y-111837199D01*
X121424031Y-111784119D01*
X121236825Y-111723291D01*
X121042421Y-111692501D01*
X121042416Y-111692501D01*
X120845582Y-111692501D01*
X120845577Y-111692501D01*
X120651172Y-111723291D01*
X120463969Y-111784118D01*
X120288593Y-111873477D01*
X120207925Y-111932087D01*
X120129353Y-111989173D01*
X120129351Y-111989175D01*
X120129350Y-111989175D01*
X119990173Y-112128352D01*
X119990173Y-112128353D01*
X119990171Y-112128355D01*
X119940484Y-112196742D01*
X119874475Y-112287595D01*
X119785116Y-112462971D01*
X119724289Y-112650174D01*
X119693499Y-112844578D01*
X119693499Y-113041423D01*
X119724289Y-113235827D01*
X119785116Y-113423030D01*
X119874475Y-113598406D01*
X119990171Y-113757647D01*
X120129353Y-113896829D01*
X120288594Y-114012525D01*
X120359792Y-114048802D01*
X120463969Y-114101883D01*
X120463971Y-114101883D01*
X120463974Y-114101885D01*
X120552008Y-114130489D01*
X120651172Y-114162710D01*
X120845577Y-114193501D01*
X120845582Y-114193501D01*
X121042421Y-114193501D01*
X121236825Y-114162710D01*
X121247360Y-114159287D01*
X121424024Y-114101885D01*
X121528206Y-114048801D01*
X121596874Y-114035906D01*
X121661615Y-114062182D01*
X121701872Y-114119289D01*
X121708500Y-114159287D01*
X121708500Y-116592544D01*
X121708501Y-116592553D01*
X121720052Y-116699994D01*
X121720053Y-116700001D01*
X121721934Y-116708648D01*
X121716946Y-116778340D01*
X121675071Y-116834271D01*
X121609606Y-116858685D01*
X121544472Y-116845485D01*
X121424031Y-116784117D01*
X121236825Y-116723289D01*
X121042421Y-116692499D01*
X121042416Y-116692499D01*
X120845582Y-116692499D01*
X120845577Y-116692499D01*
X120651172Y-116723289D01*
X120463969Y-116784116D01*
X120288593Y-116873475D01*
X120206837Y-116932875D01*
X120129353Y-116989171D01*
X120129351Y-116989173D01*
X120129350Y-116989173D01*
X119990173Y-117128350D01*
X119990173Y-117128351D01*
X119990171Y-117128353D01*
X119963431Y-117165157D01*
X119874475Y-117287593D01*
X119785116Y-117462969D01*
X119724289Y-117650172D01*
X119693499Y-117844576D01*
X119693499Y-118041421D01*
X119724289Y-118235825D01*
X119785116Y-118423028D01*
X119874475Y-118598404D01*
X119990171Y-118757645D01*
X120129353Y-118896827D01*
X120288594Y-119012523D01*
X120371454Y-119054742D01*
X120463969Y-119101881D01*
X120463971Y-119101881D01*
X120463974Y-119101883D01*
X120564316Y-119134486D01*
X120651172Y-119162708D01*
X120845577Y-119193499D01*
X120845582Y-119193499D01*
X121042421Y-119193499D01*
X121236825Y-119162708D01*
X121424024Y-119101883D01*
X121599404Y-119012523D01*
X121758645Y-118896827D01*
X121897827Y-118757645D01*
X122013523Y-118598404D01*
X122102883Y-118423024D01*
X122163708Y-118235825D01*
X122194499Y-118041421D01*
X122194499Y-117844576D01*
X122163708Y-117650172D01*
X122102881Y-117462969D01*
X122060278Y-117379357D01*
X122047382Y-117310688D01*
X122073658Y-117245947D01*
X122130765Y-117205690D01*
X122192387Y-117201538D01*
X122192448Y-117201117D01*
X122194427Y-117201401D01*
X122194658Y-117201386D01*
X122195572Y-117201564D01*
X122195580Y-117201567D01*
X122195584Y-117201568D01*
X122338000Y-117222044D01*
X122338003Y-117222044D01*
X124629990Y-117222044D01*
X124630000Y-117222044D01*
X124737456Y-117210491D01*
X124788967Y-117199285D01*
X124823197Y-117187891D01*
X124891497Y-117165160D01*
X124891501Y-117165157D01*
X124891504Y-117165157D01*
X125012543Y-117087369D01*
X125065347Y-117041614D01*
X125159567Y-116932880D01*
X125219338Y-116802003D01*
X125239023Y-116734964D01*
X125239024Y-116734960D01*
X125259500Y-116592544D01*
X125259500Y-110484442D01*
X125279185Y-110417403D01*
X125331989Y-110371648D01*
X125383484Y-110360442D01*
X146984489Y-110358517D01*
X147051530Y-110378196D01*
X147097290Y-110430995D01*
X147108500Y-110482517D01*
X147108500Y-111726714D01*
X147088815Y-111793753D01*
X147036011Y-111839508D01*
X146966853Y-111849452D01*
X146928206Y-111837199D01*
X146824031Y-111784119D01*
X146636825Y-111723291D01*
X146442421Y-111692501D01*
X146442416Y-111692501D01*
X146245582Y-111692501D01*
X146245577Y-111692501D01*
X146051172Y-111723291D01*
X145863969Y-111784118D01*
X145688593Y-111873477D01*
X145607925Y-111932087D01*
X145529353Y-111989173D01*
X145529351Y-111989175D01*
X145529350Y-111989175D01*
X145390173Y-112128352D01*
X145390173Y-112128353D01*
X145390171Y-112128355D01*
X145340484Y-112196742D01*
X145274475Y-112287595D01*
X145185116Y-112462971D01*
X145124289Y-112650174D01*
X145093499Y-112844578D01*
X145093499Y-113041423D01*
X145124289Y-113235827D01*
X145185116Y-113423030D01*
X145274475Y-113598406D01*
X145390171Y-113757647D01*
X145529353Y-113896829D01*
X145595967Y-113945227D01*
X145688595Y-114012526D01*
X145825958Y-114082515D01*
X145876755Y-114130489D01*
X145893550Y-114198310D01*
X145871013Y-114264445D01*
X145825959Y-114303485D01*
X145688594Y-114373476D01*
X145597741Y-114439485D01*
X145529354Y-114489172D01*
X145529352Y-114489174D01*
X145529351Y-114489174D01*
X145390174Y-114628351D01*
X145390174Y-114628352D01*
X145390172Y-114628354D01*
X145340485Y-114696741D01*
X145274476Y-114787594D01*
X145185117Y-114962970D01*
X145124290Y-115150173D01*
X145093500Y-115344577D01*
X145093500Y-115541422D01*
X145124290Y-115735826D01*
X145185117Y-115923029D01*
X145274476Y-116098405D01*
X145390172Y-116257646D01*
X145529354Y-116396828D01*
X145688595Y-116512524D01*
X145825959Y-116582514D01*
X145876755Y-116630488D01*
X145893550Y-116698309D01*
X145871013Y-116764444D01*
X145825959Y-116803484D01*
X145688593Y-116873475D01*
X145606837Y-116932875D01*
X145529353Y-116989171D01*
X145529351Y-116989173D01*
X145529350Y-116989173D01*
X145390173Y-117128350D01*
X145390173Y-117128351D01*
X145390171Y-117128353D01*
X145363431Y-117165157D01*
X145274475Y-117287593D01*
X145185116Y-117462969D01*
X145124289Y-117650172D01*
X145093499Y-117844576D01*
X145093499Y-118041421D01*
X145124289Y-118235825D01*
X145185116Y-118423028D01*
X145274475Y-118598404D01*
X145390171Y-118757645D01*
X145529353Y-118896827D01*
X145688594Y-119012523D01*
X145771454Y-119054742D01*
X145863969Y-119101881D01*
X145863971Y-119101881D01*
X145863974Y-119101883D01*
X145964316Y-119134486D01*
X146051172Y-119162708D01*
X146245577Y-119193499D01*
X146245582Y-119193499D01*
X146442421Y-119193499D01*
X146636825Y-119162708D01*
X146824024Y-119101883D01*
X146999404Y-119012523D01*
X147158645Y-118896827D01*
X147297827Y-118757645D01*
X147413523Y-118598404D01*
X147502883Y-118423024D01*
X147563708Y-118235825D01*
X147594499Y-118041421D01*
X147594499Y-117844576D01*
X147563708Y-117650172D01*
X147502881Y-117462969D01*
X147460278Y-117379357D01*
X147447382Y-117310688D01*
X147473658Y-117245947D01*
X147530765Y-117205690D01*
X147592387Y-117201538D01*
X147592448Y-117201117D01*
X147594427Y-117201401D01*
X147594658Y-117201386D01*
X147595572Y-117201564D01*
X147595580Y-117201567D01*
X147595584Y-117201568D01*
X147738000Y-117222044D01*
X147738003Y-117222044D01*
X150029990Y-117222044D01*
X150030000Y-117222044D01*
X150137456Y-117210491D01*
X150188967Y-117199285D01*
X150223197Y-117187891D01*
X150291497Y-117165160D01*
X150291501Y-117165157D01*
X150291504Y-117165157D01*
X150412543Y-117087369D01*
X150465347Y-117041614D01*
X150559567Y-116932880D01*
X150619338Y-116802003D01*
X150639023Y-116734964D01*
X150639024Y-116734960D01*
X150659500Y-116592544D01*
X150659500Y-110488044D01*
X150679185Y-110421005D01*
X150731989Y-110375250D01*
X150783500Y-110364044D01*
X172384500Y-110364044D01*
X172451539Y-110383729D01*
X172497294Y-110436533D01*
X172508500Y-110488044D01*
X172508500Y-111726714D01*
X172488815Y-111793753D01*
X172436011Y-111839508D01*
X172366853Y-111849452D01*
X172328206Y-111837199D01*
X172224031Y-111784119D01*
X172036825Y-111723291D01*
X171842421Y-111692501D01*
X171842416Y-111692501D01*
X171645582Y-111692501D01*
X171645577Y-111692501D01*
X171451172Y-111723291D01*
X171263969Y-111784118D01*
X171088593Y-111873477D01*
X171007925Y-111932087D01*
X170929353Y-111989173D01*
X170929351Y-111989175D01*
X170929350Y-111989175D01*
X170790173Y-112128352D01*
X170790173Y-112128353D01*
X170790171Y-112128355D01*
X170740484Y-112196742D01*
X170674475Y-112287595D01*
X170585116Y-112462971D01*
X170524289Y-112650174D01*
X170493499Y-112844578D01*
X170493499Y-113041423D01*
X170524289Y-113235827D01*
X170585116Y-113423030D01*
X170674475Y-113598406D01*
X170790171Y-113757647D01*
X170929353Y-113896829D01*
X171088594Y-114012525D01*
X171159792Y-114048802D01*
X171263969Y-114101883D01*
X171263971Y-114101883D01*
X171263974Y-114101885D01*
X171352008Y-114130489D01*
X171451172Y-114162710D01*
X171645577Y-114193501D01*
X171645582Y-114193501D01*
X171842421Y-114193501D01*
X172036825Y-114162710D01*
X172047360Y-114159287D01*
X172224024Y-114101885D01*
X172328206Y-114048801D01*
X172396874Y-114035906D01*
X172461615Y-114062182D01*
X172501872Y-114119289D01*
X172508500Y-114159287D01*
X172508500Y-116592544D01*
X172508501Y-116592553D01*
X172520052Y-116699994D01*
X172520053Y-116700001D01*
X172521934Y-116708648D01*
X172516946Y-116778340D01*
X172475071Y-116834271D01*
X172409606Y-116858685D01*
X172344472Y-116845485D01*
X172224031Y-116784117D01*
X172036825Y-116723289D01*
X171842421Y-116692499D01*
X171842416Y-116692499D01*
X171645582Y-116692499D01*
X171645577Y-116692499D01*
X171451172Y-116723289D01*
X171263969Y-116784116D01*
X171088593Y-116873475D01*
X171006837Y-116932875D01*
X170929353Y-116989171D01*
X170929351Y-116989173D01*
X170929350Y-116989173D01*
X170790173Y-117128350D01*
X170790173Y-117128351D01*
X170790171Y-117128353D01*
X170763431Y-117165157D01*
X170674475Y-117287593D01*
X170585116Y-117462969D01*
X170524289Y-117650172D01*
X170493499Y-117844576D01*
X170493499Y-118041421D01*
X170524289Y-118235825D01*
X170585116Y-118423028D01*
X170674475Y-118598404D01*
X170790171Y-118757645D01*
X170929353Y-118896827D01*
X171088594Y-119012523D01*
X171171454Y-119054742D01*
X171263969Y-119101881D01*
X171263971Y-119101881D01*
X171263974Y-119101883D01*
X171364316Y-119134486D01*
X171451172Y-119162708D01*
X171645577Y-119193499D01*
X171645582Y-119193499D01*
X171842421Y-119193499D01*
X172036825Y-119162708D01*
X172224024Y-119101883D01*
X172399404Y-119012523D01*
X172558645Y-118896827D01*
X172697827Y-118757645D01*
X172813523Y-118598404D01*
X172902883Y-118423024D01*
X172963708Y-118235825D01*
X172994499Y-118041421D01*
X172994499Y-117844576D01*
X172963708Y-117650172D01*
X172902881Y-117462969D01*
X172860278Y-117379357D01*
X172847382Y-117310688D01*
X172873658Y-117245947D01*
X172930765Y-117205690D01*
X172992387Y-117201538D01*
X172992448Y-117201117D01*
X172994427Y-117201401D01*
X172994658Y-117201386D01*
X172995572Y-117201564D01*
X172995580Y-117201567D01*
X172995584Y-117201568D01*
X173138000Y-117222044D01*
X173138003Y-117222044D01*
X175429990Y-117222044D01*
X175430000Y-117222044D01*
X175537456Y-117210491D01*
X175588967Y-117199285D01*
X175623197Y-117187891D01*
X175691497Y-117165160D01*
X175691501Y-117165157D01*
X175691504Y-117165157D01*
X175812543Y-117087369D01*
X175865347Y-117041614D01*
X175959567Y-116932880D01*
X176019338Y-116802003D01*
X176039023Y-116734964D01*
X176039024Y-116734960D01*
X176059500Y-116592544D01*
X176059500Y-110488044D01*
X176079185Y-110421005D01*
X176131989Y-110375250D01*
X176183500Y-110364044D01*
X197784500Y-110364044D01*
X197851539Y-110383729D01*
X197897294Y-110436533D01*
X197908500Y-110488044D01*
X197908500Y-111726714D01*
X197888815Y-111793753D01*
X197836011Y-111839508D01*
X197766853Y-111849452D01*
X197728206Y-111837199D01*
X197624031Y-111784119D01*
X197436825Y-111723291D01*
X197242421Y-111692501D01*
X197242416Y-111692501D01*
X197045582Y-111692501D01*
X197045577Y-111692501D01*
X196851172Y-111723291D01*
X196663969Y-111784118D01*
X196488593Y-111873477D01*
X196407925Y-111932087D01*
X196329353Y-111989173D01*
X196329351Y-111989175D01*
X196329350Y-111989175D01*
X196190173Y-112128352D01*
X196190173Y-112128353D01*
X196190171Y-112128355D01*
X196140484Y-112196742D01*
X196074475Y-112287595D01*
X195985116Y-112462971D01*
X195924289Y-112650174D01*
X195893499Y-112844578D01*
X195893499Y-113041423D01*
X195924289Y-113235827D01*
X195985116Y-113423030D01*
X196074475Y-113598406D01*
X196190171Y-113757647D01*
X196329353Y-113896829D01*
X196488594Y-114012525D01*
X196559792Y-114048802D01*
X196663969Y-114101883D01*
X196663971Y-114101883D01*
X196663974Y-114101885D01*
X196752008Y-114130489D01*
X196851172Y-114162710D01*
X197045577Y-114193501D01*
X197045582Y-114193501D01*
X197242421Y-114193501D01*
X197436825Y-114162710D01*
X197447360Y-114159287D01*
X197624024Y-114101885D01*
X197728206Y-114048801D01*
X197796874Y-114035906D01*
X197861615Y-114062182D01*
X197901872Y-114119289D01*
X197908500Y-114159287D01*
X197908500Y-116592544D01*
X197908501Y-116592553D01*
X197920052Y-116699994D01*
X197920053Y-116700001D01*
X197921934Y-116708648D01*
X197916946Y-116778340D01*
X197875071Y-116834271D01*
X197809606Y-116858685D01*
X197744472Y-116845485D01*
X197624031Y-116784117D01*
X197436825Y-116723289D01*
X197242421Y-116692499D01*
X197242416Y-116692499D01*
X197045582Y-116692499D01*
X197045577Y-116692499D01*
X196851172Y-116723289D01*
X196663969Y-116784116D01*
X196488593Y-116873475D01*
X196406837Y-116932875D01*
X196329353Y-116989171D01*
X196329351Y-116989173D01*
X196329350Y-116989173D01*
X196190173Y-117128350D01*
X196190173Y-117128351D01*
X196190171Y-117128353D01*
X196163431Y-117165157D01*
X196074475Y-117287593D01*
X195985116Y-117462969D01*
X195924289Y-117650172D01*
X195893499Y-117844576D01*
X195893499Y-118041421D01*
X195924289Y-118235825D01*
X195985116Y-118423028D01*
X196074475Y-118598404D01*
X196190171Y-118757645D01*
X196329353Y-118896827D01*
X196488594Y-119012523D01*
X196571454Y-119054742D01*
X196663969Y-119101881D01*
X196663971Y-119101881D01*
X196663974Y-119101883D01*
X196764316Y-119134486D01*
X196851172Y-119162708D01*
X197045577Y-119193499D01*
X197045582Y-119193499D01*
X197242421Y-119193499D01*
X197436825Y-119162708D01*
X197624024Y-119101883D01*
X197799404Y-119012523D01*
X197958645Y-118896827D01*
X198097827Y-118757645D01*
X198213523Y-118598404D01*
X198302883Y-118423024D01*
X198363708Y-118235825D01*
X198394499Y-118041421D01*
X198394499Y-117844576D01*
X198363708Y-117650172D01*
X198302881Y-117462969D01*
X198260278Y-117379357D01*
X198247382Y-117310688D01*
X198273658Y-117245947D01*
X198330765Y-117205690D01*
X198392387Y-117201538D01*
X198392448Y-117201117D01*
X198394427Y-117201401D01*
X198394658Y-117201386D01*
X198395572Y-117201564D01*
X198395580Y-117201567D01*
X198395584Y-117201568D01*
X198538000Y-117222044D01*
X198538003Y-117222044D01*
X200829990Y-117222044D01*
X200830000Y-117222044D01*
X200937456Y-117210491D01*
X200988967Y-117199285D01*
X201023197Y-117187891D01*
X201091497Y-117165160D01*
X201091501Y-117165157D01*
X201091504Y-117165157D01*
X201212543Y-117087369D01*
X201265347Y-117041614D01*
X201359567Y-116932880D01*
X201419338Y-116802003D01*
X201439023Y-116734964D01*
X201439024Y-116734960D01*
X201459500Y-116592544D01*
X201459500Y-110488044D01*
X201479185Y-110421005D01*
X201531989Y-110375250D01*
X201583500Y-110364044D01*
X223184500Y-110364044D01*
X223251539Y-110383729D01*
X223297294Y-110436533D01*
X223308500Y-110488044D01*
X223308500Y-111726714D01*
X223288815Y-111793753D01*
X223236011Y-111839508D01*
X223166853Y-111849452D01*
X223128206Y-111837199D01*
X223024031Y-111784119D01*
X222836825Y-111723291D01*
X222642421Y-111692501D01*
X222642416Y-111692501D01*
X222445582Y-111692501D01*
X222445577Y-111692501D01*
X222251172Y-111723291D01*
X222063969Y-111784118D01*
X221888593Y-111873477D01*
X221807925Y-111932087D01*
X221729353Y-111989173D01*
X221729351Y-111989175D01*
X221729350Y-111989175D01*
X221590173Y-112128352D01*
X221590173Y-112128353D01*
X221590171Y-112128355D01*
X221540484Y-112196742D01*
X221474475Y-112287595D01*
X221385116Y-112462971D01*
X221324289Y-112650174D01*
X221293499Y-112844578D01*
X221293499Y-113041423D01*
X221324289Y-113235827D01*
X221385116Y-113423030D01*
X221474475Y-113598406D01*
X221590171Y-113757647D01*
X221729353Y-113896829D01*
X221888594Y-114012525D01*
X221959792Y-114048802D01*
X222063969Y-114101883D01*
X222063971Y-114101883D01*
X222063974Y-114101885D01*
X222152008Y-114130489D01*
X222251172Y-114162710D01*
X222445577Y-114193501D01*
X222445582Y-114193501D01*
X222642421Y-114193501D01*
X222836825Y-114162710D01*
X222847360Y-114159287D01*
X223024024Y-114101885D01*
X223128206Y-114048801D01*
X223196874Y-114035906D01*
X223261615Y-114062182D01*
X223301872Y-114119289D01*
X223308500Y-114159287D01*
X223308500Y-116592544D01*
X223308501Y-116592553D01*
X223320052Y-116699994D01*
X223320053Y-116700001D01*
X223321934Y-116708648D01*
X223316946Y-116778340D01*
X223275071Y-116834271D01*
X223209606Y-116858685D01*
X223144472Y-116845485D01*
X223024031Y-116784117D01*
X222836825Y-116723289D01*
X222642421Y-116692499D01*
X222642416Y-116692499D01*
X222445582Y-116692499D01*
X222445577Y-116692499D01*
X222251172Y-116723289D01*
X222063969Y-116784116D01*
X221888593Y-116873475D01*
X221806837Y-116932875D01*
X221729353Y-116989171D01*
X221729351Y-116989173D01*
X221729350Y-116989173D01*
X221590173Y-117128350D01*
X221590173Y-117128351D01*
X221590171Y-117128353D01*
X221563431Y-117165157D01*
X221474475Y-117287593D01*
X221385116Y-117462969D01*
X221324289Y-117650172D01*
X221293499Y-117844576D01*
X221293499Y-118041421D01*
X221324289Y-118235825D01*
X221385116Y-118423028D01*
X221474475Y-118598404D01*
X221590171Y-118757645D01*
X221729353Y-118896827D01*
X221888594Y-119012523D01*
X221971454Y-119054742D01*
X222063969Y-119101881D01*
X222063971Y-119101881D01*
X222063974Y-119101883D01*
X222164316Y-119134486D01*
X222251172Y-119162708D01*
X222445577Y-119193499D01*
X222445582Y-119193499D01*
X222642421Y-119193499D01*
X222836825Y-119162708D01*
X223024024Y-119101883D01*
X223199404Y-119012523D01*
X223358645Y-118896827D01*
X223497827Y-118757645D01*
X223613523Y-118598404D01*
X223702883Y-118423024D01*
X223763708Y-118235825D01*
X223794499Y-118041421D01*
X223794499Y-117844576D01*
X223763708Y-117650172D01*
X223702881Y-117462969D01*
X223660278Y-117379357D01*
X223647382Y-117310688D01*
X223673658Y-117245947D01*
X223730765Y-117205690D01*
X223792387Y-117201538D01*
X223792448Y-117201117D01*
X223794427Y-117201401D01*
X223794658Y-117201386D01*
X223795572Y-117201564D01*
X223795580Y-117201567D01*
X223795584Y-117201568D01*
X223938000Y-117222044D01*
X223938003Y-117222044D01*
X226229990Y-117222044D01*
X226230000Y-117222044D01*
X226337456Y-117210491D01*
X226388967Y-117199285D01*
X226423197Y-117187891D01*
X226491497Y-117165160D01*
X226491501Y-117165157D01*
X226491504Y-117165157D01*
X226612543Y-117087369D01*
X226665347Y-117041614D01*
X226759567Y-116932880D01*
X226819338Y-116802003D01*
X226839023Y-116734964D01*
X226839024Y-116734960D01*
X226859500Y-116592544D01*
X226859500Y-93218544D01*
X226847947Y-93111088D01*
X226836741Y-93059577D01*
X226836637Y-93059266D01*
X226802616Y-92957046D01*
X226802613Y-92957040D01*
X226724828Y-92836006D01*
X226724825Y-92836001D01*
X226724820Y-92835995D01*
X226679076Y-92783203D01*
X226679072Y-92783200D01*
X226679070Y-92783197D01*
X226570336Y-92688977D01*
X226570333Y-92688975D01*
X226570331Y-92688974D01*
X226439465Y-92629208D01*
X226439460Y-92629206D01*
X226439459Y-92629206D01*
X226372420Y-92609521D01*
X226372422Y-92609521D01*
X226372417Y-92609520D01*
X226324944Y-92602694D01*
X226230000Y-92589044D01*
X226229998Y-92589044D01*
X221903500Y-92589044D01*
X221836461Y-92569359D01*
X221790706Y-92516555D01*
X221779500Y-92465044D01*
X221779500Y-91854285D01*
X221799185Y-91787246D01*
X221851989Y-91741491D01*
X221921147Y-91731547D01*
X221959792Y-91743799D01*
X222007895Y-91768308D01*
X222063971Y-91796881D01*
X222063973Y-91796881D01*
X222063976Y-91796883D01*
X222164318Y-91829486D01*
X222251174Y-91857708D01*
X222445579Y-91888499D01*
X222445584Y-91888499D01*
X222642423Y-91888499D01*
X222836827Y-91857708D01*
X222847362Y-91854285D01*
X223024026Y-91796883D01*
X223199406Y-91707523D01*
X223358647Y-91591827D01*
X223497829Y-91452645D01*
X223613525Y-91293404D01*
X223702885Y-91118024D01*
X223763710Y-90930825D01*
X223794501Y-90736421D01*
X223794501Y-90539576D01*
X223763710Y-90345172D01*
X223702883Y-90157969D01*
X223613524Y-89982593D01*
X223497829Y-89823353D01*
X223358647Y-89684171D01*
X223199406Y-89568475D01*
X223153516Y-89545093D01*
X223024030Y-89479116D01*
X222836827Y-89418289D01*
X222642423Y-89387499D01*
X222642418Y-89387499D01*
X222445584Y-89387499D01*
X222445579Y-89387499D01*
X222251174Y-89418289D01*
X222063968Y-89479117D01*
X221959794Y-89532197D01*
X221891125Y-89545093D01*
X221826385Y-89518816D01*
X221786128Y-89461710D01*
X221779500Y-89421712D01*
X221779500Y-86868554D01*
X221779500Y-86868544D01*
X221779346Y-86867118D01*
X221779405Y-86866793D01*
X221779322Y-86865238D01*
X221779500Y-86865228D01*
X221779500Y-86865223D01*
X221779601Y-86865223D01*
X221779689Y-86865218D01*
X221791739Y-86798361D01*
X221839340Y-86747216D01*
X221907037Y-86729924D01*
X221958927Y-86743361D01*
X222063968Y-86796882D01*
X222063973Y-86796883D01*
X222063976Y-86796885D01*
X222167337Y-86830469D01*
X222251174Y-86857710D01*
X222445579Y-86888501D01*
X222445584Y-86888501D01*
X222642423Y-86888501D01*
X222836827Y-86857710D01*
X222847362Y-86854287D01*
X223024026Y-86796885D01*
X223199406Y-86707525D01*
X223358647Y-86591829D01*
X223497829Y-86452647D01*
X223613525Y-86293406D01*
X223702885Y-86118026D01*
X223763710Y-85930827D01*
X223777163Y-85845887D01*
X223794501Y-85736423D01*
X223794501Y-85539578D01*
X223763710Y-85345174D01*
X223702883Y-85157971D01*
X223613524Y-84982595D01*
X223497829Y-84823355D01*
X223358647Y-84684173D01*
X223199406Y-84568477D01*
X223024030Y-84479118D01*
X222836827Y-84418291D01*
X222642423Y-84387501D01*
X222642418Y-84387501D01*
X222445584Y-84387501D01*
X222445579Y-84387501D01*
X222251174Y-84418291D01*
X222063971Y-84479118D01*
X221888595Y-84568477D01*
X221797742Y-84634486D01*
X221729355Y-84684173D01*
X221729353Y-84684175D01*
X221729352Y-84684175D01*
X221590175Y-84823352D01*
X221590175Y-84823353D01*
X221590173Y-84823355D01*
X221540486Y-84891742D01*
X221474477Y-84982595D01*
X221385118Y-85157971D01*
X221324291Y-85345174D01*
X221293501Y-85539578D01*
X221293501Y-85736423D01*
X221324291Y-85930827D01*
X221376348Y-86091037D01*
X221378343Y-86160878D01*
X221342263Y-86220711D01*
X221279562Y-86251540D01*
X221240771Y-86252094D01*
X221150001Y-86239044D01*
X221150000Y-86239044D01*
X218858000Y-86239044D01*
X218857991Y-86239044D01*
X218857990Y-86239045D01*
X218750549Y-86250596D01*
X218750537Y-86250598D01*
X218699027Y-86261804D01*
X218596502Y-86295927D01*
X218596496Y-86295930D01*
X218475462Y-86373715D01*
X218475451Y-86373723D01*
X218422659Y-86419467D01*
X218328433Y-86528208D01*
X218328430Y-86528212D01*
X218268664Y-86659078D01*
X218248976Y-86726126D01*
X218240188Y-86787248D01*
X218228978Y-86865223D01*
X218228500Y-86868545D01*
X218228500Y-92465044D01*
X218208815Y-92532083D01*
X218156011Y-92577838D01*
X218104500Y-92589044D01*
X196503500Y-92589044D01*
X196436461Y-92569359D01*
X196390706Y-92516555D01*
X196379500Y-92465044D01*
X196379500Y-91854285D01*
X196399185Y-91787246D01*
X196451989Y-91741491D01*
X196521147Y-91731547D01*
X196559792Y-91743799D01*
X196607895Y-91768308D01*
X196663971Y-91796881D01*
X196663973Y-91796881D01*
X196663976Y-91796883D01*
X196764318Y-91829486D01*
X196851174Y-91857708D01*
X197045579Y-91888499D01*
X197045584Y-91888499D01*
X197242423Y-91888499D01*
X197436827Y-91857708D01*
X197447362Y-91854285D01*
X197624026Y-91796883D01*
X197799406Y-91707523D01*
X197958647Y-91591827D01*
X198097829Y-91452645D01*
X198213525Y-91293404D01*
X198302885Y-91118024D01*
X198363710Y-90930825D01*
X198394501Y-90736421D01*
X198394501Y-90539576D01*
X198363710Y-90345172D01*
X198302883Y-90157969D01*
X198213524Y-89982593D01*
X198097829Y-89823353D01*
X197958647Y-89684171D01*
X197799406Y-89568475D01*
X197753516Y-89545093D01*
X197624030Y-89479116D01*
X197436827Y-89418289D01*
X197242423Y-89387499D01*
X197242418Y-89387499D01*
X197045584Y-89387499D01*
X197045579Y-89387499D01*
X196851174Y-89418289D01*
X196663968Y-89479117D01*
X196559794Y-89532197D01*
X196491125Y-89545093D01*
X196426385Y-89518816D01*
X196386128Y-89461710D01*
X196379500Y-89421712D01*
X196379500Y-86868554D01*
X196379500Y-86868544D01*
X196379346Y-86867118D01*
X196379405Y-86866793D01*
X196379322Y-86865238D01*
X196379500Y-86865228D01*
X196379500Y-86865223D01*
X196379601Y-86865223D01*
X196379689Y-86865218D01*
X196391739Y-86798361D01*
X196439340Y-86747216D01*
X196507037Y-86729924D01*
X196558927Y-86743361D01*
X196663968Y-86796882D01*
X196663973Y-86796883D01*
X196663976Y-86796885D01*
X196767337Y-86830469D01*
X196851174Y-86857710D01*
X197045579Y-86888501D01*
X197045584Y-86888501D01*
X197242423Y-86888501D01*
X197436827Y-86857710D01*
X197447362Y-86854287D01*
X197624026Y-86796885D01*
X197799406Y-86707525D01*
X197958647Y-86591829D01*
X198097829Y-86452647D01*
X198213525Y-86293406D01*
X198302885Y-86118026D01*
X198363710Y-85930827D01*
X198377163Y-85845887D01*
X198394501Y-85736423D01*
X198394501Y-85539578D01*
X198363710Y-85345174D01*
X198302883Y-85157971D01*
X198213524Y-84982595D01*
X198097829Y-84823355D01*
X197958647Y-84684173D01*
X197799406Y-84568477D01*
X197624030Y-84479118D01*
X197436827Y-84418291D01*
X197242423Y-84387501D01*
X197242418Y-84387501D01*
X197045584Y-84387501D01*
X197045579Y-84387501D01*
X196851174Y-84418291D01*
X196663971Y-84479118D01*
X196488595Y-84568477D01*
X196397742Y-84634486D01*
X196329355Y-84684173D01*
X196329353Y-84684175D01*
X196329352Y-84684175D01*
X196190175Y-84823352D01*
X196190175Y-84823353D01*
X196190173Y-84823355D01*
X196140486Y-84891742D01*
X196074477Y-84982595D01*
X195985118Y-85157971D01*
X195924291Y-85345174D01*
X195893501Y-85539578D01*
X195893501Y-85736423D01*
X195924291Y-85930827D01*
X195976348Y-86091037D01*
X195978343Y-86160878D01*
X195942263Y-86220711D01*
X195879562Y-86251540D01*
X195840771Y-86252094D01*
X195750001Y-86239044D01*
X195750000Y-86239044D01*
X193458000Y-86239044D01*
X193457991Y-86239044D01*
X193457990Y-86239045D01*
X193350549Y-86250596D01*
X193350537Y-86250598D01*
X193299027Y-86261804D01*
X193196502Y-86295927D01*
X193196496Y-86295930D01*
X193075462Y-86373715D01*
X193075451Y-86373723D01*
X193022659Y-86419467D01*
X192928433Y-86528208D01*
X192928430Y-86528212D01*
X192868664Y-86659078D01*
X192848976Y-86726126D01*
X192840188Y-86787248D01*
X192828978Y-86865223D01*
X192828500Y-86868545D01*
X192828500Y-92465044D01*
X192808815Y-92532083D01*
X192756011Y-92577838D01*
X192704500Y-92589044D01*
X171103500Y-92589044D01*
X171036461Y-92569359D01*
X170990706Y-92516555D01*
X170979500Y-92465044D01*
X170979500Y-91854285D01*
X170999185Y-91787246D01*
X171051989Y-91741491D01*
X171121147Y-91731547D01*
X171159792Y-91743799D01*
X171207895Y-91768308D01*
X171263971Y-91796881D01*
X171263973Y-91796881D01*
X171263976Y-91796883D01*
X171364318Y-91829486D01*
X171451174Y-91857708D01*
X171645579Y-91888499D01*
X171645584Y-91888499D01*
X171842423Y-91888499D01*
X172036827Y-91857708D01*
X172047362Y-91854285D01*
X172224026Y-91796883D01*
X172399406Y-91707523D01*
X172558647Y-91591827D01*
X172697829Y-91452645D01*
X172813525Y-91293404D01*
X172902885Y-91118024D01*
X172963710Y-90930825D01*
X172994501Y-90736421D01*
X172994501Y-90539576D01*
X172963710Y-90345172D01*
X172902883Y-90157969D01*
X172813524Y-89982593D01*
X172697829Y-89823353D01*
X172558647Y-89684171D01*
X172399406Y-89568475D01*
X172353516Y-89545093D01*
X172224030Y-89479116D01*
X172036827Y-89418289D01*
X171842423Y-89387499D01*
X171842418Y-89387499D01*
X171645584Y-89387499D01*
X171645579Y-89387499D01*
X171451174Y-89418289D01*
X171263968Y-89479117D01*
X171159794Y-89532197D01*
X171091125Y-89545093D01*
X171026385Y-89518816D01*
X170986128Y-89461710D01*
X170979500Y-89421712D01*
X170979500Y-86868554D01*
X170979500Y-86868544D01*
X170979346Y-86867118D01*
X170979405Y-86866793D01*
X170979322Y-86865238D01*
X170979500Y-86865228D01*
X170979500Y-86865223D01*
X170979601Y-86865223D01*
X170979689Y-86865218D01*
X170991739Y-86798361D01*
X171039340Y-86747216D01*
X171107037Y-86729924D01*
X171158927Y-86743361D01*
X171263968Y-86796882D01*
X171263973Y-86796883D01*
X171263976Y-86796885D01*
X171367337Y-86830469D01*
X171451174Y-86857710D01*
X171645579Y-86888501D01*
X171645584Y-86888501D01*
X171842423Y-86888501D01*
X172036827Y-86857710D01*
X172047362Y-86854287D01*
X172224026Y-86796885D01*
X172399406Y-86707525D01*
X172558647Y-86591829D01*
X172697829Y-86452647D01*
X172813525Y-86293406D01*
X172902885Y-86118026D01*
X172963710Y-85930827D01*
X172977163Y-85845887D01*
X172994501Y-85736423D01*
X172994501Y-85539578D01*
X172963710Y-85345174D01*
X172902883Y-85157971D01*
X172813524Y-84982595D01*
X172697829Y-84823355D01*
X172558647Y-84684173D01*
X172399406Y-84568477D01*
X172224030Y-84479118D01*
X172036827Y-84418291D01*
X171842423Y-84387501D01*
X171842418Y-84387501D01*
X171645584Y-84387501D01*
X171645579Y-84387501D01*
X171451174Y-84418291D01*
X171263971Y-84479118D01*
X171088595Y-84568477D01*
X170997742Y-84634486D01*
X170929355Y-84684173D01*
X170929353Y-84684175D01*
X170929352Y-84684175D01*
X170790175Y-84823352D01*
X170790175Y-84823353D01*
X170790173Y-84823355D01*
X170740486Y-84891742D01*
X170674477Y-84982595D01*
X170585118Y-85157971D01*
X170524291Y-85345174D01*
X170493501Y-85539578D01*
X170493501Y-85736423D01*
X170524291Y-85930827D01*
X170576348Y-86091037D01*
X170578343Y-86160878D01*
X170542263Y-86220711D01*
X170479562Y-86251540D01*
X170440771Y-86252094D01*
X170350001Y-86239044D01*
X170350000Y-86239044D01*
X168058000Y-86239044D01*
X168057991Y-86239044D01*
X168057990Y-86239045D01*
X167950549Y-86250596D01*
X167950537Y-86250598D01*
X167899027Y-86261804D01*
X167796502Y-86295927D01*
X167796496Y-86295930D01*
X167675462Y-86373715D01*
X167675451Y-86373723D01*
X167622659Y-86419467D01*
X167528433Y-86528208D01*
X167528430Y-86528212D01*
X167468664Y-86659078D01*
X167448976Y-86726126D01*
X167440188Y-86787248D01*
X167428978Y-86865223D01*
X167428500Y-86868545D01*
X167428500Y-92465044D01*
X167408815Y-92532083D01*
X167356011Y-92577838D01*
X167304500Y-92589044D01*
X145703500Y-92589044D01*
X145636461Y-92569359D01*
X145590706Y-92516555D01*
X145579500Y-92465044D01*
X145579500Y-91854285D01*
X145599185Y-91787246D01*
X145651989Y-91741491D01*
X145721147Y-91731547D01*
X145759792Y-91743799D01*
X145807895Y-91768308D01*
X145863971Y-91796881D01*
X145863973Y-91796881D01*
X145863976Y-91796883D01*
X145964318Y-91829486D01*
X146051174Y-91857708D01*
X146245579Y-91888499D01*
X146245584Y-91888499D01*
X146442423Y-91888499D01*
X146636827Y-91857708D01*
X146647362Y-91854285D01*
X146824026Y-91796883D01*
X146999406Y-91707523D01*
X147158647Y-91591827D01*
X147297829Y-91452645D01*
X147413525Y-91293404D01*
X147502885Y-91118024D01*
X147563710Y-90930825D01*
X147594501Y-90736421D01*
X147594501Y-90539576D01*
X147563710Y-90345172D01*
X147502883Y-90157969D01*
X147413524Y-89982593D01*
X147297829Y-89823353D01*
X147158647Y-89684171D01*
X146999406Y-89568475D01*
X146953516Y-89545093D01*
X146824030Y-89479116D01*
X146636827Y-89418289D01*
X146442423Y-89387499D01*
X146442418Y-89387499D01*
X146245584Y-89387499D01*
X146245579Y-89387499D01*
X146051174Y-89418289D01*
X145863968Y-89479117D01*
X145759794Y-89532197D01*
X145691125Y-89545093D01*
X145626385Y-89518816D01*
X145586128Y-89461710D01*
X145579500Y-89421712D01*
X145579500Y-86868554D01*
X145579500Y-86868544D01*
X145579346Y-86867118D01*
X145579405Y-86866793D01*
X145579322Y-86865238D01*
X145579500Y-86865228D01*
X145579500Y-86865223D01*
X145579601Y-86865223D01*
X145579689Y-86865218D01*
X145591739Y-86798361D01*
X145639340Y-86747216D01*
X145707037Y-86729924D01*
X145758927Y-86743361D01*
X145863968Y-86796882D01*
X145863973Y-86796883D01*
X145863976Y-86796885D01*
X145967337Y-86830469D01*
X146051174Y-86857710D01*
X146245579Y-86888501D01*
X146245584Y-86888501D01*
X146442423Y-86888501D01*
X146636827Y-86857710D01*
X146647362Y-86854287D01*
X146824026Y-86796885D01*
X146999406Y-86707525D01*
X147158647Y-86591829D01*
X147297829Y-86452647D01*
X147413525Y-86293406D01*
X147502885Y-86118026D01*
X147563710Y-85930827D01*
X147577163Y-85845887D01*
X147594501Y-85736423D01*
X147594501Y-85539578D01*
X147563710Y-85345174D01*
X147502883Y-85157971D01*
X147413524Y-84982595D01*
X147297829Y-84823355D01*
X147158647Y-84684173D01*
X146999406Y-84568477D01*
X146824030Y-84479118D01*
X146636827Y-84418291D01*
X146442423Y-84387501D01*
X146442418Y-84387501D01*
X146245584Y-84387501D01*
X146245579Y-84387501D01*
X146051174Y-84418291D01*
X145863971Y-84479118D01*
X145688595Y-84568477D01*
X145597742Y-84634486D01*
X145529355Y-84684173D01*
X145529353Y-84684175D01*
X145529352Y-84684175D01*
X145390175Y-84823352D01*
X145390175Y-84823353D01*
X145390173Y-84823355D01*
X145340486Y-84891742D01*
X145274477Y-84982595D01*
X145185118Y-85157971D01*
X145124291Y-85345174D01*
X145093501Y-85539578D01*
X145093501Y-85736423D01*
X145124291Y-85930827D01*
X145176348Y-86091037D01*
X145178343Y-86160878D01*
X145142263Y-86220711D01*
X145079562Y-86251540D01*
X145040771Y-86252094D01*
X144950001Y-86239044D01*
X144950000Y-86239044D01*
X142658000Y-86239044D01*
X142657991Y-86239044D01*
X142657990Y-86239045D01*
X142550549Y-86250596D01*
X142550537Y-86250598D01*
X142499027Y-86261804D01*
X142396502Y-86295927D01*
X142396496Y-86295930D01*
X142275462Y-86373715D01*
X142275451Y-86373723D01*
X142222659Y-86419467D01*
X142128433Y-86528208D01*
X142128430Y-86528212D01*
X142068664Y-86659078D01*
X142048976Y-86726126D01*
X142040188Y-86787248D01*
X142028978Y-86865223D01*
X142028500Y-86868545D01*
X142028500Y-92465044D01*
X142008815Y-92532083D01*
X141956011Y-92577838D01*
X141904500Y-92589044D01*
X120303500Y-92589044D01*
X120236461Y-92569359D01*
X120190706Y-92516555D01*
X120179500Y-92465044D01*
X120179500Y-91854285D01*
X120199185Y-91787246D01*
X120251989Y-91741491D01*
X120321147Y-91731547D01*
X120359792Y-91743799D01*
X120407895Y-91768308D01*
X120463971Y-91796881D01*
X120463973Y-91796881D01*
X120463976Y-91796883D01*
X120564318Y-91829486D01*
X120651174Y-91857708D01*
X120845579Y-91888499D01*
X120845584Y-91888499D01*
X121042423Y-91888499D01*
X121236827Y-91857708D01*
X121247362Y-91854285D01*
X121424026Y-91796883D01*
X121599406Y-91707523D01*
X121758647Y-91591827D01*
X121897829Y-91452645D01*
X122013525Y-91293404D01*
X122102885Y-91118024D01*
X122163710Y-90930825D01*
X122194501Y-90736421D01*
X122194501Y-90539576D01*
X122163710Y-90345172D01*
X122102883Y-90157969D01*
X122013524Y-89982593D01*
X121897829Y-89823353D01*
X121758647Y-89684171D01*
X121599406Y-89568475D01*
X121553516Y-89545093D01*
X121424030Y-89479116D01*
X121236827Y-89418289D01*
X121042423Y-89387499D01*
X121042418Y-89387499D01*
X120845584Y-89387499D01*
X120845579Y-89387499D01*
X120651174Y-89418289D01*
X120463968Y-89479117D01*
X120359794Y-89532197D01*
X120291125Y-89545093D01*
X120226385Y-89518816D01*
X120186128Y-89461710D01*
X120179500Y-89421712D01*
X120179500Y-86868554D01*
X120179500Y-86868544D01*
X120179346Y-86867118D01*
X120179405Y-86866793D01*
X120179322Y-86865238D01*
X120179500Y-86865228D01*
X120179500Y-86865223D01*
X120179601Y-86865223D01*
X120179689Y-86865218D01*
X120191739Y-86798361D01*
X120239340Y-86747216D01*
X120307037Y-86729924D01*
X120358927Y-86743361D01*
X120463968Y-86796882D01*
X120463973Y-86796883D01*
X120463976Y-86796885D01*
X120567337Y-86830469D01*
X120651174Y-86857710D01*
X120845579Y-86888501D01*
X120845584Y-86888501D01*
X121042423Y-86888501D01*
X121236827Y-86857710D01*
X121247362Y-86854287D01*
X121424026Y-86796885D01*
X121599406Y-86707525D01*
X121758647Y-86591829D01*
X121897829Y-86452647D01*
X122013525Y-86293406D01*
X122102885Y-86118026D01*
X122163710Y-85930827D01*
X122177163Y-85845887D01*
X122194501Y-85736423D01*
X122194501Y-85539578D01*
X122163710Y-85345174D01*
X122102883Y-85157971D01*
X122013524Y-84982595D01*
X121897829Y-84823355D01*
X121758647Y-84684173D01*
X121599406Y-84568477D01*
X121424030Y-84479118D01*
X121236827Y-84418291D01*
X121042423Y-84387501D01*
X121042418Y-84387501D01*
X120845584Y-84387501D01*
X120845579Y-84387501D01*
X120651174Y-84418291D01*
X120463971Y-84479118D01*
X120288595Y-84568477D01*
X120197742Y-84634486D01*
X120129355Y-84684173D01*
X120129353Y-84684175D01*
X120129352Y-84684175D01*
X119990175Y-84823352D01*
X119990175Y-84823353D01*
X119990173Y-84823355D01*
X119940486Y-84891742D01*
X119874477Y-84982595D01*
X119785118Y-85157971D01*
X119724291Y-85345174D01*
X119693501Y-85539578D01*
X119693501Y-85736423D01*
X119724291Y-85930827D01*
X119776348Y-86091037D01*
X119778343Y-86160878D01*
X119742263Y-86220711D01*
X119679562Y-86251540D01*
X119640771Y-86252094D01*
X119550001Y-86239044D01*
X119550000Y-86239044D01*
X117258000Y-86239044D01*
X117257991Y-86239044D01*
X117257990Y-86239045D01*
X117150549Y-86250596D01*
X117150537Y-86250598D01*
X117099027Y-86261804D01*
X116996502Y-86295927D01*
X116996496Y-86295930D01*
X116875462Y-86373715D01*
X116875451Y-86373723D01*
X116822659Y-86419467D01*
X116728433Y-86528208D01*
X116728430Y-86528212D01*
X116668664Y-86659078D01*
X116648976Y-86726126D01*
X116640188Y-86787248D01*
X116628978Y-86865223D01*
X116628500Y-86868545D01*
X116628500Y-92465044D01*
X116608815Y-92532083D01*
X116556011Y-92577838D01*
X116504500Y-92589044D01*
X94903500Y-92589044D01*
X94836461Y-92569359D01*
X94790706Y-92516555D01*
X94779500Y-92465044D01*
X94779500Y-91854285D01*
X94799185Y-91787246D01*
X94851989Y-91741491D01*
X94921147Y-91731547D01*
X94959792Y-91743799D01*
X95007895Y-91768308D01*
X95063971Y-91796881D01*
X95063973Y-91796881D01*
X95063976Y-91796883D01*
X95164318Y-91829486D01*
X95251174Y-91857708D01*
X95445579Y-91888499D01*
X95445584Y-91888499D01*
X95642423Y-91888499D01*
X95836827Y-91857708D01*
X95847362Y-91854285D01*
X96024026Y-91796883D01*
X96199406Y-91707523D01*
X96358647Y-91591827D01*
X96497829Y-91452645D01*
X96613525Y-91293404D01*
X96702885Y-91118024D01*
X96763710Y-90930825D01*
X96794501Y-90736421D01*
X96794501Y-90539576D01*
X96763710Y-90345172D01*
X96702883Y-90157969D01*
X96613524Y-89982593D01*
X96497829Y-89823353D01*
X96358647Y-89684171D01*
X96199406Y-89568475D01*
X96153516Y-89545093D01*
X96024030Y-89479116D01*
X95836827Y-89418289D01*
X95642423Y-89387499D01*
X95642418Y-89387499D01*
X95445584Y-89387499D01*
X95445579Y-89387499D01*
X95251174Y-89418289D01*
X95063968Y-89479117D01*
X94959794Y-89532197D01*
X94891125Y-89545093D01*
X94826385Y-89518816D01*
X94786128Y-89461710D01*
X94779500Y-89421712D01*
X94779500Y-86854287D01*
X94799185Y-86787248D01*
X94851989Y-86741493D01*
X94921147Y-86731549D01*
X94959792Y-86743801D01*
X94993720Y-86761088D01*
X95063971Y-86796883D01*
X95063973Y-86796883D01*
X95063976Y-86796885D01*
X95164318Y-86829488D01*
X95251174Y-86857710D01*
X95445579Y-86888501D01*
X95445584Y-86888501D01*
X95642423Y-86888501D01*
X95836827Y-86857710D01*
X95847362Y-86854287D01*
X96024026Y-86796885D01*
X96199406Y-86707525D01*
X96358647Y-86591829D01*
X96497829Y-86452647D01*
X96613525Y-86293406D01*
X96702885Y-86118026D01*
X96763710Y-85930827D01*
X96777163Y-85845887D01*
X96794501Y-85736423D01*
X96794501Y-85539578D01*
X96763710Y-85345174D01*
X96702883Y-85157971D01*
X96613524Y-84982595D01*
X96497829Y-84823355D01*
X96358647Y-84684173D01*
X96199406Y-84568477D01*
X96024030Y-84479118D01*
X95836827Y-84418291D01*
X95642423Y-84387501D01*
X95642418Y-84387501D01*
X95445584Y-84387501D01*
X95445579Y-84387501D01*
X95251174Y-84418291D01*
X95063971Y-84479118D01*
X94888595Y-84568477D01*
X94797742Y-84634486D01*
X94729355Y-84684173D01*
X94729353Y-84684175D01*
X94729352Y-84684175D01*
X94590175Y-84823352D01*
X94590175Y-84823353D01*
X94590173Y-84823355D01*
X94540486Y-84891742D01*
X94474477Y-84982595D01*
X94385118Y-85157971D01*
X94324291Y-85345174D01*
X94293501Y-85539578D01*
X94293501Y-85736423D01*
X94310838Y-85845887D01*
X94301883Y-85915181D01*
X94256887Y-85968633D01*
X94190135Y-85989272D01*
X94170720Y-85988023D01*
X94150000Y-85985044D01*
X91858000Y-85985044D01*
X91857991Y-85985044D01*
X91857990Y-85985045D01*
X91750549Y-85996596D01*
X91750537Y-85996598D01*
X91699027Y-86007804D01*
X91596502Y-86041927D01*
X91596496Y-86041930D01*
X91475462Y-86119715D01*
X91475451Y-86119723D01*
X91422659Y-86165467D01*
X91328433Y-86274208D01*
X91328430Y-86274212D01*
X91268664Y-86405078D01*
X91254696Y-86452649D01*
X91248977Y-86472124D01*
X91248976Y-86472128D01*
X91228500Y-86614544D01*
X91228500Y-96526544D01*
X91228501Y-96526553D01*
X91240052Y-96633994D01*
X91240054Y-96634006D01*
X91251260Y-96685516D01*
X91285383Y-96788041D01*
X91285386Y-96788047D01*
X91363171Y-96909081D01*
X91363179Y-96909092D01*
X91408923Y-96961884D01*
X91408926Y-96961887D01*
X91408930Y-96961891D01*
X91517664Y-97056111D01*
X91648541Y-97115882D01*
X91715580Y-97135567D01*
X91715584Y-97135568D01*
X91858000Y-97156044D01*
X222168500Y-97156044D01*
X222235539Y-97175729D01*
X222281294Y-97228533D01*
X222292500Y-97280044D01*
X222292500Y-105674653D01*
X222272815Y-105741692D01*
X222220011Y-105787447D01*
X222168818Y-105798653D01*
X71536382Y-106184419D01*
X71491477Y-106189334D01*
X71429583Y-106196110D01*
X71429578Y-106196110D01*
X71429578Y-106196111D01*
X71378395Y-106207315D01*
X71378384Y-106207318D01*
X71276497Y-106241303D01*
X71155462Y-106319088D01*
X71155451Y-106319096D01*
X71102659Y-106364840D01*
X71008433Y-106473581D01*
X71008430Y-106473585D01*
X70948664Y-106604451D01*
X70928976Y-106671499D01*
X70908500Y-106813918D01*
X70908500Y-111726714D01*
X70888815Y-111793753D01*
X70836011Y-111839508D01*
X70766853Y-111849452D01*
X70728206Y-111837199D01*
X70624031Y-111784119D01*
X70436825Y-111723291D01*
X70242421Y-111692501D01*
X70242416Y-111692501D01*
X70045582Y-111692501D01*
X70045577Y-111692501D01*
X69851172Y-111723291D01*
X69663969Y-111784118D01*
X69488593Y-111873477D01*
X69407925Y-111932087D01*
X69329353Y-111989173D01*
X69329351Y-111989175D01*
X69329350Y-111989175D01*
X69190173Y-112128352D01*
X69190173Y-112128353D01*
X69190171Y-112128355D01*
X69140484Y-112196742D01*
X69074475Y-112287595D01*
X68985116Y-112462971D01*
X68924289Y-112650174D01*
X68893499Y-112844578D01*
X51054500Y-112844578D01*
X51054500Y-90539576D01*
X68893501Y-90539576D01*
X68893501Y-90736421D01*
X68924291Y-90930825D01*
X68985118Y-91118028D01*
X69074477Y-91293404D01*
X69190173Y-91452645D01*
X69329355Y-91591827D01*
X69488596Y-91707523D01*
X69559794Y-91743800D01*
X69663971Y-91796881D01*
X69663973Y-91796881D01*
X69663976Y-91796883D01*
X69764318Y-91829486D01*
X69851174Y-91857708D01*
X70045579Y-91888499D01*
X70045584Y-91888499D01*
X70242423Y-91888499D01*
X70436827Y-91857708D01*
X70447362Y-91854285D01*
X70624026Y-91796883D01*
X70799406Y-91707523D01*
X70958647Y-91591827D01*
X71097829Y-91452645D01*
X71213525Y-91293404D01*
X71302885Y-91118024D01*
X71363710Y-90930825D01*
X71394501Y-90736421D01*
X71394501Y-90539576D01*
X71363710Y-90345172D01*
X71302883Y-90157969D01*
X71213524Y-89982593D01*
X71097829Y-89823353D01*
X70958647Y-89684171D01*
X70799406Y-89568475D01*
X70753516Y-89545093D01*
X70624030Y-89479116D01*
X70436827Y-89418289D01*
X70242423Y-89387499D01*
X70242418Y-89387499D01*
X70045584Y-89387499D01*
X70045579Y-89387499D01*
X69851174Y-89418289D01*
X69663971Y-89479116D01*
X69488595Y-89568475D01*
X69412119Y-89624039D01*
X69329355Y-89684171D01*
X69329353Y-89684173D01*
X69329352Y-89684173D01*
X69190175Y-89823350D01*
X69190175Y-89823351D01*
X69190173Y-89823353D01*
X69140486Y-89891740D01*
X69074477Y-89982593D01*
X68985118Y-90157969D01*
X68924291Y-90345172D01*
X68893501Y-90539576D01*
X51054500Y-90539576D01*
X51054500Y-88138001D01*
X66077694Y-88138001D01*
X66098175Y-88280457D01*
X66157962Y-88411371D01*
X66157963Y-88411372D01*
X66157964Y-88411374D01*
X66195583Y-88458057D01*
X66195586Y-88458060D01*
X66195591Y-88458066D01*
X67125026Y-89387499D01*
X67323945Y-89586418D01*
X67370628Y-89624038D01*
X67501544Y-89683826D01*
X67501543Y-89683826D01*
X67503957Y-89684173D01*
X67644001Y-89704308D01*
X67786458Y-89683826D01*
X67917374Y-89624038D01*
X67964057Y-89586419D01*
X69092418Y-88458057D01*
X69130038Y-88411374D01*
X69189826Y-88280458D01*
X69210308Y-88138001D01*
X69189826Y-87995544D01*
X69130038Y-87864628D01*
X69092419Y-87817945D01*
X69092414Y-87817940D01*
X69092410Y-87817935D01*
X67964064Y-86689591D01*
X67964057Y-86689584D01*
X67917374Y-86651964D01*
X67865472Y-86628261D01*
X67786456Y-86592175D01*
X67786458Y-86592175D01*
X67644001Y-86571694D01*
X67501544Y-86592175D01*
X67370630Y-86651962D01*
X67323935Y-86689591D01*
X66195591Y-87817937D01*
X66195585Y-87817944D01*
X66157963Y-87864629D01*
X66157962Y-87864631D01*
X66098175Y-87995544D01*
X66077694Y-88138001D01*
X51054500Y-88138001D01*
X51054500Y-85539578D01*
X68893501Y-85539578D01*
X68893501Y-85736423D01*
X68924291Y-85930827D01*
X68985118Y-86118030D01*
X69058375Y-86261804D01*
X69074477Y-86293406D01*
X69190173Y-86452647D01*
X69329355Y-86591829D01*
X69488596Y-86707525D01*
X69571456Y-86749744D01*
X69663971Y-86796883D01*
X69663973Y-86796883D01*
X69663976Y-86796885D01*
X69764318Y-86829488D01*
X69851174Y-86857710D01*
X70045579Y-86888501D01*
X70045584Y-86888501D01*
X70242423Y-86888501D01*
X70436827Y-86857710D01*
X70447362Y-86854287D01*
X70624026Y-86796885D01*
X70799406Y-86707525D01*
X70958647Y-86591829D01*
X71097829Y-86452647D01*
X71213525Y-86293406D01*
X71302885Y-86118026D01*
X71363710Y-85930827D01*
X71377163Y-85845887D01*
X71394501Y-85736423D01*
X71394501Y-85539578D01*
X71363710Y-85345174D01*
X71302883Y-85157971D01*
X71213524Y-84982595D01*
X71097829Y-84823355D01*
X70958647Y-84684173D01*
X70799406Y-84568477D01*
X70624030Y-84479118D01*
X70436827Y-84418291D01*
X70242423Y-84387501D01*
X70242418Y-84387501D01*
X70045584Y-84387501D01*
X70045579Y-84387501D01*
X69851174Y-84418291D01*
X69663971Y-84479118D01*
X69488595Y-84568477D01*
X69397742Y-84634486D01*
X69329355Y-84684173D01*
X69329353Y-84684175D01*
X69329352Y-84684175D01*
X69190175Y-84823352D01*
X69190175Y-84823353D01*
X69190173Y-84823355D01*
X69140486Y-84891742D01*
X69074477Y-84982595D01*
X68985118Y-85157971D01*
X68924291Y-85345174D01*
X68893501Y-85539578D01*
X51054500Y-85539578D01*
X51054500Y-76122706D01*
X51054618Y-76117297D01*
X51060952Y-75972224D01*
X53545500Y-75972224D01*
X53545500Y-76267775D01*
X53575503Y-76495662D01*
X53584076Y-76560775D01*
X53622321Y-76703507D01*
X53660566Y-76846242D01*
X53773660Y-77119275D01*
X53773665Y-77119286D01*
X53921425Y-77375212D01*
X53921436Y-77375228D01*
X54101339Y-77609682D01*
X54101345Y-77609689D01*
X54310310Y-77818654D01*
X54310316Y-77818659D01*
X54544780Y-77998570D01*
X54544787Y-77998574D01*
X54800713Y-78146334D01*
X54800718Y-78146336D01*
X54800721Y-78146338D01*
X54937240Y-78202886D01*
X55073757Y-78259433D01*
X55073758Y-78259433D01*
X55073760Y-78259434D01*
X55359225Y-78335924D01*
X55652232Y-78374500D01*
X55652239Y-78374500D01*
X55947761Y-78374500D01*
X55947768Y-78374500D01*
X56240775Y-78335924D01*
X56526240Y-78259434D01*
X56799279Y-78146338D01*
X57055220Y-77998570D01*
X57289684Y-77818659D01*
X57498659Y-77609684D01*
X57678570Y-77375220D01*
X57826338Y-77119279D01*
X57939434Y-76846240D01*
X58015924Y-76560775D01*
X58054500Y-76267768D01*
X58054500Y-75972232D01*
X58054499Y-75972224D01*
X234045500Y-75972224D01*
X234045500Y-76267775D01*
X234075503Y-76495662D01*
X234084076Y-76560775D01*
X234122321Y-76703507D01*
X234160566Y-76846242D01*
X234273660Y-77119275D01*
X234273665Y-77119286D01*
X234421425Y-77375212D01*
X234421436Y-77375228D01*
X234601339Y-77609682D01*
X234601345Y-77609689D01*
X234810310Y-77818654D01*
X234810316Y-77818659D01*
X235044780Y-77998570D01*
X235044787Y-77998574D01*
X235300713Y-78146334D01*
X235300718Y-78146336D01*
X235300721Y-78146338D01*
X235437240Y-78202886D01*
X235573757Y-78259433D01*
X235573758Y-78259433D01*
X235573760Y-78259434D01*
X235859225Y-78335924D01*
X236152232Y-78374500D01*
X236152239Y-78374500D01*
X236447761Y-78374500D01*
X236447768Y-78374500D01*
X236740775Y-78335924D01*
X237026240Y-78259434D01*
X237299279Y-78146338D01*
X237555220Y-77998570D01*
X237789684Y-77818659D01*
X237998659Y-77609684D01*
X238178570Y-77375220D01*
X238326338Y-77119279D01*
X238439434Y-76846240D01*
X238515924Y-76560775D01*
X238554500Y-76267768D01*
X238554500Y-75972232D01*
X238553253Y-75962764D01*
X238545342Y-75902672D01*
X238515924Y-75679225D01*
X238439434Y-75393760D01*
X238326338Y-75120721D01*
X238326336Y-75120718D01*
X238326334Y-75120713D01*
X238178574Y-74864787D01*
X238178570Y-74864780D01*
X237998659Y-74630316D01*
X237998654Y-74630310D01*
X237789689Y-74421345D01*
X237789682Y-74421339D01*
X237555228Y-74241436D01*
X237555226Y-74241434D01*
X237555220Y-74241430D01*
X237555215Y-74241427D01*
X237555212Y-74241425D01*
X237299286Y-74093665D01*
X237299275Y-74093660D01*
X237026242Y-73980566D01*
X236883507Y-73942321D01*
X236740775Y-73904076D01*
X236675662Y-73895503D01*
X236447775Y-73865500D01*
X236447768Y-73865500D01*
X236152232Y-73865500D01*
X236152224Y-73865500D01*
X235891781Y-73899789D01*
X235859225Y-73904076D01*
X235787858Y-73923198D01*
X235573757Y-73980566D01*
X235300724Y-74093660D01*
X235300713Y-74093665D01*
X235044787Y-74241425D01*
X235044771Y-74241436D01*
X234810317Y-74421339D01*
X234810310Y-74421345D01*
X234601345Y-74630310D01*
X234601339Y-74630317D01*
X234421436Y-74864771D01*
X234421425Y-74864787D01*
X234273665Y-75120713D01*
X234273660Y-75120724D01*
X234160566Y-75393757D01*
X234084076Y-75679226D01*
X234045500Y-75972224D01*
X58054499Y-75972224D01*
X58053253Y-75962764D01*
X58045342Y-75902672D01*
X58015924Y-75679225D01*
X57939434Y-75393760D01*
X57826338Y-75120721D01*
X57826336Y-75120718D01*
X57826334Y-75120713D01*
X57678574Y-74864787D01*
X57678570Y-74864780D01*
X57498659Y-74630316D01*
X57498654Y-74630310D01*
X57289689Y-74421345D01*
X57289682Y-74421339D01*
X57055228Y-74241436D01*
X57055226Y-74241434D01*
X57055220Y-74241430D01*
X57055215Y-74241427D01*
X57055212Y-74241425D01*
X56799286Y-74093665D01*
X56799275Y-74093660D01*
X56526242Y-73980566D01*
X56383507Y-73942321D01*
X56240775Y-73904076D01*
X56175662Y-73895503D01*
X55947775Y-73865500D01*
X55947768Y-73865500D01*
X55652232Y-73865500D01*
X55652224Y-73865500D01*
X55391781Y-73899789D01*
X55359225Y-73904076D01*
X55287858Y-73923198D01*
X55073757Y-73980566D01*
X54800724Y-74093660D01*
X54800713Y-74093665D01*
X54544787Y-74241425D01*
X54544771Y-74241436D01*
X54310317Y-74421339D01*
X54310310Y-74421345D01*
X54101345Y-74630310D01*
X54101339Y-74630317D01*
X53921436Y-74864771D01*
X53921425Y-74864787D01*
X53773665Y-75120713D01*
X53773660Y-75120724D01*
X53660566Y-75393757D01*
X53584076Y-75679226D01*
X53545500Y-75972224D01*
X51060952Y-75972224D01*
X51061365Y-75962764D01*
X51061365Y-75962763D01*
X51072322Y-75711787D01*
X51073262Y-75701054D01*
X51125889Y-75301308D01*
X51127762Y-75290688D01*
X51215032Y-74897035D01*
X51217819Y-74886635D01*
X51339068Y-74502081D01*
X51342752Y-74491960D01*
X51497051Y-74119448D01*
X51501609Y-74109674D01*
X51687790Y-73752024D01*
X51693172Y-73742703D01*
X51909808Y-73402653D01*
X51915999Y-73393810D01*
X52161449Y-73073934D01*
X52168387Y-73065665D01*
X52440777Y-72768405D01*
X52448405Y-72760777D01*
X52745665Y-72488387D01*
X52753934Y-72481449D01*
X53073810Y-72235999D01*
X53082653Y-72229808D01*
X53422703Y-72013172D01*
X53432024Y-72007790D01*
X53789674Y-71821609D01*
X53799448Y-71817051D01*
X54171960Y-71662752D01*
X54182081Y-71659068D01*
X54566635Y-71537819D01*
X54577035Y-71535032D01*
X54970688Y-71447762D01*
X54981308Y-71445889D01*
X55381054Y-71393262D01*
X55391787Y-71392322D01*
X55785134Y-71375149D01*
X55797298Y-71374618D01*
X55802706Y-71374500D01*
X55844875Y-71374500D01*
X236255125Y-71374500D01*
X236297294Y-71374500D01*
X236302702Y-71374617D01*
G37*
%TD.AperFunction*%
%TD*%
%TA.AperFunction,Conductor*%
%TO.N,+12V*%
G36*
X94217039Y-86510229D02*
G01*
X94262794Y-86563033D01*
X94274000Y-86614544D01*
X94274000Y-93094544D01*
X117134000Y-93094544D01*
X117134000Y-86868544D01*
X117153685Y-86801505D01*
X117206489Y-86755750D01*
X117258000Y-86744544D01*
X119550000Y-86744544D01*
X119617039Y-86764229D01*
X119662794Y-86817033D01*
X119674000Y-86868544D01*
X119674000Y-93094544D01*
X142534000Y-93094544D01*
X142534000Y-86868544D01*
X142553685Y-86801505D01*
X142606489Y-86755750D01*
X142658000Y-86744544D01*
X144950000Y-86744544D01*
X145017039Y-86764229D01*
X145062794Y-86817033D01*
X145074000Y-86868544D01*
X145074000Y-93094544D01*
X167934000Y-93094544D01*
X167934000Y-86868544D01*
X167953685Y-86801505D01*
X168006489Y-86755750D01*
X168058000Y-86744544D01*
X170350000Y-86744544D01*
X170417039Y-86764229D01*
X170462794Y-86817033D01*
X170474000Y-86868544D01*
X170474000Y-93094544D01*
X193334000Y-93094544D01*
X193334000Y-86868544D01*
X193353685Y-86801505D01*
X193406489Y-86755750D01*
X193458000Y-86744544D01*
X195750000Y-86744544D01*
X195817039Y-86764229D01*
X195862794Y-86817033D01*
X195874000Y-86868544D01*
X195874000Y-93094544D01*
X218734000Y-93094544D01*
X218734000Y-86868544D01*
X218753685Y-86801505D01*
X218806489Y-86755750D01*
X218858000Y-86744544D01*
X221150000Y-86744544D01*
X221217039Y-86764229D01*
X221262794Y-86817033D01*
X221274000Y-86868544D01*
X221274000Y-93094544D01*
X226230000Y-93094544D01*
X226297039Y-93114229D01*
X226342794Y-93167033D01*
X226354000Y-93218544D01*
X226354000Y-116592544D01*
X226334315Y-116659583D01*
X226281511Y-116705338D01*
X226230000Y-116716544D01*
X223938000Y-116716544D01*
X223870961Y-116696859D01*
X223825206Y-116644055D01*
X223814000Y-116592544D01*
X223814000Y-109858544D01*
X200954000Y-109858544D01*
X200954000Y-116592544D01*
X200934315Y-116659583D01*
X200881511Y-116705338D01*
X200830000Y-116716544D01*
X198538000Y-116716544D01*
X198470961Y-116696859D01*
X198425206Y-116644055D01*
X198414000Y-116592544D01*
X198414000Y-109858544D01*
X175554000Y-109858544D01*
X175554000Y-116592544D01*
X175534315Y-116659583D01*
X175481511Y-116705338D01*
X175430000Y-116716544D01*
X173138000Y-116716544D01*
X173070961Y-116696859D01*
X173025206Y-116644055D01*
X173014000Y-116592544D01*
X173014000Y-109858544D01*
X150154000Y-109858544D01*
X150154000Y-116592544D01*
X150134315Y-116659583D01*
X150081511Y-116705338D01*
X150030000Y-116716544D01*
X147738000Y-116716544D01*
X147670961Y-116696859D01*
X147625206Y-116644055D01*
X147614000Y-116592544D01*
X147614000Y-109852961D01*
X147613999Y-109852961D01*
X124754000Y-109855000D01*
X124754000Y-116592544D01*
X124734315Y-116659583D01*
X124681511Y-116705338D01*
X124630000Y-116716544D01*
X122338000Y-116716544D01*
X122270961Y-116696859D01*
X122225206Y-116644055D01*
X122214000Y-116592544D01*
X122214000Y-109855000D01*
X99354000Y-109855000D01*
X99354000Y-116592544D01*
X99334315Y-116659583D01*
X99281511Y-116705338D01*
X99230000Y-116716544D01*
X96937266Y-116716544D01*
X96870227Y-116696859D01*
X96824472Y-116644055D01*
X96813268Y-116593281D01*
X96810404Y-116111141D01*
X96792315Y-113065701D01*
X96793842Y-113045564D01*
X96794499Y-113041418D01*
X96794499Y-112844583D01*
X96792335Y-112830924D01*
X96790810Y-112812258D01*
X96774000Y-109982000D01*
X96773999Y-109981999D01*
X96774000Y-109981999D01*
X73954000Y-109856397D01*
X73954000Y-116726234D01*
X73934315Y-116793273D01*
X73881511Y-116839028D01*
X73830000Y-116850234D01*
X71538000Y-116850234D01*
X71470961Y-116830549D01*
X71425206Y-116777745D01*
X71414000Y-116726234D01*
X71414000Y-106813917D01*
X71433685Y-106746878D01*
X71486489Y-106701123D01*
X71537680Y-106689917D01*
X222798000Y-106302544D01*
X222798000Y-96650544D01*
X91858000Y-96650544D01*
X91790961Y-96630859D01*
X91745206Y-96578055D01*
X91734000Y-96526544D01*
X91734000Y-86614544D01*
X91753685Y-86547505D01*
X91806489Y-86501750D01*
X91858000Y-86490544D01*
X94150000Y-86490544D01*
X94217039Y-86510229D01*
G37*
%TD.AperFunction*%
%TD*%
M02*
