M48
; DRILL file {KiCad 9.0.4} date 2026-05-12T17:33:12+0800
; FORMAT={-:-/ absolute / metric / decimal}
; #@! TF.CreationDate,2026-05-12T17:33:12+08:00
; #@! TF.GenerationSoftware,Kicad,Pcbnew,9.0.4
; #@! TF.FileFunction,Plated,1,2,PTH
FMAT,2
METRIC
; #@! TA.AperFunction,Plated,PTH,ViaDrill
T1C1.000
; #@! TA.AperFunction,Plated,PTH,ComponentDrill
T2C1.000
%
G90
G05
T1
X55.8Y-110.49
X55.8Y-113.03
X55.8Y-115.57
X55.8Y-118.11
X55.8Y-120.65
X55.88Y-82.55
X55.88Y-85.09
X55.88Y-87.63
X55.88Y-90.17
X55.88Y-92.71
X55.88Y-95.25
X55.88Y-97.79
X55.88Y-100.33
X55.88Y-102.87
X55.88Y-105.41
X55.88Y-107.95
X62.23Y-76.2
X62.23Y-127.08
X64.77Y-76.2
X64.77Y-127.08
X67.31Y-76.2
X67.31Y-127.08
X69.85Y-76.2
X69.85Y-127.08
X72.39Y-76.2
X72.39Y-127.08
X74.93Y-76.2
X74.93Y-127.08
X77.47Y-76.2
X77.47Y-127.08
X80.01Y-76.2
X80.01Y-127.08
X82.55Y-76.2
X82.55Y-127.08
X85.09Y-76.2
X85.09Y-127.08
X87.63Y-76.2
X87.63Y-127.08
X90.17Y-76.2
X90.17Y-127.08
X92.71Y-76.2
X92.71Y-127.08
X95.25Y-76.2
X95.25Y-127.08
X97.79Y-76.2
X97.79Y-127.08
X100.33Y-76.2
X100.33Y-127.08
X102.87Y-76.2
X102.87Y-127.08
X105.41Y-76.2
X105.41Y-127.08
X107.95Y-76.2
X107.95Y-127.08
X110.49Y-76.2
X110.49Y-127.08
X113.03Y-76.2
X113.03Y-127.08
X115.57Y-76.2
X115.57Y-127.08
X118.11Y-76.2
X118.11Y-127.08
X120.65Y-76.2
X120.65Y-127.08
X123.19Y-76.2
X123.19Y-127.08
X125.73Y-76.2
X125.73Y-127.08
X128.27Y-76.2
X128.27Y-127.08
X130.81Y-76.2
X130.81Y-127.08
X133.35Y-76.2
X133.35Y-127.08
X135.89Y-76.2
X135.89Y-127.08
X138.43Y-76.2
X138.43Y-127.08
X140.97Y-76.2
X140.97Y-127.08
X143.51Y-76.2
X143.51Y-127.08
X146.05Y-76.2
X146.05Y-127.08
X148.59Y-76.2
X148.59Y-127.08
X151.13Y-76.2
X151.13Y-127.08
X153.67Y-76.2
X153.67Y-127.08
X156.21Y-76.2
X156.21Y-127.08
X158.75Y-76.2
X158.75Y-127.08
X161.29Y-76.2
X161.29Y-127.08
X163.83Y-76.2
X163.83Y-127.08
X166.37Y-76.2
X166.37Y-127.08
X168.91Y-76.2
X168.91Y-127.08
X171.45Y-76.2
X171.45Y-127.08
X173.99Y-76.2
X173.99Y-127.08
X176.53Y-76.2
X176.53Y-127.08
X179.07Y-76.2
X179.07Y-127.08
X181.61Y-76.2
X181.61Y-127.08
X184.15Y-76.2
X184.15Y-127.08
X186.69Y-76.2
X186.69Y-127.08
X189.23Y-76.2
X189.23Y-127.08
X191.77Y-76.2
X191.77Y-127.08
X194.31Y-76.2
X194.31Y-127.08
X196.85Y-76.2
X196.85Y-127.08
X199.39Y-76.2
X199.39Y-127.08
X201.93Y-76.2
X201.93Y-127.08
X204.47Y-76.2
X204.47Y-127.08
X207.01Y-76.2
X207.01Y-127.08
X209.55Y-76.2
X209.55Y-127.08
X212.09Y-76.2
X212.09Y-127.08
X214.63Y-76.2
X214.63Y-127.08
X217.17Y-76.2
X217.17Y-127.08
X219.71Y-76.2
X219.71Y-127.08
X222.25Y-76.2
X222.25Y-127.08
X224.79Y-76.2
X224.79Y-127.08
X227.33Y-76.2
X227.33Y-127.08
X229.87Y-76.2
X229.87Y-127.08
X236.22Y-82.55
X236.22Y-85.09
X236.22Y-87.63
X236.22Y-90.17
X236.22Y-92.71
X236.22Y-95.25
X236.22Y-97.79
X236.22Y-100.33
X236.22Y-102.87
X236.22Y-105.41
X236.22Y-107.95
X236.22Y-110.49
X236.22Y-113.03
X236.22Y-115.57
X236.22Y-118.11
X236.22Y-120.65
T2
X67.644Y-115.443
X67.644Y-88.138
X70.144Y-112.943
X70.144Y-117.943
X70.144Y-88.138
X70.144Y-115.443
X70.144Y-85.638
X70.144Y-90.638
X72.644Y-115.443
X72.644Y-88.138
X93.044Y-115.443
X93.044Y-88.138
X95.544Y-112.943
X95.544Y-117.943
X95.544Y-88.138
X95.544Y-115.443
X95.544Y-85.638
X95.544Y-90.638
X98.044Y-115.443
X98.044Y-88.138
X118.444Y-115.443
X118.444Y-88.138
X120.944Y-112.943
X120.944Y-117.943
X120.944Y-88.138
X120.944Y-115.443
X120.944Y-85.638
X120.944Y-90.638
X123.444Y-115.443
X123.444Y-88.138
X143.844Y-115.443
X143.844Y-88.138
X146.344Y-112.943
X146.344Y-117.943
X146.344Y-88.138
X146.344Y-115.443
X146.344Y-85.638
X146.344Y-90.638
X148.844Y-115.443
X148.844Y-88.138
X169.244Y-115.443
X169.244Y-88.138
X171.744Y-112.943
X171.744Y-117.943
X171.744Y-88.138
X171.744Y-115.443
X171.744Y-85.638
X171.744Y-90.638
X174.244Y-115.443
X174.244Y-88.138
X194.644Y-115.443
X194.644Y-88.138
X197.144Y-112.943
X197.144Y-117.943
X197.144Y-88.138
X197.144Y-115.443
X197.144Y-85.638
X197.144Y-90.638
X199.644Y-115.443
X199.644Y-88.138
X220.044Y-115.443
X220.044Y-88.138
X222.544Y-112.943
X222.544Y-117.943
X222.544Y-88.138
X222.544Y-115.443
X222.544Y-85.638
X222.544Y-90.638
X225.044Y-115.443
X225.044Y-88.138
M30
