%TF.GenerationSoftware,KiCad,Pcbnew,9.0.4*%
%TF.CreationDate,2026-05-12T17:33:10+08:00*%
%TF.ProjectId,TTR9-Can2 Signal Box,54545239-2d43-4616-9e32-205369676e61,v1.0*%
%TF.SameCoordinates,Original*%
%TF.FileFunction,Copper,L1,Top*%
%TF.FilePolarity,Positive*%
%FSLAX46Y46*%
G04 Gerber Fmt 4.6, Leading zero omitted, Abs format (unit mm)*
G04 Created by KiCad (PCBNEW 9.0.4) date 2026-05-12 17:33:10*
%MOMM*%
%LPD*%
G01*
G04 APERTURE LIST*
G04 Aperture macros list*
%AMRotRect*
0 Rectangle, with rotation*
0 The origin of the aperture is its center*
0 $1 length*
0 $2 width*
0 $3 Rotation angle, in degrees counterclockwise*
0 Add horizontal line*
21,1,$1,$2,0,0,$3*%
G04 Aperture macros list end*
%TA.AperFunction,ComponentPad*%
%ADD10RotRect,1.500000X1.500000X225.000000*%
%TD*%
%TA.AperFunction,ComponentPad*%
%ADD11C,1.500000*%
%TD*%
%TA.AperFunction,ComponentPad*%
%ADD12RotRect,1.500000X1.500000X45.000000*%
%TD*%
%TA.AperFunction,ViaPad*%
%ADD13C,1.400000*%
%TD*%
%TA.AperFunction,Conductor*%
%ADD14C,0.381000*%
%TD*%
%TA.AperFunction,Conductor*%
%ADD15C,0.200000*%
%TD*%
G04 APERTURE END LIST*
D10*
%TO.P,J8,1,Pin_1*%
%TO.N,+12V*%
X98043999Y-115442999D03*
D11*
%TO.P,J8,2,Pin_2*%
%TO.N,/CAN2.+*%
X95543999Y-117942999D03*
%TO.P,J8,3,Pin_3*%
%TO.N,GND*%
X93044000Y-115443000D03*
%TO.P,J8,4,Pin_4*%
%TO.N,/CAN2.-*%
X95543999Y-112943001D03*
%TO.P,J8,5,Pin_5*%
%TO.N,GND*%
X95544000Y-115443000D03*
%TD*%
D12*
%TO.P,J5,1,Pin_1*%
%TO.N,+12V*%
X169244001Y-88138001D03*
D11*
%TO.P,J5,2,Pin_2*%
%TO.N,/CAN2.+*%
X171744001Y-85638001D03*
%TO.P,J5,3,Pin_3*%
%TO.N,GND*%
X174244000Y-88138000D03*
%TO.P,J5,4,Pin_4*%
%TO.N,/CAN2.-*%
X171744001Y-90637999D03*
%TO.P,J5,5,Pin_5*%
%TO.N,GND*%
X171744000Y-88138000D03*
%TD*%
D10*
%TO.P,J12,1,Pin_1*%
%TO.N,+12V*%
X199643999Y-115442999D03*
D11*
%TO.P,J12,2,Pin_2*%
%TO.N,/CAN2.+*%
X197143999Y-117942999D03*
%TO.P,J12,3,Pin_3*%
%TO.N,GND*%
X194644000Y-115443000D03*
%TO.P,J12,4,Pin_4*%
%TO.N,/CAN2.-*%
X197143999Y-112943001D03*
%TO.P,J12,5,Pin_5*%
%TO.N,GND*%
X197144000Y-115443000D03*
%TD*%
D12*
%TO.P,J4,1,Pin_1*%
%TO.N,+12V*%
X143844001Y-88138001D03*
D11*
%TO.P,J4,2,Pin_2*%
%TO.N,/CAN2.+*%
X146344001Y-85638001D03*
%TO.P,J4,3,Pin_3*%
%TO.N,GND*%
X148844000Y-88138000D03*
%TO.P,J4,4,Pin_4*%
%TO.N,/CAN2.-*%
X146344001Y-90637999D03*
%TO.P,J4,5,Pin_5*%
%TO.N,GND*%
X146344000Y-88138000D03*
%TD*%
D10*
%TO.P,J14,1,Pin_1*%
%TO.N,+12V*%
X72643999Y-115442999D03*
D11*
%TO.P,J14,2,Pin_2*%
%TO.N,unconnected-(J14-Pin_2-Pad2)*%
X70143999Y-117942999D03*
%TO.P,J14,3,Pin_3*%
%TO.N,GND*%
X67644000Y-115443000D03*
%TO.P,J14,4,Pin_4*%
%TO.N,unconnected-(J14-Pin_4-Pad4)*%
X70143999Y-112943001D03*
%TO.P,J14,5,Pin_5*%
%TO.N,GND*%
X70144000Y-115443000D03*
%TD*%
D10*
%TO.P,J11,1,Pin_1*%
%TO.N,+12V*%
X174243999Y-115442999D03*
D11*
%TO.P,J11,2,Pin_2*%
%TO.N,/CAN2.+*%
X171743999Y-117942999D03*
%TO.P,J11,3,Pin_3*%
%TO.N,GND*%
X169244000Y-115443000D03*
%TO.P,J11,4,Pin_4*%
%TO.N,/CAN2.-*%
X171743999Y-112943001D03*
%TO.P,J11,5,Pin_5*%
%TO.N,GND*%
X171744000Y-115443000D03*
%TD*%
D12*
%TO.P,J7,1,Pin_1*%
%TO.N,+12V*%
X220044001Y-88138001D03*
D11*
%TO.P,J7,2,Pin_2*%
%TO.N,/CAN2.+*%
X222544001Y-85638001D03*
%TO.P,J7,3,Pin_3*%
%TO.N,GND*%
X225044000Y-88138000D03*
%TO.P,J7,4,Pin_4*%
%TO.N,/CAN2.-*%
X222544001Y-90637999D03*
%TO.P,J7,5,Pin_5*%
%TO.N,GND*%
X222544000Y-88138000D03*
%TD*%
D10*
%TO.P,J9,1,Pin_1*%
%TO.N,+12V*%
X123443999Y-115442999D03*
D11*
%TO.P,J9,2,Pin_2*%
%TO.N,/CAN2.+*%
X120943999Y-117942999D03*
%TO.P,J9,3,Pin_3*%
%TO.N,GND*%
X118444000Y-115443000D03*
%TO.P,J9,4,Pin_4*%
%TO.N,/CAN2.-*%
X120943999Y-112943001D03*
%TO.P,J9,5,Pin_5*%
%TO.N,GND*%
X120944000Y-115443000D03*
%TD*%
D10*
%TO.P,J10,1,Pin_1*%
%TO.N,+12V*%
X148843999Y-115442999D03*
D11*
%TO.P,J10,2,Pin_2*%
%TO.N,/CAN2.+*%
X146343999Y-117942999D03*
%TO.P,J10,3,Pin_3*%
%TO.N,GND*%
X143844000Y-115443000D03*
%TO.P,J10,4,Pin_4*%
%TO.N,/CAN2.-*%
X146343999Y-112943001D03*
%TO.P,J10,5,Pin_5*%
%TO.N,unconnected-(J10-Pin_5-Pad5)*%
X146344000Y-115443000D03*
%TD*%
D10*
%TO.P,J13,1,Pin_1*%
%TO.N,+12V*%
X225043999Y-115442999D03*
D11*
%TO.P,J13,2,Pin_2*%
%TO.N,/CAN2.+*%
X222543999Y-117942999D03*
%TO.P,J13,3,Pin_3*%
%TO.N,GND*%
X220044000Y-115443000D03*
%TO.P,J13,4,Pin_4*%
%TO.N,/CAN2.-*%
X222543999Y-112943001D03*
%TO.P,J13,5,Pin_5*%
%TO.N,GND*%
X222544000Y-115443000D03*
%TD*%
D12*
%TO.P,J3,1,Pin_1*%
%TO.N,+12V*%
X118444001Y-88138001D03*
D11*
%TO.P,J3,2,Pin_2*%
%TO.N,/CAN2.+*%
X120944001Y-85638001D03*
%TO.P,J3,3,Pin_3*%
%TO.N,GND*%
X123444000Y-88138000D03*
%TO.P,J3,4,Pin_4*%
%TO.N,/CAN2.-*%
X120944001Y-90637999D03*
%TO.P,J3,5,Pin_5*%
%TO.N,GND*%
X120944000Y-88138000D03*
%TD*%
D12*
%TO.P,J2,1,Pin_1*%
%TO.N,+12V*%
X93044001Y-88138001D03*
D11*
%TO.P,J2,2,Pin_2*%
%TO.N,/CAN2.+*%
X95544001Y-85638001D03*
%TO.P,J2,3,Pin_3*%
%TO.N,GND*%
X98044000Y-88138000D03*
%TO.P,J2,4,Pin_4*%
%TO.N,/CAN2.-*%
X95544001Y-90637999D03*
%TO.P,J2,5,Pin_5*%
%TO.N,GND*%
X95544000Y-88138000D03*
%TD*%
D12*
%TO.P,J6,1,Pin_1*%
%TO.N,+12V*%
X194644001Y-88138001D03*
D11*
%TO.P,J6,2,Pin_2*%
%TO.N,/CAN2.+*%
X197144001Y-85638001D03*
%TO.P,J6,3,Pin_3*%
%TO.N,GND*%
X199644000Y-88138000D03*
%TO.P,J6,4,Pin_4*%
%TO.N,/CAN2.-*%
X197144001Y-90637999D03*
%TO.P,J6,5,Pin_5*%
%TO.N,GND*%
X197144000Y-88138000D03*
%TD*%
D12*
%TO.P,J1,1,Pin_1*%
%TO.N,unconnected-(J1-Pin_1-Pad1)*%
X67644001Y-88138001D03*
D11*
%TO.P,J1,2,Pin_2*%
%TO.N,/CAN2.+*%
X70144001Y-85638001D03*
%TO.P,J1,3,Pin_3*%
%TO.N,GND*%
X72644000Y-88138000D03*
%TO.P,J1,4,Pin_4*%
%TO.N,/CAN2.-*%
X70144001Y-90637999D03*
%TO.P,J1,5,Pin_5*%
%TO.N,GND*%
X70144000Y-88138000D03*
%TD*%
D13*
%TO.N,GND*%
X82550000Y-76200000D03*
X125730000Y-127080000D03*
X212090000Y-76200000D03*
X156210000Y-127080000D03*
X85090000Y-76200000D03*
X173990000Y-127080000D03*
X85090000Y-127080000D03*
X55880000Y-100330000D03*
X236220000Y-118110000D03*
X97790000Y-76200000D03*
X90170000Y-127080000D03*
X219710000Y-76200000D03*
X140970000Y-127080000D03*
X115570000Y-76200000D03*
X181610000Y-127080000D03*
X138430000Y-76200000D03*
X128270000Y-127080000D03*
X67310000Y-76200000D03*
X168910000Y-127080000D03*
X156210000Y-76200000D03*
X186690000Y-76200000D03*
X55880000Y-82550000D03*
X107950000Y-76200000D03*
X194310000Y-76200000D03*
X120650000Y-76200000D03*
X110490000Y-76200000D03*
X214630000Y-76200000D03*
X115570000Y-127080000D03*
X77470000Y-76200000D03*
X236220000Y-97790000D03*
X143510000Y-127080000D03*
X201930000Y-76200000D03*
X189230000Y-127080000D03*
X201930000Y-127080000D03*
X80010000Y-76200000D03*
X64770000Y-76200000D03*
X55880000Y-95250000D03*
X55800000Y-120650000D03*
X194310000Y-127080000D03*
X151130000Y-76200000D03*
X176530000Y-76200000D03*
X168910000Y-76200000D03*
X236220000Y-100330000D03*
X105410000Y-127080000D03*
X184150000Y-127080000D03*
X113030000Y-127080000D03*
X196850000Y-127080000D03*
X236220000Y-102870000D03*
X224790000Y-127080000D03*
X55800000Y-110490000D03*
X186690000Y-127080000D03*
X196850000Y-76200000D03*
X236220000Y-110490000D03*
X219710000Y-127080000D03*
X55880000Y-105410000D03*
X158750000Y-76200000D03*
X151130000Y-127080000D03*
X102870000Y-76200000D03*
X95250000Y-76200000D03*
X222250000Y-127080000D03*
X153670000Y-127080000D03*
X105410000Y-76200000D03*
X146050000Y-127080000D03*
X209550000Y-76200000D03*
X100330000Y-127080000D03*
X214630000Y-127080000D03*
X92710000Y-76200000D03*
X69850000Y-76200000D03*
X171450000Y-127080000D03*
X227330000Y-76200000D03*
X236220000Y-90170000D03*
X135890000Y-127080000D03*
X95250000Y-127080000D03*
X55800000Y-113030000D03*
X236220000Y-120650000D03*
X236220000Y-113030000D03*
X128270000Y-76200000D03*
X236220000Y-95250000D03*
X222250000Y-76200000D03*
X148590000Y-76200000D03*
X189230000Y-76200000D03*
X161290000Y-127080000D03*
X199390000Y-127080000D03*
X118110000Y-76200000D03*
X236220000Y-87630000D03*
X236220000Y-92710000D03*
X55880000Y-107950000D03*
X55800000Y-118110000D03*
X118110000Y-127080000D03*
X191770000Y-76200000D03*
X74930000Y-76200000D03*
X199390000Y-76200000D03*
X87630000Y-76200000D03*
X77470000Y-127080000D03*
X143510000Y-76200000D03*
X100330000Y-76200000D03*
X212090000Y-127080000D03*
X130810000Y-76200000D03*
X236220000Y-105410000D03*
X97790000Y-127080000D03*
X158750000Y-127080000D03*
X55880000Y-102870000D03*
X107950000Y-127080000D03*
X72390000Y-76200000D03*
X69850000Y-127080000D03*
X64770000Y-127080000D03*
X55800000Y-115570000D03*
X74930000Y-127080000D03*
X153670000Y-76200000D03*
X113030000Y-76200000D03*
X173990000Y-76200000D03*
X55880000Y-90170000D03*
X55880000Y-97790000D03*
X236220000Y-85090000D03*
X130810000Y-127080000D03*
X236220000Y-115570000D03*
X67310000Y-127080000D03*
X90170000Y-76200000D03*
X125730000Y-76200000D03*
X146050000Y-76200000D03*
X224790000Y-76200000D03*
X133350000Y-76200000D03*
X123190000Y-76200000D03*
X135890000Y-76200000D03*
X166370000Y-127080000D03*
X163830000Y-127080000D03*
X171450000Y-76200000D03*
X176530000Y-127080000D03*
X55880000Y-85090000D03*
X72390000Y-127080000D03*
X92710000Y-127080000D03*
X229870000Y-127080000D03*
X236220000Y-107950000D03*
X209550000Y-127080000D03*
X163830000Y-76200000D03*
X140970000Y-76200000D03*
X55880000Y-92710000D03*
X191770000Y-127080000D03*
X62230000Y-127080000D03*
X207010000Y-76200000D03*
X179070000Y-76200000D03*
X123190000Y-127080000D03*
X229870000Y-76200000D03*
X55880000Y-87630000D03*
X166370000Y-76200000D03*
X82550000Y-127080000D03*
X102870000Y-127080000D03*
X227330000Y-127080000D03*
X179070000Y-127080000D03*
X236220000Y-82550000D03*
X120650000Y-127080000D03*
X148590000Y-127080000D03*
X217170000Y-76200000D03*
X133350000Y-127080000D03*
X62230000Y-76200000D03*
X184150000Y-76200000D03*
X80010000Y-127080000D03*
X181610000Y-76200000D03*
X204470000Y-76200000D03*
X161290000Y-76200000D03*
X207010000Y-127080000D03*
X217170000Y-127080000D03*
X204470000Y-127080000D03*
X138430000Y-127080000D03*
X110490000Y-127080000D03*
X87630000Y-127080000D03*
%TD*%
D14*
%TO.N,/CAN2.-*%
X228560243Y-102026632D02*
X228560243Y-102146632D01*
X228320243Y-102386632D02*
X227624000Y-102386632D01*
X226687757Y-101426632D02*
X226687757Y-101546632D01*
X227624000Y-101186632D02*
X226927757Y-101186632D01*
X227624000Y-105513070D02*
X227624000Y-110500234D01*
X227624000Y-100586632D02*
X228320243Y-100586632D01*
X227624000Y-101786632D02*
X228320243Y-101786632D01*
X228320243Y-101186632D02*
X227624000Y-101186632D01*
X226687757Y-102626632D02*
X226687757Y-102746632D01*
X227624000Y-103346632D02*
X227624000Y-105513070D01*
X227624000Y-93990234D02*
X227624000Y-97946632D01*
X226687757Y-100226632D02*
X226687757Y-100346632D01*
X228320243Y-98786632D02*
X227864000Y-98786632D01*
X227624000Y-99386632D02*
X228320243Y-99386632D01*
X226927757Y-99386632D02*
X227624000Y-99386632D01*
X227864000Y-98186632D02*
X228320243Y-98186632D01*
X227624000Y-102386632D02*
X227384000Y-102386632D01*
X227864000Y-98786632D02*
X227624000Y-98786632D01*
X227624000Y-103226632D02*
X227624000Y-103346632D01*
X227624000Y-99986632D02*
X226927757Y-99986632D01*
X228560243Y-99626632D02*
X228560243Y-99746632D01*
X228560243Y-100826632D02*
X228560243Y-100946632D01*
X227624000Y-98786632D02*
X226927757Y-98786632D01*
X225181233Y-112943001D02*
X222543999Y-112943001D01*
X227624000Y-110500234D02*
X225181233Y-112943001D01*
X226687757Y-99026632D02*
X226687757Y-99146632D01*
X228320243Y-99986632D02*
X227624000Y-99986632D01*
X222544001Y-90637999D02*
X224271765Y-90637999D01*
X224271765Y-90637999D02*
X227624000Y-93990234D01*
X228560243Y-98426632D02*
X228560243Y-98546632D01*
X227384000Y-102386632D02*
X226927757Y-102386632D01*
X226927757Y-102986632D02*
X227384000Y-102986632D01*
X226927757Y-101786632D02*
X227624000Y-101786632D01*
X226927757Y-100586632D02*
X227624000Y-100586632D01*
X228560243Y-100946632D02*
G75*
G02*
X228320243Y-101186643I-240043J32D01*
G01*
X226927757Y-101186632D02*
G75*
G03*
X226687832Y-101426632I43J-239968D01*
G01*
X227384000Y-102986632D02*
G75*
G02*
X227623968Y-103226632I0J-239968D01*
G01*
X226927757Y-99986632D02*
G75*
G03*
X226687832Y-100226632I43J-239968D01*
G01*
X226687757Y-100346632D02*
G75*
G03*
X226927757Y-100586643I240043J32D01*
G01*
X228320243Y-100586632D02*
G75*
G02*
X228560168Y-100826632I-43J-239968D01*
G01*
X226687757Y-99146632D02*
G75*
G03*
X226927757Y-99386643I240043J32D01*
G01*
X226927757Y-98786632D02*
G75*
G03*
X226687832Y-99026632I43J-239968D01*
G01*
X228320243Y-98186632D02*
G75*
G02*
X228560168Y-98426632I-43J-239968D01*
G01*
X228320243Y-99386632D02*
G75*
G02*
X228560168Y-99626632I-43J-239968D01*
G01*
X228560243Y-98546632D02*
G75*
G02*
X228320243Y-98786643I-240043J32D01*
G01*
X226927757Y-102386632D02*
G75*
G03*
X226687832Y-102626632I43J-239968D01*
G01*
X226687757Y-102746632D02*
G75*
G03*
X226927757Y-102986643I240043J32D01*
G01*
X227624000Y-97946632D02*
G75*
G03*
X227864000Y-98186600I240000J32D01*
G01*
X228320243Y-101786632D02*
G75*
G02*
X228560168Y-102026632I-43J-239968D01*
G01*
X228560243Y-99746632D02*
G75*
G02*
X228320243Y-99986643I-240043J32D01*
G01*
X228560243Y-102146632D02*
G75*
G02*
X228320243Y-102386643I-240043J32D01*
G01*
X226687757Y-101546632D02*
G75*
G03*
X226927757Y-101786643I240043J32D01*
G01*
X222543999Y-112943001D02*
X95543999Y-112943001D01*
X95544001Y-90637999D02*
X222544001Y-90637999D01*
X95544001Y-90637999D02*
X70144001Y-90637999D01*
%TO.N,/CAN2.+*%
X229656000Y-89672235D02*
X229656000Y-114564234D01*
D15*
X222544001Y-85638001D02*
X222573768Y-85608234D01*
D14*
X226277235Y-117942999D02*
X95543999Y-117942999D01*
X222544001Y-85638001D02*
X70144001Y-85638001D01*
X222573768Y-85608234D02*
X225591999Y-85608234D01*
X225591999Y-85608234D02*
X229656000Y-89672235D01*
X229656000Y-114564234D02*
X226277235Y-117942999D01*
%TD*%
%TA.AperFunction,Conductor*%
%TO.N,GND*%
G36*
X228912919Y-102963163D02*
G01*
X228956114Y-103018080D01*
X228965000Y-103064176D01*
X228965000Y-114226650D01*
X228945315Y-114293689D01*
X228928681Y-114314331D01*
X226027332Y-117215680D01*
X225966009Y-117249165D01*
X225939651Y-117251999D01*
X223650843Y-117251999D01*
X223583804Y-117232314D01*
X223550526Y-117200885D01*
X223497831Y-117128359D01*
X223497827Y-117128353D01*
X223358645Y-116989171D01*
X223199404Y-116873475D01*
X223024028Y-116784116D01*
X222836825Y-116723289D01*
X222642421Y-116692499D01*
X222642416Y-116692499D01*
X222445582Y-116692499D01*
X222445577Y-116692499D01*
X222251172Y-116723289D01*
X222063969Y-116784116D01*
X221888593Y-116873475D01*
X221812121Y-116929036D01*
X221729353Y-116989171D01*
X221729351Y-116989173D01*
X221729350Y-116989173D01*
X221590173Y-117128350D01*
X221590166Y-117128359D01*
X221537472Y-117200885D01*
X221482142Y-117243551D01*
X221437155Y-117251999D01*
X198250843Y-117251999D01*
X198183804Y-117232314D01*
X198150526Y-117200885D01*
X198097831Y-117128359D01*
X198097827Y-117128353D01*
X197958645Y-116989171D01*
X197799404Y-116873475D01*
X197624028Y-116784116D01*
X197436825Y-116723289D01*
X197242421Y-116692499D01*
X197242416Y-116692499D01*
X197045582Y-116692499D01*
X197045577Y-116692499D01*
X196851172Y-116723289D01*
X196663969Y-116784116D01*
X196488593Y-116873475D01*
X196412121Y-116929036D01*
X196329353Y-116989171D01*
X196329351Y-116989173D01*
X196329350Y-116989173D01*
X196190173Y-117128350D01*
X196190166Y-117128359D01*
X196137472Y-117200885D01*
X196082142Y-117243551D01*
X196037155Y-117251999D01*
X172850843Y-117251999D01*
X172783804Y-117232314D01*
X172750526Y-117200885D01*
X172697831Y-117128359D01*
X172697827Y-117128353D01*
X172558645Y-116989171D01*
X172399404Y-116873475D01*
X172224028Y-116784116D01*
X172036825Y-116723289D01*
X171842421Y-116692499D01*
X171842416Y-116692499D01*
X171645582Y-116692499D01*
X171645577Y-116692499D01*
X171451172Y-116723289D01*
X171263969Y-116784116D01*
X171088593Y-116873475D01*
X171012121Y-116929036D01*
X170929353Y-116989171D01*
X170929351Y-116989173D01*
X170929350Y-116989173D01*
X170790173Y-117128350D01*
X170790166Y-117128359D01*
X170737472Y-117200885D01*
X170682142Y-117243551D01*
X170637155Y-117251999D01*
X147450843Y-117251999D01*
X147383804Y-117232314D01*
X147350526Y-117200885D01*
X147297831Y-117128359D01*
X147297827Y-117128353D01*
X147158645Y-116989171D01*
X146999404Y-116873475D01*
X146862039Y-116803484D01*
X146811243Y-116755509D01*
X146794448Y-116687688D01*
X146816985Y-116621553D01*
X146862038Y-116582515D01*
X146999405Y-116512524D01*
X147158646Y-116396828D01*
X147297828Y-116257646D01*
X147413524Y-116098405D01*
X147443178Y-116040204D01*
X147491152Y-115989409D01*
X147558972Y-115972613D01*
X147625107Y-115995150D01*
X147641344Y-116008818D01*
X148145050Y-116512523D01*
X148523943Y-116891416D01*
X148570626Y-116929036D01*
X148701542Y-116988824D01*
X148701541Y-116988824D01*
X148807087Y-117003999D01*
X148807088Y-117003999D01*
X148843999Y-117009306D01*
X148880910Y-117003999D01*
X148880911Y-117003999D01*
X148920481Y-116998309D01*
X148986456Y-116988824D01*
X149117372Y-116929036D01*
X149164055Y-116891417D01*
X150292416Y-115763055D01*
X150330036Y-115716372D01*
X150389824Y-115585456D01*
X150410306Y-115442999D01*
X172677692Y-115442999D01*
X172698173Y-115585455D01*
X172757960Y-115716369D01*
X172757961Y-115716370D01*
X172757962Y-115716372D01*
X172795581Y-115763055D01*
X172795584Y-115763058D01*
X172795589Y-115763064D01*
X173654080Y-116621553D01*
X173923943Y-116891416D01*
X173970626Y-116929036D01*
X174101542Y-116988824D01*
X174101541Y-116988824D01*
X174207087Y-117003999D01*
X174207088Y-117003999D01*
X174243999Y-117009306D01*
X174280910Y-117003999D01*
X174280911Y-117003999D01*
X174320481Y-116998309D01*
X174386456Y-116988824D01*
X174517372Y-116929036D01*
X174564055Y-116891417D01*
X175692416Y-115763055D01*
X175730036Y-115716372D01*
X175789824Y-115585456D01*
X175810306Y-115442999D01*
X198077692Y-115442999D01*
X198098173Y-115585455D01*
X198157960Y-115716369D01*
X198157961Y-115716370D01*
X198157962Y-115716372D01*
X198195581Y-115763055D01*
X198195584Y-115763058D01*
X198195589Y-115763064D01*
X199054080Y-116621553D01*
X199323943Y-116891416D01*
X199370626Y-116929036D01*
X199501542Y-116988824D01*
X199501541Y-116988824D01*
X199607087Y-117003999D01*
X199607088Y-117003999D01*
X199643999Y-117009306D01*
X199680910Y-117003999D01*
X199680911Y-117003999D01*
X199720481Y-116998309D01*
X199786456Y-116988824D01*
X199917372Y-116929036D01*
X199964055Y-116891417D01*
X201092416Y-115763055D01*
X201130036Y-115716372D01*
X201189824Y-115585456D01*
X201210306Y-115442999D01*
X223477692Y-115442999D01*
X223498173Y-115585455D01*
X223557960Y-115716369D01*
X223557961Y-115716370D01*
X223557962Y-115716372D01*
X223595581Y-115763055D01*
X223595584Y-115763058D01*
X223595589Y-115763064D01*
X224454080Y-116621553D01*
X224723943Y-116891416D01*
X224770626Y-116929036D01*
X224901542Y-116988824D01*
X224901541Y-116988824D01*
X225007087Y-117003999D01*
X225007088Y-117003999D01*
X225043999Y-117009306D01*
X225080910Y-117003999D01*
X225080911Y-117003999D01*
X225120481Y-116998309D01*
X225186456Y-116988824D01*
X225317372Y-116929036D01*
X225364055Y-116891417D01*
X226492416Y-115763055D01*
X226530036Y-115716372D01*
X226589824Y-115585456D01*
X226610306Y-115442999D01*
X226589824Y-115300542D01*
X226530036Y-115169626D01*
X226492417Y-115122943D01*
X226492412Y-115122938D01*
X226492408Y-115122933D01*
X225364062Y-113994589D01*
X225364055Y-113994582D01*
X225317372Y-113956962D01*
X225186456Y-113897174D01*
X225186454Y-113897173D01*
X225186456Y-113897173D01*
X225080925Y-113882001D01*
X225080924Y-113882001D01*
X225043999Y-113876692D01*
X225007074Y-113882001D01*
X225007073Y-113882001D01*
X224901542Y-113897173D01*
X224770628Y-113956960D01*
X224723933Y-113994589D01*
X223595589Y-115122935D01*
X223595583Y-115122942D01*
X223557961Y-115169627D01*
X223557960Y-115169629D01*
X223498173Y-115300542D01*
X223477692Y-115442999D01*
X201210306Y-115442999D01*
X201189824Y-115300542D01*
X201130036Y-115169626D01*
X201092417Y-115122943D01*
X201092412Y-115122938D01*
X201092408Y-115122933D01*
X199964062Y-113994589D01*
X199964055Y-113994582D01*
X199917372Y-113956962D01*
X199786456Y-113897174D01*
X199786454Y-113897173D01*
X199786456Y-113897173D01*
X199680925Y-113882001D01*
X199680924Y-113882001D01*
X199643999Y-113876692D01*
X199607074Y-113882001D01*
X199607073Y-113882001D01*
X199501542Y-113897173D01*
X199370628Y-113956960D01*
X199323933Y-113994589D01*
X198195589Y-115122935D01*
X198195583Y-115122942D01*
X198157961Y-115169627D01*
X198157960Y-115169629D01*
X198098173Y-115300542D01*
X198077692Y-115442999D01*
X175810306Y-115442999D01*
X175789824Y-115300542D01*
X175730036Y-115169626D01*
X175692417Y-115122943D01*
X175692412Y-115122938D01*
X175692408Y-115122933D01*
X174564062Y-113994589D01*
X174564055Y-113994582D01*
X174517372Y-113956962D01*
X174386456Y-113897174D01*
X174386454Y-113897173D01*
X174386456Y-113897173D01*
X174280925Y-113882001D01*
X174280924Y-113882001D01*
X174243999Y-113876692D01*
X174207074Y-113882001D01*
X174207073Y-113882001D01*
X174101542Y-113897173D01*
X173970628Y-113956960D01*
X173923933Y-113994589D01*
X172795589Y-115122935D01*
X172795583Y-115122942D01*
X172757961Y-115169627D01*
X172757960Y-115169629D01*
X172698173Y-115300542D01*
X172677692Y-115442999D01*
X150410306Y-115442999D01*
X150389824Y-115300542D01*
X150330036Y-115169626D01*
X150292417Y-115122943D01*
X150292412Y-115122938D01*
X150292408Y-115122933D01*
X149164062Y-113994589D01*
X149164055Y-113994582D01*
X149117372Y-113956962D01*
X148986456Y-113897174D01*
X148986454Y-113897173D01*
X148986456Y-113897173D01*
X148872147Y-113880739D01*
X148845922Y-113868762D01*
X148833139Y-113876978D01*
X148815851Y-113880739D01*
X148701542Y-113897173D01*
X148570628Y-113956960D01*
X148523933Y-113994589D01*
X147641343Y-114877180D01*
X147580020Y-114910665D01*
X147510328Y-114905681D01*
X147454395Y-114863809D01*
X147443177Y-114845793D01*
X147413525Y-114787596D01*
X147396144Y-114763674D01*
X147297828Y-114628354D01*
X147158646Y-114489172D01*
X146999405Y-114373476D01*
X146862038Y-114303484D01*
X146811243Y-114255511D01*
X146794448Y-114187690D01*
X146816985Y-114121555D01*
X146862040Y-114082515D01*
X146999402Y-114012526D01*
X146999401Y-114012526D01*
X146999404Y-114012525D01*
X147158645Y-113896829D01*
X147297827Y-113757647D01*
X147326994Y-113717501D01*
X147350526Y-113685115D01*
X147405856Y-113642449D01*
X147450843Y-113634001D01*
X148798204Y-113634001D01*
X148844891Y-113647710D01*
X148872147Y-113635263D01*
X148889794Y-113634001D01*
X170637155Y-113634001D01*
X170642404Y-113635542D01*
X170647765Y-113634456D01*
X170675570Y-113645281D01*
X170704194Y-113653686D01*
X170709127Y-113658345D01*
X170712874Y-113659804D01*
X170737472Y-113685115D01*
X170785463Y-113751167D01*
X170790171Y-113757647D01*
X170929353Y-113896829D01*
X171088594Y-114012525D01*
X171171454Y-114054744D01*
X171263969Y-114101883D01*
X171263971Y-114101883D01*
X171263974Y-114101885D01*
X171324512Y-114121555D01*
X171451172Y-114162710D01*
X171645577Y-114193501D01*
X171645582Y-114193501D01*
X171842421Y-114193501D01*
X172036825Y-114162710D01*
X172224024Y-114101885D01*
X172399404Y-114012525D01*
X172558645Y-113896829D01*
X172697827Y-113757647D01*
X172726994Y-113717501D01*
X172750526Y-113685115D01*
X172805856Y-113642449D01*
X172850843Y-113634001D01*
X196037155Y-113634001D01*
X196104194Y-113653686D01*
X196137472Y-113685115D01*
X196185463Y-113751167D01*
X196190171Y-113757647D01*
X196329353Y-113896829D01*
X196488594Y-114012525D01*
X196571454Y-114054744D01*
X196663969Y-114101883D01*
X196663971Y-114101883D01*
X196663974Y-114101885D01*
X196724512Y-114121555D01*
X196851172Y-114162710D01*
X197045577Y-114193501D01*
X197045582Y-114193501D01*
X197242421Y-114193501D01*
X197436825Y-114162710D01*
X197624024Y-114101885D01*
X197799404Y-114012525D01*
X197958645Y-113896829D01*
X198097827Y-113757647D01*
X198126994Y-113717501D01*
X198150526Y-113685115D01*
X198205856Y-113642449D01*
X198250843Y-113634001D01*
X221437155Y-113634001D01*
X221504194Y-113653686D01*
X221537472Y-113685115D01*
X221585463Y-113751167D01*
X221590171Y-113757647D01*
X221729353Y-113896829D01*
X221888594Y-114012525D01*
X221971454Y-114054744D01*
X222063969Y-114101883D01*
X222063971Y-114101883D01*
X222063974Y-114101885D01*
X222124512Y-114121555D01*
X222251172Y-114162710D01*
X222445577Y-114193501D01*
X222445582Y-114193501D01*
X222642421Y-114193501D01*
X222836825Y-114162710D01*
X223024024Y-114101885D01*
X223199404Y-114012525D01*
X223358645Y-113896829D01*
X223497827Y-113757647D01*
X223526994Y-113717501D01*
X223550526Y-113685115D01*
X223605856Y-113642449D01*
X223650843Y-113634001D01*
X225249293Y-113634001D01*
X225339103Y-113616135D01*
X225382790Y-113607446D01*
X225508544Y-113555357D01*
X225621720Y-113479736D01*
X228160735Y-110940721D01*
X228236356Y-110827545D01*
X228288445Y-110701791D01*
X228315000Y-110568292D01*
X228315000Y-105445012D01*
X228315000Y-103278574D01*
X228315000Y-103196981D01*
X228334685Y-103129942D01*
X228387489Y-103084187D01*
X228417450Y-103074868D01*
X228562207Y-103049323D01*
X228715257Y-102993598D01*
X228778993Y-102956793D01*
X228846890Y-102940316D01*
X228912919Y-102963163D01*
G37*
%TD.AperFunction*%
%TA.AperFunction,Conductor*%
G36*
X236302702Y-71374617D02*
G01*
X236708212Y-71392322D01*
X236718947Y-71393262D01*
X237118688Y-71445889D01*
X237129315Y-71447762D01*
X237522958Y-71535031D01*
X237533370Y-71537820D01*
X237917911Y-71659066D01*
X237928046Y-71662755D01*
X238300542Y-71817048D01*
X238310334Y-71821614D01*
X238667965Y-72007785D01*
X238677305Y-72013178D01*
X238824493Y-72106947D01*
X239017336Y-72229802D01*
X239026197Y-72236006D01*
X239346056Y-72481442D01*
X239354343Y-72488396D01*
X239651583Y-72760767D01*
X239659232Y-72768416D01*
X239931603Y-73065656D01*
X239938557Y-73073943D01*
X240183993Y-73393802D01*
X240190197Y-73402663D01*
X240406813Y-73742680D01*
X240412218Y-73752042D01*
X240531181Y-73980566D01*
X240598382Y-74109659D01*
X240602954Y-74119463D01*
X240757238Y-74491938D01*
X240760937Y-74502101D01*
X240801363Y-74630316D01*
X240882173Y-74886610D01*
X240884973Y-74897060D01*
X240972234Y-75290672D01*
X240974112Y-75301325D01*
X241026735Y-75701032D01*
X241027678Y-75711808D01*
X241045382Y-76117297D01*
X241045500Y-76122706D01*
X241045500Y-127077293D01*
X241045382Y-127082702D01*
X241027678Y-127488191D01*
X241026735Y-127498967D01*
X240974112Y-127898674D01*
X240972234Y-127909327D01*
X240884973Y-128302939D01*
X240882173Y-128313389D01*
X240760938Y-128697896D01*
X240757238Y-128708061D01*
X240602954Y-129080536D01*
X240598382Y-129090340D01*
X240412222Y-129447951D01*
X240406813Y-129457319D01*
X240190197Y-129797336D01*
X240183993Y-129806197D01*
X239938557Y-130126056D01*
X239931603Y-130134343D01*
X239659232Y-130431583D01*
X239651583Y-130439232D01*
X239354343Y-130711603D01*
X239346056Y-130718557D01*
X239026197Y-130963993D01*
X239017336Y-130970197D01*
X238677319Y-131186813D01*
X238667951Y-131192222D01*
X238310340Y-131378382D01*
X238300536Y-131382954D01*
X237928061Y-131537238D01*
X237917896Y-131540938D01*
X237533389Y-131662173D01*
X237522939Y-131664973D01*
X237129327Y-131752234D01*
X237118674Y-131754112D01*
X236718967Y-131806735D01*
X236708191Y-131807678D01*
X236302703Y-131825382D01*
X236297294Y-131825500D01*
X55802706Y-131825500D01*
X55797297Y-131825382D01*
X55391808Y-131807678D01*
X55381032Y-131806735D01*
X54981325Y-131754112D01*
X54970672Y-131752234D01*
X54714740Y-131695495D01*
X54577057Y-131664972D01*
X54566614Y-131662174D01*
X54182101Y-131540937D01*
X54171938Y-131537238D01*
X53799463Y-131382954D01*
X53789659Y-131378382D01*
X53672813Y-131317556D01*
X53432042Y-131192218D01*
X53422686Y-131186817D01*
X53252671Y-131078505D01*
X53082663Y-130970197D01*
X53073802Y-130963993D01*
X52753943Y-130718557D01*
X52745656Y-130711603D01*
X52448416Y-130439232D01*
X52440767Y-130431583D01*
X52168396Y-130134343D01*
X52161442Y-130126056D01*
X51916006Y-129806197D01*
X51909802Y-129797336D01*
X51893660Y-129771999D01*
X51693178Y-129457305D01*
X51687785Y-129447965D01*
X51501614Y-129090334D01*
X51497045Y-129080536D01*
X51342755Y-128708046D01*
X51339066Y-128697911D01*
X51217820Y-128313370D01*
X51215031Y-128302958D01*
X51127762Y-127909315D01*
X51125889Y-127898688D01*
X51073262Y-127498947D01*
X51072322Y-127488210D01*
X51054618Y-127082701D01*
X51054500Y-127077293D01*
X51054500Y-126932224D01*
X53545500Y-126932224D01*
X53545500Y-127227775D01*
X53575503Y-127455662D01*
X53584076Y-127520775D01*
X53622321Y-127663507D01*
X53660566Y-127806242D01*
X53773660Y-128079275D01*
X53773665Y-128079286D01*
X53921425Y-128335212D01*
X53921436Y-128335228D01*
X54101339Y-128569682D01*
X54101345Y-128569689D01*
X54310310Y-128778654D01*
X54310316Y-128778659D01*
X54544780Y-128958570D01*
X54544787Y-128958574D01*
X54800713Y-129106334D01*
X54800718Y-129106336D01*
X54800721Y-129106338D01*
X54937240Y-129162886D01*
X55073757Y-129219433D01*
X55073758Y-129219433D01*
X55073760Y-129219434D01*
X55359225Y-129295924D01*
X55652232Y-129334500D01*
X55652239Y-129334500D01*
X55947761Y-129334500D01*
X55947768Y-129334500D01*
X56240775Y-129295924D01*
X56526240Y-129219434D01*
X56799279Y-129106338D01*
X57055220Y-128958570D01*
X57289684Y-128778659D01*
X57498659Y-128569684D01*
X57678570Y-128335220D01*
X57826338Y-128079279D01*
X57939434Y-127806240D01*
X58015924Y-127520775D01*
X58054500Y-127227768D01*
X58054500Y-126932232D01*
X58054499Y-126932224D01*
X234045500Y-126932224D01*
X234045500Y-127227775D01*
X234075503Y-127455662D01*
X234084076Y-127520775D01*
X234122321Y-127663507D01*
X234160566Y-127806242D01*
X234273660Y-128079275D01*
X234273665Y-128079286D01*
X234421425Y-128335212D01*
X234421436Y-128335228D01*
X234601339Y-128569682D01*
X234601345Y-128569689D01*
X234810310Y-128778654D01*
X234810316Y-128778659D01*
X235044780Y-128958570D01*
X235044787Y-128958574D01*
X235300713Y-129106334D01*
X235300718Y-129106336D01*
X235300721Y-129106338D01*
X235437240Y-129162886D01*
X235573757Y-129219433D01*
X235573758Y-129219433D01*
X235573760Y-129219434D01*
X235859225Y-129295924D01*
X236152232Y-129334500D01*
X236152239Y-129334500D01*
X236447761Y-129334500D01*
X236447768Y-129334500D01*
X236740775Y-129295924D01*
X237026240Y-129219434D01*
X237299279Y-129106338D01*
X237555220Y-128958570D01*
X237789684Y-128778659D01*
X237998659Y-128569684D01*
X238178570Y-128335220D01*
X238326338Y-128079279D01*
X238439434Y-127806240D01*
X238515924Y-127520775D01*
X238554500Y-127227768D01*
X238554500Y-126932232D01*
X238515924Y-126639225D01*
X238439434Y-126353760D01*
X238326338Y-126080721D01*
X238326336Y-126080718D01*
X238326334Y-126080713D01*
X238178574Y-125824787D01*
X238178570Y-125824780D01*
X237998659Y-125590316D01*
X237998654Y-125590310D01*
X237789689Y-125381345D01*
X237789682Y-125381339D01*
X237555228Y-125201436D01*
X237555226Y-125201434D01*
X237555220Y-125201430D01*
X237555215Y-125201427D01*
X237555212Y-125201425D01*
X237299286Y-125053665D01*
X237299275Y-125053660D01*
X237026242Y-124940566D01*
X236883507Y-124902321D01*
X236740775Y-124864076D01*
X236675662Y-124855503D01*
X236447775Y-124825500D01*
X236447768Y-124825500D01*
X236152232Y-124825500D01*
X236152224Y-124825500D01*
X235891781Y-124859789D01*
X235859225Y-124864076D01*
X235787858Y-124883198D01*
X235573757Y-124940566D01*
X235300724Y-125053660D01*
X235300713Y-125053665D01*
X235044787Y-125201425D01*
X235044771Y-125201436D01*
X234810317Y-125381339D01*
X234810310Y-125381345D01*
X234601345Y-125590310D01*
X234601339Y-125590317D01*
X234421436Y-125824771D01*
X234421425Y-125824787D01*
X234273665Y-126080713D01*
X234273660Y-126080724D01*
X234160566Y-126353757D01*
X234084076Y-126639226D01*
X234045500Y-126932224D01*
X58054499Y-126932224D01*
X58015924Y-126639225D01*
X57939434Y-126353760D01*
X57826338Y-126080721D01*
X57826336Y-126080718D01*
X57826334Y-126080713D01*
X57678574Y-125824787D01*
X57678570Y-125824780D01*
X57498659Y-125590316D01*
X57498654Y-125590310D01*
X57289689Y-125381345D01*
X57289682Y-125381339D01*
X57055228Y-125201436D01*
X57055226Y-125201434D01*
X57055220Y-125201430D01*
X57055215Y-125201427D01*
X57055212Y-125201425D01*
X56799286Y-125053665D01*
X56799275Y-125053660D01*
X56526242Y-124940566D01*
X56383507Y-124902321D01*
X56240775Y-124864076D01*
X56175662Y-124855503D01*
X55947775Y-124825500D01*
X55947768Y-124825500D01*
X55652232Y-124825500D01*
X55652224Y-124825500D01*
X55391781Y-124859789D01*
X55359225Y-124864076D01*
X55287858Y-124883198D01*
X55073757Y-124940566D01*
X54800724Y-125053660D01*
X54800713Y-125053665D01*
X54544787Y-125201425D01*
X54544771Y-125201436D01*
X54310317Y-125381339D01*
X54310310Y-125381345D01*
X54101345Y-125590310D01*
X54101339Y-125590317D01*
X53921436Y-125824771D01*
X53921425Y-125824787D01*
X53773665Y-126080713D01*
X53773660Y-126080724D01*
X53660566Y-126353757D01*
X53584076Y-126639226D01*
X53545500Y-126932224D01*
X51054500Y-126932224D01*
X51054500Y-117844576D01*
X68893499Y-117844576D01*
X68893499Y-118041421D01*
X68924289Y-118235825D01*
X68985116Y-118423028D01*
X69052541Y-118555356D01*
X69074475Y-118598404D01*
X69190171Y-118757645D01*
X69329353Y-118896827D01*
X69488594Y-119012523D01*
X69571454Y-119054742D01*
X69663969Y-119101881D01*
X69663971Y-119101881D01*
X69663974Y-119101883D01*
X69764316Y-119134486D01*
X69851172Y-119162708D01*
X70045577Y-119193499D01*
X70045582Y-119193499D01*
X70242421Y-119193499D01*
X70436825Y-119162708D01*
X70624024Y-119101883D01*
X70799404Y-119012523D01*
X70958645Y-118896827D01*
X71097827Y-118757645D01*
X71213523Y-118598404D01*
X71302883Y-118423024D01*
X71363708Y-118235825D01*
X71394499Y-118041421D01*
X71394499Y-117844576D01*
X71363708Y-117650172D01*
X71302881Y-117462969D01*
X71213522Y-117287593D01*
X71097827Y-117128353D01*
X70958645Y-116989171D01*
X70799404Y-116873475D01*
X70624028Y-116784116D01*
X70436825Y-116723289D01*
X70242421Y-116692499D01*
X70242416Y-116692499D01*
X70045582Y-116692499D01*
X70045577Y-116692499D01*
X69851172Y-116723289D01*
X69663969Y-116784116D01*
X69488593Y-116873475D01*
X69412121Y-116929036D01*
X69329353Y-116989171D01*
X69329351Y-116989173D01*
X69329350Y-116989173D01*
X69190173Y-117128350D01*
X69190173Y-117128351D01*
X69190171Y-117128353D01*
X69190167Y-117128359D01*
X69074475Y-117287593D01*
X68985116Y-117462969D01*
X68924289Y-117650172D01*
X68893499Y-117844576D01*
X51054500Y-117844576D01*
X51054500Y-115442999D01*
X71077692Y-115442999D01*
X71098173Y-115585455D01*
X71157960Y-115716369D01*
X71157961Y-115716370D01*
X71157962Y-115716372D01*
X71195581Y-115763055D01*
X71195584Y-115763058D01*
X71195589Y-115763064D01*
X72054080Y-116621553D01*
X72323943Y-116891416D01*
X72370626Y-116929036D01*
X72501542Y-116988824D01*
X72501541Y-116988824D01*
X72503955Y-116989171D01*
X72643999Y-117009306D01*
X72786456Y-116988824D01*
X72917372Y-116929036D01*
X72964055Y-116891417D01*
X74092416Y-115763055D01*
X74130036Y-115716372D01*
X74189824Y-115585456D01*
X74210306Y-115442999D01*
X96477692Y-115442999D01*
X96498173Y-115585455D01*
X96557960Y-115716369D01*
X96557961Y-115716370D01*
X96557962Y-115716372D01*
X96595581Y-115763055D01*
X96595584Y-115763058D01*
X96595589Y-115763064D01*
X97454080Y-116621553D01*
X97723943Y-116891416D01*
X97770626Y-116929036D01*
X97901542Y-116988824D01*
X97901541Y-116988824D01*
X98007087Y-117003999D01*
X98007088Y-117003999D01*
X98043999Y-117009306D01*
X98080910Y-117003999D01*
X98080911Y-117003999D01*
X98120481Y-116998309D01*
X98186456Y-116988824D01*
X98317372Y-116929036D01*
X98364055Y-116891417D01*
X99492416Y-115763055D01*
X99530036Y-115716372D01*
X99589824Y-115585456D01*
X99610306Y-115442999D01*
X121877692Y-115442999D01*
X121898173Y-115585455D01*
X121957960Y-115716369D01*
X121957961Y-115716370D01*
X121957962Y-115716372D01*
X121995581Y-115763055D01*
X121995584Y-115763058D01*
X121995589Y-115763064D01*
X122854080Y-116621553D01*
X123123943Y-116891416D01*
X123170626Y-116929036D01*
X123301542Y-116988824D01*
X123301541Y-116988824D01*
X123407087Y-117003999D01*
X123407088Y-117003999D01*
X123443999Y-117009306D01*
X123480910Y-117003999D01*
X123480911Y-117003999D01*
X123520481Y-116998309D01*
X123586456Y-116988824D01*
X123717372Y-116929036D01*
X123764055Y-116891417D01*
X124892416Y-115763055D01*
X124930036Y-115716372D01*
X124989824Y-115585456D01*
X125010306Y-115442999D01*
X124989824Y-115300542D01*
X124930036Y-115169626D01*
X124892417Y-115122943D01*
X124892412Y-115122938D01*
X124892408Y-115122933D01*
X123764062Y-113994589D01*
X123764055Y-113994582D01*
X123717372Y-113956962D01*
X123586456Y-113897174D01*
X123586454Y-113897173D01*
X123586456Y-113897173D01*
X123480925Y-113882001D01*
X123480924Y-113882001D01*
X123443999Y-113876692D01*
X123407074Y-113882001D01*
X123407073Y-113882001D01*
X123301542Y-113897173D01*
X123170628Y-113956960D01*
X123123933Y-113994589D01*
X121995589Y-115122935D01*
X121995583Y-115122942D01*
X121957961Y-115169627D01*
X121957960Y-115169629D01*
X121898173Y-115300542D01*
X121877692Y-115442999D01*
X99610306Y-115442999D01*
X99589824Y-115300542D01*
X99530036Y-115169626D01*
X99492417Y-115122943D01*
X99492412Y-115122938D01*
X99492408Y-115122933D01*
X98364062Y-113994589D01*
X98364055Y-113994582D01*
X98317372Y-113956962D01*
X98186456Y-113897174D01*
X98186454Y-113897173D01*
X98186456Y-113897173D01*
X98080925Y-113882001D01*
X98080924Y-113882001D01*
X98043999Y-113876692D01*
X98007074Y-113882001D01*
X98007073Y-113882001D01*
X97901542Y-113897173D01*
X97770628Y-113956960D01*
X97723933Y-113994589D01*
X96595589Y-115122935D01*
X96595583Y-115122942D01*
X96557961Y-115169627D01*
X96557960Y-115169629D01*
X96498173Y-115300542D01*
X96477692Y-115442999D01*
X74210306Y-115442999D01*
X74189824Y-115300542D01*
X74130036Y-115169626D01*
X74092417Y-115122943D01*
X74092412Y-115122938D01*
X74092408Y-115122933D01*
X72964062Y-113994589D01*
X72964055Y-113994582D01*
X72917372Y-113956962D01*
X72786456Y-113897174D01*
X72786454Y-113897173D01*
X72786456Y-113897173D01*
X72643999Y-113876692D01*
X72501542Y-113897173D01*
X72370628Y-113956960D01*
X72323933Y-113994589D01*
X71195589Y-115122935D01*
X71195583Y-115122942D01*
X71157961Y-115169627D01*
X71157960Y-115169629D01*
X71098173Y-115300542D01*
X71077692Y-115442999D01*
X51054500Y-115442999D01*
X51054500Y-112844578D01*
X68893499Y-112844578D01*
X68893499Y-113041423D01*
X68924289Y-113235827D01*
X68985116Y-113423030D01*
X69052541Y-113555358D01*
X69074475Y-113598406D01*
X69190171Y-113757647D01*
X69329353Y-113896829D01*
X69488594Y-114012525D01*
X69571454Y-114054744D01*
X69663969Y-114101883D01*
X69663971Y-114101883D01*
X69663974Y-114101885D01*
X69724512Y-114121555D01*
X69851172Y-114162710D01*
X70045577Y-114193501D01*
X70045582Y-114193501D01*
X70242421Y-114193501D01*
X70436825Y-114162710D01*
X70624024Y-114101885D01*
X70799404Y-114012525D01*
X70958645Y-113896829D01*
X71097827Y-113757647D01*
X71213523Y-113598406D01*
X71302883Y-113423026D01*
X71363708Y-113235827D01*
X71394499Y-113041423D01*
X71394499Y-112844578D01*
X71363708Y-112650174D01*
X71302881Y-112462971D01*
X71213522Y-112287595D01*
X71097827Y-112128355D01*
X70958645Y-111989173D01*
X70799404Y-111873477D01*
X70624028Y-111784118D01*
X70436825Y-111723291D01*
X70242421Y-111692501D01*
X70242416Y-111692501D01*
X70045582Y-111692501D01*
X70045577Y-111692501D01*
X69851172Y-111723291D01*
X69663969Y-111784118D01*
X69488593Y-111873477D01*
X69397740Y-111939486D01*
X69329353Y-111989173D01*
X69329351Y-111989175D01*
X69329350Y-111989175D01*
X69190173Y-112128352D01*
X69190173Y-112128353D01*
X69190171Y-112128355D01*
X69190167Y-112128361D01*
X69074475Y-112287595D01*
X68985116Y-112462971D01*
X68924289Y-112650174D01*
X68893499Y-112844578D01*
X51054500Y-112844578D01*
X51054500Y-88138001D01*
X66077694Y-88138001D01*
X66098175Y-88280457D01*
X66157962Y-88411371D01*
X66157963Y-88411372D01*
X66157964Y-88411374D01*
X66195583Y-88458057D01*
X66195586Y-88458060D01*
X66195591Y-88458066D01*
X67082449Y-89344922D01*
X67323945Y-89586418D01*
X67370628Y-89624038D01*
X67501544Y-89683826D01*
X67501543Y-89683826D01*
X67503957Y-89684173D01*
X67644001Y-89704308D01*
X67786458Y-89683826D01*
X67917374Y-89624038D01*
X67964057Y-89586419D01*
X69092418Y-88458057D01*
X69130038Y-88411374D01*
X69189826Y-88280458D01*
X69210308Y-88138001D01*
X91477694Y-88138001D01*
X91498175Y-88280457D01*
X91557962Y-88411371D01*
X91557963Y-88411372D01*
X91557964Y-88411374D01*
X91595583Y-88458057D01*
X91595586Y-88458060D01*
X91595591Y-88458066D01*
X92482449Y-89344922D01*
X92723945Y-89586418D01*
X92770628Y-89624038D01*
X92901544Y-89683826D01*
X92901543Y-89683826D01*
X93007075Y-89698999D01*
X93007076Y-89698999D01*
X93044001Y-89704308D01*
X93080926Y-89698999D01*
X93080927Y-89698999D01*
X93123988Y-89692807D01*
X93186458Y-89683826D01*
X93317374Y-89624038D01*
X93364057Y-89586419D01*
X94492418Y-88458057D01*
X94530038Y-88411374D01*
X94589826Y-88280458D01*
X94610308Y-88138001D01*
X116877694Y-88138001D01*
X116898175Y-88280457D01*
X116957962Y-88411371D01*
X116957963Y-88411372D01*
X116957964Y-88411374D01*
X116995583Y-88458057D01*
X116995586Y-88458060D01*
X116995591Y-88458066D01*
X117882449Y-89344922D01*
X118123945Y-89586418D01*
X118170628Y-89624038D01*
X118301544Y-89683826D01*
X118301543Y-89683826D01*
X118407075Y-89698999D01*
X118407076Y-89698999D01*
X118444001Y-89704308D01*
X118480926Y-89698999D01*
X118480927Y-89698999D01*
X118523988Y-89692807D01*
X118586458Y-89683826D01*
X118717374Y-89624038D01*
X118764057Y-89586419D01*
X119892418Y-88458057D01*
X119930038Y-88411374D01*
X119989826Y-88280458D01*
X120010308Y-88138001D01*
X142277694Y-88138001D01*
X142298175Y-88280457D01*
X142357962Y-88411371D01*
X142357963Y-88411372D01*
X142357964Y-88411374D01*
X142395583Y-88458057D01*
X142395586Y-88458060D01*
X142395591Y-88458066D01*
X143282449Y-89344922D01*
X143523945Y-89586418D01*
X143570628Y-89624038D01*
X143701544Y-89683826D01*
X143701543Y-89683826D01*
X143807075Y-89698999D01*
X143807076Y-89698999D01*
X143844001Y-89704308D01*
X143880926Y-89698999D01*
X143880927Y-89698999D01*
X143923988Y-89692807D01*
X143986458Y-89683826D01*
X144117374Y-89624038D01*
X144164057Y-89586419D01*
X145292418Y-88458057D01*
X145330038Y-88411374D01*
X145389826Y-88280458D01*
X145410308Y-88138001D01*
X167677694Y-88138001D01*
X167698175Y-88280457D01*
X167757962Y-88411371D01*
X167757963Y-88411372D01*
X167757964Y-88411374D01*
X167795583Y-88458057D01*
X167795586Y-88458060D01*
X167795591Y-88458066D01*
X168682449Y-89344922D01*
X168923945Y-89586418D01*
X168970628Y-89624038D01*
X169101544Y-89683826D01*
X169101543Y-89683826D01*
X169207075Y-89698999D01*
X169207076Y-89698999D01*
X169244001Y-89704308D01*
X169280926Y-89698999D01*
X169280927Y-89698999D01*
X169323988Y-89692807D01*
X169386458Y-89683826D01*
X169517374Y-89624038D01*
X169564057Y-89586419D01*
X170692418Y-88458057D01*
X170730038Y-88411374D01*
X170789826Y-88280458D01*
X170810308Y-88138001D01*
X193077694Y-88138001D01*
X193098175Y-88280457D01*
X193157962Y-88411371D01*
X193157963Y-88411372D01*
X193157964Y-88411374D01*
X193195583Y-88458057D01*
X193195586Y-88458060D01*
X193195591Y-88458066D01*
X194082449Y-89344922D01*
X194323945Y-89586418D01*
X194370628Y-89624038D01*
X194501544Y-89683826D01*
X194501543Y-89683826D01*
X194607075Y-89698999D01*
X194607076Y-89698999D01*
X194644001Y-89704308D01*
X194680926Y-89698999D01*
X194680927Y-89698999D01*
X194723988Y-89692807D01*
X194786458Y-89683826D01*
X194917374Y-89624038D01*
X194964057Y-89586419D01*
X196092418Y-88458057D01*
X196130038Y-88411374D01*
X196189826Y-88280458D01*
X196210308Y-88138001D01*
X218477694Y-88138001D01*
X218498175Y-88280457D01*
X218557962Y-88411371D01*
X218557963Y-88411372D01*
X218557964Y-88411374D01*
X218595583Y-88458057D01*
X218595586Y-88458060D01*
X218595591Y-88458066D01*
X219482449Y-89344922D01*
X219723945Y-89586418D01*
X219770628Y-89624038D01*
X219901544Y-89683826D01*
X219901543Y-89683826D01*
X220007075Y-89698999D01*
X220007076Y-89698999D01*
X220044001Y-89704308D01*
X220080926Y-89698999D01*
X220080927Y-89698999D01*
X220123988Y-89692807D01*
X220186458Y-89683826D01*
X220317374Y-89624038D01*
X220364057Y-89586419D01*
X221492418Y-88458057D01*
X221530038Y-88411374D01*
X221589826Y-88280458D01*
X221610308Y-88138001D01*
X221589826Y-87995544D01*
X221530038Y-87864628D01*
X221492419Y-87817945D01*
X221492414Y-87817940D01*
X221492410Y-87817935D01*
X220364064Y-86689591D01*
X220364057Y-86689584D01*
X220317374Y-86651964D01*
X220186458Y-86592176D01*
X220186456Y-86592175D01*
X220186458Y-86592175D01*
X220080913Y-86577001D01*
X220080912Y-86577001D01*
X220044001Y-86571694D01*
X220007090Y-86577001D01*
X220007089Y-86577001D01*
X219901544Y-86592175D01*
X219770630Y-86651962D01*
X219723935Y-86689591D01*
X218595591Y-87817937D01*
X218595585Y-87817944D01*
X218557963Y-87864629D01*
X218557962Y-87864631D01*
X218498175Y-87995544D01*
X218477694Y-88138001D01*
X196210308Y-88138001D01*
X196189826Y-87995544D01*
X196130038Y-87864628D01*
X196092419Y-87817945D01*
X196092414Y-87817940D01*
X196092410Y-87817935D01*
X194964064Y-86689591D01*
X194964057Y-86689584D01*
X194917374Y-86651964D01*
X194786458Y-86592176D01*
X194786456Y-86592175D01*
X194786458Y-86592175D01*
X194680913Y-86577001D01*
X194680912Y-86577001D01*
X194644001Y-86571694D01*
X194607090Y-86577001D01*
X194607089Y-86577001D01*
X194501544Y-86592175D01*
X194370630Y-86651962D01*
X194323935Y-86689591D01*
X193195591Y-87817937D01*
X193195585Y-87817944D01*
X193157963Y-87864629D01*
X193157962Y-87864631D01*
X193098175Y-87995544D01*
X193077694Y-88138001D01*
X170810308Y-88138001D01*
X170789826Y-87995544D01*
X170730038Y-87864628D01*
X170692419Y-87817945D01*
X170692414Y-87817940D01*
X170692410Y-87817935D01*
X169564064Y-86689591D01*
X169564057Y-86689584D01*
X169517374Y-86651964D01*
X169386458Y-86592176D01*
X169386456Y-86592175D01*
X169386458Y-86592175D01*
X169280913Y-86577001D01*
X169280912Y-86577001D01*
X169244001Y-86571694D01*
X169207090Y-86577001D01*
X169207089Y-86577001D01*
X169101544Y-86592175D01*
X168970630Y-86651962D01*
X168923935Y-86689591D01*
X167795591Y-87817937D01*
X167795585Y-87817944D01*
X167757963Y-87864629D01*
X167757962Y-87864631D01*
X167698175Y-87995544D01*
X167677694Y-88138001D01*
X145410308Y-88138001D01*
X145389826Y-87995544D01*
X145330038Y-87864628D01*
X145292419Y-87817945D01*
X145292414Y-87817940D01*
X145292410Y-87817935D01*
X144164064Y-86689591D01*
X144164057Y-86689584D01*
X144117374Y-86651964D01*
X143986458Y-86592176D01*
X143986456Y-86592175D01*
X143986458Y-86592175D01*
X143880913Y-86577001D01*
X143880912Y-86577001D01*
X143844001Y-86571694D01*
X143807090Y-86577001D01*
X143807089Y-86577001D01*
X143701544Y-86592175D01*
X143570630Y-86651962D01*
X143523935Y-86689591D01*
X142395591Y-87817937D01*
X142395585Y-87817944D01*
X142357963Y-87864629D01*
X142357962Y-87864631D01*
X142298175Y-87995544D01*
X142277694Y-88138001D01*
X120010308Y-88138001D01*
X119989826Y-87995544D01*
X119930038Y-87864628D01*
X119892419Y-87817945D01*
X119892414Y-87817940D01*
X119892410Y-87817935D01*
X118764064Y-86689591D01*
X118764057Y-86689584D01*
X118717374Y-86651964D01*
X118586458Y-86592176D01*
X118586456Y-86592175D01*
X118586458Y-86592175D01*
X118480913Y-86577001D01*
X118480912Y-86577001D01*
X118444001Y-86571694D01*
X118407090Y-86577001D01*
X118407089Y-86577001D01*
X118301544Y-86592175D01*
X118170630Y-86651962D01*
X118123935Y-86689591D01*
X116995591Y-87817937D01*
X116995585Y-87817944D01*
X116957963Y-87864629D01*
X116957962Y-87864631D01*
X116898175Y-87995544D01*
X116877694Y-88138001D01*
X94610308Y-88138001D01*
X94589826Y-87995544D01*
X94530038Y-87864628D01*
X94492419Y-87817945D01*
X94492414Y-87817940D01*
X94492410Y-87817935D01*
X93364064Y-86689591D01*
X93364057Y-86689584D01*
X93317374Y-86651964D01*
X93186458Y-86592176D01*
X93186456Y-86592175D01*
X93186458Y-86592175D01*
X93080913Y-86577001D01*
X93080912Y-86577001D01*
X93044001Y-86571694D01*
X93007090Y-86577001D01*
X93007089Y-86577001D01*
X92901544Y-86592175D01*
X92770630Y-86651962D01*
X92723935Y-86689591D01*
X91595591Y-87817937D01*
X91595585Y-87817944D01*
X91557963Y-87864629D01*
X91557962Y-87864631D01*
X91498175Y-87995544D01*
X91477694Y-88138001D01*
X69210308Y-88138001D01*
X69189826Y-87995544D01*
X69130038Y-87864628D01*
X69092419Y-87817945D01*
X69092414Y-87817940D01*
X69092410Y-87817935D01*
X67964064Y-86689591D01*
X67964057Y-86689584D01*
X67917374Y-86651964D01*
X67786458Y-86592176D01*
X67786456Y-86592175D01*
X67786458Y-86592175D01*
X67644001Y-86571694D01*
X67501544Y-86592175D01*
X67370630Y-86651962D01*
X67323935Y-86689591D01*
X66195591Y-87817937D01*
X66195585Y-87817944D01*
X66157963Y-87864629D01*
X66157962Y-87864631D01*
X66098175Y-87995544D01*
X66077694Y-88138001D01*
X51054500Y-88138001D01*
X51054500Y-85539578D01*
X68893501Y-85539578D01*
X68893501Y-85736423D01*
X68924291Y-85930827D01*
X68985118Y-86118030D01*
X69074477Y-86293406D01*
X69190173Y-86452647D01*
X69329355Y-86591829D01*
X69488596Y-86707525D01*
X69571456Y-86749744D01*
X69663971Y-86796883D01*
X69663973Y-86796883D01*
X69663976Y-86796885D01*
X69764318Y-86829488D01*
X69851174Y-86857710D01*
X70045579Y-86888501D01*
X70045584Y-86888501D01*
X70242423Y-86888501D01*
X70436827Y-86857710D01*
X70624026Y-86796885D01*
X70799406Y-86707525D01*
X70958647Y-86591829D01*
X71097829Y-86452647D01*
X71126996Y-86412501D01*
X71150528Y-86380115D01*
X71205858Y-86337449D01*
X71250845Y-86329001D01*
X94437157Y-86329001D01*
X94504196Y-86348686D01*
X94537474Y-86380115D01*
X94585465Y-86446167D01*
X94590173Y-86452647D01*
X94729355Y-86591829D01*
X94888596Y-86707525D01*
X94971456Y-86749744D01*
X95063971Y-86796883D01*
X95063973Y-86796883D01*
X95063976Y-86796885D01*
X95164318Y-86829488D01*
X95251174Y-86857710D01*
X95445579Y-86888501D01*
X95445584Y-86888501D01*
X95642423Y-86888501D01*
X95836827Y-86857710D01*
X96024026Y-86796885D01*
X96199406Y-86707525D01*
X96358647Y-86591829D01*
X96497829Y-86452647D01*
X96526996Y-86412501D01*
X96550528Y-86380115D01*
X96605858Y-86337449D01*
X96650845Y-86329001D01*
X119837157Y-86329001D01*
X119904196Y-86348686D01*
X119937474Y-86380115D01*
X119985465Y-86446167D01*
X119990173Y-86452647D01*
X120129355Y-86591829D01*
X120288596Y-86707525D01*
X120371456Y-86749744D01*
X120463971Y-86796883D01*
X120463973Y-86796883D01*
X120463976Y-86796885D01*
X120564318Y-86829488D01*
X120651174Y-86857710D01*
X120845579Y-86888501D01*
X120845584Y-86888501D01*
X121042423Y-86888501D01*
X121236827Y-86857710D01*
X121424026Y-86796885D01*
X121599406Y-86707525D01*
X121758647Y-86591829D01*
X121897829Y-86452647D01*
X121926996Y-86412501D01*
X121950528Y-86380115D01*
X122005858Y-86337449D01*
X122050845Y-86329001D01*
X145237157Y-86329001D01*
X145304196Y-86348686D01*
X145337474Y-86380115D01*
X145385465Y-86446167D01*
X145390173Y-86452647D01*
X145529355Y-86591829D01*
X145688596Y-86707525D01*
X145771456Y-86749744D01*
X145863971Y-86796883D01*
X145863973Y-86796883D01*
X145863976Y-86796885D01*
X145964318Y-86829488D01*
X146051174Y-86857710D01*
X146245579Y-86888501D01*
X146245584Y-86888501D01*
X146442423Y-86888501D01*
X146636827Y-86857710D01*
X146824026Y-86796885D01*
X146999406Y-86707525D01*
X147158647Y-86591829D01*
X147297829Y-86452647D01*
X147326996Y-86412501D01*
X147350528Y-86380115D01*
X147405858Y-86337449D01*
X147450845Y-86329001D01*
X170637157Y-86329001D01*
X170704196Y-86348686D01*
X170737474Y-86380115D01*
X170785465Y-86446167D01*
X170790173Y-86452647D01*
X170929355Y-86591829D01*
X171088596Y-86707525D01*
X171171456Y-86749744D01*
X171263971Y-86796883D01*
X171263973Y-86796883D01*
X171263976Y-86796885D01*
X171364318Y-86829488D01*
X171451174Y-86857710D01*
X171645579Y-86888501D01*
X171645584Y-86888501D01*
X171842423Y-86888501D01*
X172036827Y-86857710D01*
X172224026Y-86796885D01*
X172399406Y-86707525D01*
X172558647Y-86591829D01*
X172697829Y-86452647D01*
X172726996Y-86412501D01*
X172750528Y-86380115D01*
X172805858Y-86337449D01*
X172850845Y-86329001D01*
X196037157Y-86329001D01*
X196104196Y-86348686D01*
X196137474Y-86380115D01*
X196185465Y-86446167D01*
X196190173Y-86452647D01*
X196329355Y-86591829D01*
X196488596Y-86707525D01*
X196571456Y-86749744D01*
X196663971Y-86796883D01*
X196663973Y-86796883D01*
X196663976Y-86796885D01*
X196764318Y-86829488D01*
X196851174Y-86857710D01*
X197045579Y-86888501D01*
X197045584Y-86888501D01*
X197242423Y-86888501D01*
X197436827Y-86857710D01*
X197624026Y-86796885D01*
X197799406Y-86707525D01*
X197958647Y-86591829D01*
X198097829Y-86452647D01*
X198126996Y-86412501D01*
X198150528Y-86380115D01*
X198205858Y-86337449D01*
X198250845Y-86329001D01*
X221437157Y-86329001D01*
X221504196Y-86348686D01*
X221537474Y-86380115D01*
X221585465Y-86446167D01*
X221590173Y-86452647D01*
X221729355Y-86591829D01*
X221888596Y-86707525D01*
X221971456Y-86749744D01*
X222063971Y-86796883D01*
X222063973Y-86796883D01*
X222063976Y-86796885D01*
X222164318Y-86829488D01*
X222251174Y-86857710D01*
X222445579Y-86888501D01*
X222445584Y-86888501D01*
X222642423Y-86888501D01*
X222836827Y-86857710D01*
X223024026Y-86796885D01*
X223199406Y-86707525D01*
X223358647Y-86591829D01*
X223497829Y-86452647D01*
X223572154Y-86350347D01*
X223627485Y-86307683D01*
X223672472Y-86299234D01*
X225254415Y-86299234D01*
X225321454Y-86318919D01*
X225342096Y-86335553D01*
X228928681Y-89922138D01*
X228962166Y-89983461D01*
X228965000Y-90009819D01*
X228965000Y-97509109D01*
X228945315Y-97576148D01*
X228892511Y-97621903D01*
X228823353Y-97631847D01*
X228778983Y-97616486D01*
X228715295Y-97579702D01*
X228715290Y-97579700D01*
X228715288Y-97579699D01*
X228562227Y-97523961D01*
X228534147Y-97519004D01*
X228417445Y-97498405D01*
X228354848Y-97467367D01*
X228318969Y-97407413D01*
X228315000Y-97376293D01*
X228315000Y-93922173D01*
X228288446Y-93788682D01*
X228288445Y-93788681D01*
X228288445Y-93788677D01*
X228288443Y-93788672D01*
X228236357Y-93662924D01*
X228236355Y-93662921D01*
X228160736Y-93549748D01*
X228160730Y-93549741D01*
X224712257Y-90101268D01*
X224712250Y-90101262D01*
X224599077Y-90025643D01*
X224599074Y-90025641D01*
X224473326Y-89973555D01*
X224473316Y-89973552D01*
X224339825Y-89946999D01*
X224339823Y-89946999D01*
X223650845Y-89946999D01*
X223583806Y-89927314D01*
X223550528Y-89895885D01*
X223497833Y-89823359D01*
X223497829Y-89823353D01*
X223358647Y-89684171D01*
X223199406Y-89568475D01*
X223024030Y-89479116D01*
X222836827Y-89418289D01*
X222642423Y-89387499D01*
X222642418Y-89387499D01*
X222445584Y-89387499D01*
X222445579Y-89387499D01*
X222251174Y-89418289D01*
X222063971Y-89479116D01*
X221888595Y-89568475D01*
X221812119Y-89624039D01*
X221729355Y-89684171D01*
X221729353Y-89684173D01*
X221729352Y-89684173D01*
X221590175Y-89823350D01*
X221590168Y-89823359D01*
X221537474Y-89895885D01*
X221482144Y-89938551D01*
X221437157Y-89946999D01*
X198250845Y-89946999D01*
X198183806Y-89927314D01*
X198150528Y-89895885D01*
X198097833Y-89823359D01*
X198097829Y-89823353D01*
X197958647Y-89684171D01*
X197799406Y-89568475D01*
X197624030Y-89479116D01*
X197436827Y-89418289D01*
X197242423Y-89387499D01*
X197242418Y-89387499D01*
X197045584Y-89387499D01*
X197045579Y-89387499D01*
X196851174Y-89418289D01*
X196663971Y-89479116D01*
X196488595Y-89568475D01*
X196412119Y-89624039D01*
X196329355Y-89684171D01*
X196329353Y-89684173D01*
X196329352Y-89684173D01*
X196190175Y-89823350D01*
X196190168Y-89823359D01*
X196137474Y-89895885D01*
X196082144Y-89938551D01*
X196037157Y-89946999D01*
X172850845Y-89946999D01*
X172783806Y-89927314D01*
X172750528Y-89895885D01*
X172697833Y-89823359D01*
X172697829Y-89823353D01*
X172558647Y-89684171D01*
X172399406Y-89568475D01*
X172224030Y-89479116D01*
X172036827Y-89418289D01*
X171842423Y-89387499D01*
X171842418Y-89387499D01*
X171645584Y-89387499D01*
X171645579Y-89387499D01*
X171451174Y-89418289D01*
X171263971Y-89479116D01*
X171088595Y-89568475D01*
X171012119Y-89624039D01*
X170929355Y-89684171D01*
X170929353Y-89684173D01*
X170929352Y-89684173D01*
X170790175Y-89823350D01*
X170790168Y-89823359D01*
X170737474Y-89895885D01*
X170682144Y-89938551D01*
X170637157Y-89946999D01*
X147450845Y-89946999D01*
X147383806Y-89927314D01*
X147350528Y-89895885D01*
X147297833Y-89823359D01*
X147297829Y-89823353D01*
X147158647Y-89684171D01*
X146999406Y-89568475D01*
X146824030Y-89479116D01*
X146636827Y-89418289D01*
X146442423Y-89387499D01*
X146442418Y-89387499D01*
X146245584Y-89387499D01*
X146245579Y-89387499D01*
X146051174Y-89418289D01*
X145863971Y-89479116D01*
X145688595Y-89568475D01*
X145612119Y-89624039D01*
X145529355Y-89684171D01*
X145529353Y-89684173D01*
X145529352Y-89684173D01*
X145390175Y-89823350D01*
X145390168Y-89823359D01*
X145337474Y-89895885D01*
X145282144Y-89938551D01*
X145237157Y-89946999D01*
X122050845Y-89946999D01*
X121983806Y-89927314D01*
X121950528Y-89895885D01*
X121897833Y-89823359D01*
X121897829Y-89823353D01*
X121758647Y-89684171D01*
X121599406Y-89568475D01*
X121424030Y-89479116D01*
X121236827Y-89418289D01*
X121042423Y-89387499D01*
X121042418Y-89387499D01*
X120845584Y-89387499D01*
X120845579Y-89387499D01*
X120651174Y-89418289D01*
X120463971Y-89479116D01*
X120288595Y-89568475D01*
X120212119Y-89624039D01*
X120129355Y-89684171D01*
X120129353Y-89684173D01*
X120129352Y-89684173D01*
X119990175Y-89823350D01*
X119990168Y-89823359D01*
X119937474Y-89895885D01*
X119882144Y-89938551D01*
X119837157Y-89946999D01*
X96650845Y-89946999D01*
X96583806Y-89927314D01*
X96550528Y-89895885D01*
X96497833Y-89823359D01*
X96497829Y-89823353D01*
X96358647Y-89684171D01*
X96199406Y-89568475D01*
X96024030Y-89479116D01*
X95836827Y-89418289D01*
X95642423Y-89387499D01*
X95642418Y-89387499D01*
X95445584Y-89387499D01*
X95445579Y-89387499D01*
X95251174Y-89418289D01*
X95063971Y-89479116D01*
X94888595Y-89568475D01*
X94812119Y-89624039D01*
X94729355Y-89684171D01*
X94729353Y-89684173D01*
X94729352Y-89684173D01*
X94590175Y-89823350D01*
X94590168Y-89823359D01*
X94537474Y-89895885D01*
X94482144Y-89938551D01*
X94437157Y-89946999D01*
X71250845Y-89946999D01*
X71183806Y-89927314D01*
X71150528Y-89895885D01*
X71097833Y-89823359D01*
X71097829Y-89823353D01*
X70958647Y-89684171D01*
X70799406Y-89568475D01*
X70624030Y-89479116D01*
X70436827Y-89418289D01*
X70242423Y-89387499D01*
X70242418Y-89387499D01*
X70045584Y-89387499D01*
X70045579Y-89387499D01*
X69851174Y-89418289D01*
X69663971Y-89479116D01*
X69488595Y-89568475D01*
X69412119Y-89624039D01*
X69329355Y-89684171D01*
X69329353Y-89684173D01*
X69329352Y-89684173D01*
X69190175Y-89823350D01*
X69190175Y-89823351D01*
X69190173Y-89823353D01*
X69190169Y-89823359D01*
X69074477Y-89982593D01*
X68985118Y-90157969D01*
X68924291Y-90345172D01*
X68893501Y-90539576D01*
X68893501Y-90736421D01*
X68924291Y-90930825D01*
X68985118Y-91118028D01*
X69074477Y-91293404D01*
X69190173Y-91452645D01*
X69329355Y-91591827D01*
X69488596Y-91707523D01*
X69571456Y-91749742D01*
X69663971Y-91796881D01*
X69663973Y-91796881D01*
X69663976Y-91796883D01*
X69764318Y-91829486D01*
X69851174Y-91857708D01*
X70045579Y-91888499D01*
X70045584Y-91888499D01*
X70242423Y-91888499D01*
X70436827Y-91857708D01*
X70624026Y-91796883D01*
X70799406Y-91707523D01*
X70958647Y-91591827D01*
X71097829Y-91452645D01*
X71126996Y-91412499D01*
X71150528Y-91380113D01*
X71205858Y-91337447D01*
X71250845Y-91328999D01*
X94437157Y-91328999D01*
X94504196Y-91348684D01*
X94537474Y-91380113D01*
X94585465Y-91446165D01*
X94590173Y-91452645D01*
X94729355Y-91591827D01*
X94888596Y-91707523D01*
X94971456Y-91749742D01*
X95063971Y-91796881D01*
X95063973Y-91796881D01*
X95063976Y-91796883D01*
X95164318Y-91829486D01*
X95251174Y-91857708D01*
X95445579Y-91888499D01*
X95445584Y-91888499D01*
X95642423Y-91888499D01*
X95836827Y-91857708D01*
X96024026Y-91796883D01*
X96199406Y-91707523D01*
X96358647Y-91591827D01*
X96497829Y-91452645D01*
X96526996Y-91412499D01*
X96550528Y-91380113D01*
X96605858Y-91337447D01*
X96650845Y-91328999D01*
X119837157Y-91328999D01*
X119904196Y-91348684D01*
X119937474Y-91380113D01*
X119985465Y-91446165D01*
X119990173Y-91452645D01*
X120129355Y-91591827D01*
X120288596Y-91707523D01*
X120371456Y-91749742D01*
X120463971Y-91796881D01*
X120463973Y-91796881D01*
X120463976Y-91796883D01*
X120564318Y-91829486D01*
X120651174Y-91857708D01*
X120845579Y-91888499D01*
X120845584Y-91888499D01*
X121042423Y-91888499D01*
X121236827Y-91857708D01*
X121424026Y-91796883D01*
X121599406Y-91707523D01*
X121758647Y-91591827D01*
X121897829Y-91452645D01*
X121926996Y-91412499D01*
X121950528Y-91380113D01*
X122005858Y-91337447D01*
X122050845Y-91328999D01*
X145237157Y-91328999D01*
X145304196Y-91348684D01*
X145337474Y-91380113D01*
X145385465Y-91446165D01*
X145390173Y-91452645D01*
X145529355Y-91591827D01*
X145688596Y-91707523D01*
X145771456Y-91749742D01*
X145863971Y-91796881D01*
X145863973Y-91796881D01*
X145863976Y-91796883D01*
X145964318Y-91829486D01*
X146051174Y-91857708D01*
X146245579Y-91888499D01*
X146245584Y-91888499D01*
X146442423Y-91888499D01*
X146636827Y-91857708D01*
X146824026Y-91796883D01*
X146999406Y-91707523D01*
X147158647Y-91591827D01*
X147297829Y-91452645D01*
X147326996Y-91412499D01*
X147350528Y-91380113D01*
X147405858Y-91337447D01*
X147450845Y-91328999D01*
X170637157Y-91328999D01*
X170704196Y-91348684D01*
X170737474Y-91380113D01*
X170785465Y-91446165D01*
X170790173Y-91452645D01*
X170929355Y-91591827D01*
X171088596Y-91707523D01*
X171171456Y-91749742D01*
X171263971Y-91796881D01*
X171263973Y-91796881D01*
X171263976Y-91796883D01*
X171364318Y-91829486D01*
X171451174Y-91857708D01*
X171645579Y-91888499D01*
X171645584Y-91888499D01*
X171842423Y-91888499D01*
X172036827Y-91857708D01*
X172224026Y-91796883D01*
X172399406Y-91707523D01*
X172558647Y-91591827D01*
X172697829Y-91452645D01*
X172726996Y-91412499D01*
X172750528Y-91380113D01*
X172805858Y-91337447D01*
X172850845Y-91328999D01*
X196037157Y-91328999D01*
X196104196Y-91348684D01*
X196137474Y-91380113D01*
X196185465Y-91446165D01*
X196190173Y-91452645D01*
X196329355Y-91591827D01*
X196488596Y-91707523D01*
X196571456Y-91749742D01*
X196663971Y-91796881D01*
X196663973Y-91796881D01*
X196663976Y-91796883D01*
X196764318Y-91829486D01*
X196851174Y-91857708D01*
X197045579Y-91888499D01*
X197045584Y-91888499D01*
X197242423Y-91888499D01*
X197436827Y-91857708D01*
X197624026Y-91796883D01*
X197799406Y-91707523D01*
X197958647Y-91591827D01*
X198097829Y-91452645D01*
X198126996Y-91412499D01*
X198150528Y-91380113D01*
X198205858Y-91337447D01*
X198250845Y-91328999D01*
X221437157Y-91328999D01*
X221504196Y-91348684D01*
X221537474Y-91380113D01*
X221585465Y-91446165D01*
X221590173Y-91452645D01*
X221729355Y-91591827D01*
X221888596Y-91707523D01*
X221971456Y-91749742D01*
X222063971Y-91796881D01*
X222063973Y-91796881D01*
X222063976Y-91796883D01*
X222164318Y-91829486D01*
X222251174Y-91857708D01*
X222445579Y-91888499D01*
X222445584Y-91888499D01*
X222642423Y-91888499D01*
X222836827Y-91857708D01*
X223024026Y-91796883D01*
X223199406Y-91707523D01*
X223358647Y-91591827D01*
X223497829Y-91452645D01*
X223526996Y-91412499D01*
X223550528Y-91380113D01*
X223605858Y-91337447D01*
X223650845Y-91328999D01*
X223934181Y-91328999D01*
X224001220Y-91348684D01*
X224021862Y-91365318D01*
X226896681Y-94240137D01*
X226930166Y-94301460D01*
X226933000Y-94327818D01*
X226933000Y-97861871D01*
X226932998Y-97868829D01*
X226932990Y-97868867D01*
X226932993Y-97894170D01*
X226932993Y-97895366D01*
X226932961Y-97895474D01*
X226932972Y-97976206D01*
X226913297Y-98043248D01*
X226860499Y-98089010D01*
X226830525Y-98098335D01*
X226685762Y-98123886D01*
X226685756Y-98123887D01*
X226685753Y-98123888D01*
X226685750Y-98123888D01*
X226685750Y-98123889D01*
X226532681Y-98179630D01*
X226532679Y-98179631D01*
X226391607Y-98261111D01*
X226266839Y-98365837D01*
X226162138Y-98490654D01*
X226162137Y-98490655D01*
X226080710Y-98631740D01*
X226025012Y-98784836D01*
X225996746Y-98945272D01*
X225996745Y-98945276D01*
X225996757Y-99026540D01*
X225996757Y-99061845D01*
X225996746Y-99062043D01*
X225996757Y-99146724D01*
X225996757Y-99220457D01*
X225996776Y-99220867D01*
X225996777Y-99228150D01*
X225996779Y-99228168D01*
X226025075Y-99388558D01*
X226025076Y-99388562D01*
X226055111Y-99471065D01*
X226080794Y-99541613D01*
X226080795Y-99541615D01*
X226080796Y-99541617D01*
X226080798Y-99541622D01*
X226128700Y-99624584D01*
X226145175Y-99692483D01*
X226128712Y-99748571D01*
X226080708Y-99831744D01*
X226025012Y-99984836D01*
X225996746Y-100145272D01*
X225996745Y-100145276D01*
X225996757Y-100226540D01*
X225996757Y-100261845D01*
X225996746Y-100262043D01*
X225996757Y-100346724D01*
X225996757Y-100420457D01*
X225996776Y-100420867D01*
X225996777Y-100428150D01*
X225996779Y-100428168D01*
X226025075Y-100588558D01*
X226025076Y-100588562D01*
X226055111Y-100671065D01*
X226080794Y-100741613D01*
X226080795Y-100741615D01*
X226080796Y-100741617D01*
X226080798Y-100741622D01*
X226128700Y-100824584D01*
X226145175Y-100892483D01*
X226128712Y-100948571D01*
X226080708Y-101031744D01*
X226025012Y-101184836D01*
X225996746Y-101345272D01*
X225996745Y-101345276D01*
X225996757Y-101426540D01*
X225996757Y-101461845D01*
X225996746Y-101462043D01*
X225996757Y-101546724D01*
X225996757Y-101620457D01*
X225996776Y-101620867D01*
X225996777Y-101628150D01*
X225996779Y-101628168D01*
X226025075Y-101788558D01*
X226025076Y-101788562D01*
X226055111Y-101871065D01*
X226080794Y-101941613D01*
X226080795Y-101941615D01*
X226080796Y-101941617D01*
X226080798Y-101941622D01*
X226128700Y-102024584D01*
X226145175Y-102092483D01*
X226128712Y-102148571D01*
X226080708Y-102231744D01*
X226025012Y-102384836D01*
X225996746Y-102545272D01*
X225996745Y-102545276D01*
X225996757Y-102626540D01*
X225996757Y-102661845D01*
X225996746Y-102662043D01*
X225996757Y-102746724D01*
X225996757Y-102820457D01*
X225996776Y-102820867D01*
X225996777Y-102828150D01*
X225996779Y-102828168D01*
X226025075Y-102988558D01*
X226025076Y-102988562D01*
X226047196Y-103049323D01*
X226080794Y-103141613D01*
X226080795Y-103141615D01*
X226080796Y-103141617D01*
X226080798Y-103141622D01*
X226162231Y-103282659D01*
X226162236Y-103282665D01*
X226162237Y-103282667D01*
X226266931Y-103407438D01*
X226391698Y-103512139D01*
X226532748Y-103593588D01*
X226685796Y-103649312D01*
X226830550Y-103674857D01*
X226893148Y-103705893D01*
X226929030Y-103765845D01*
X226933000Y-103796970D01*
X226933000Y-110162650D01*
X226913315Y-110229689D01*
X226896681Y-110250331D01*
X224931330Y-112215682D01*
X224870007Y-112249167D01*
X224843649Y-112252001D01*
X223650843Y-112252001D01*
X223583804Y-112232316D01*
X223550526Y-112200887D01*
X223497831Y-112128361D01*
X223497827Y-112128355D01*
X223358645Y-111989173D01*
X223199404Y-111873477D01*
X223024028Y-111784118D01*
X222836825Y-111723291D01*
X222642421Y-111692501D01*
X222642416Y-111692501D01*
X222445582Y-111692501D01*
X222445577Y-111692501D01*
X222251172Y-111723291D01*
X222063969Y-111784118D01*
X221888593Y-111873477D01*
X221797740Y-111939486D01*
X221729353Y-111989173D01*
X221729351Y-111989175D01*
X221729350Y-111989175D01*
X221590173Y-112128352D01*
X221590166Y-112128361D01*
X221537472Y-112200887D01*
X221482142Y-112243553D01*
X221437155Y-112252001D01*
X198250843Y-112252001D01*
X198183804Y-112232316D01*
X198150526Y-112200887D01*
X198097831Y-112128361D01*
X198097827Y-112128355D01*
X197958645Y-111989173D01*
X197799404Y-111873477D01*
X197624028Y-111784118D01*
X197436825Y-111723291D01*
X197242421Y-111692501D01*
X197242416Y-111692501D01*
X197045582Y-111692501D01*
X197045577Y-111692501D01*
X196851172Y-111723291D01*
X196663969Y-111784118D01*
X196488593Y-111873477D01*
X196397740Y-111939486D01*
X196329353Y-111989173D01*
X196329351Y-111989175D01*
X196329350Y-111989175D01*
X196190173Y-112128352D01*
X196190166Y-112128361D01*
X196137472Y-112200887D01*
X196082142Y-112243553D01*
X196037155Y-112252001D01*
X172850843Y-112252001D01*
X172783804Y-112232316D01*
X172750526Y-112200887D01*
X172697831Y-112128361D01*
X172697827Y-112128355D01*
X172558645Y-111989173D01*
X172399404Y-111873477D01*
X172224028Y-111784118D01*
X172036825Y-111723291D01*
X171842421Y-111692501D01*
X171842416Y-111692501D01*
X171645582Y-111692501D01*
X171645577Y-111692501D01*
X171451172Y-111723291D01*
X171263969Y-111784118D01*
X171088593Y-111873477D01*
X170997740Y-111939486D01*
X170929353Y-111989173D01*
X170929351Y-111989175D01*
X170929350Y-111989175D01*
X170790173Y-112128352D01*
X170790166Y-112128361D01*
X170737472Y-112200887D01*
X170682142Y-112243553D01*
X170637155Y-112252001D01*
X147450843Y-112252001D01*
X147383804Y-112232316D01*
X147350526Y-112200887D01*
X147297831Y-112128361D01*
X147297827Y-112128355D01*
X147158645Y-111989173D01*
X146999404Y-111873477D01*
X146824028Y-111784118D01*
X146636825Y-111723291D01*
X146442421Y-111692501D01*
X146442416Y-111692501D01*
X146245582Y-111692501D01*
X146245577Y-111692501D01*
X146051172Y-111723291D01*
X145863969Y-111784118D01*
X145688593Y-111873477D01*
X145597740Y-111939486D01*
X145529353Y-111989173D01*
X145529351Y-111989175D01*
X145529350Y-111989175D01*
X145390173Y-112128352D01*
X145390166Y-112128361D01*
X145337472Y-112200887D01*
X145282142Y-112243553D01*
X145237155Y-112252001D01*
X122050843Y-112252001D01*
X121983804Y-112232316D01*
X121950526Y-112200887D01*
X121897831Y-112128361D01*
X121897827Y-112128355D01*
X121758645Y-111989173D01*
X121599404Y-111873477D01*
X121424028Y-111784118D01*
X121236825Y-111723291D01*
X121042421Y-111692501D01*
X121042416Y-111692501D01*
X120845582Y-111692501D01*
X120845577Y-111692501D01*
X120651172Y-111723291D01*
X120463969Y-111784118D01*
X120288593Y-111873477D01*
X120197740Y-111939486D01*
X120129353Y-111989173D01*
X120129351Y-111989175D01*
X120129350Y-111989175D01*
X119990173Y-112128352D01*
X119990166Y-112128361D01*
X119937472Y-112200887D01*
X119882142Y-112243553D01*
X119837155Y-112252001D01*
X96650843Y-112252001D01*
X96583804Y-112232316D01*
X96550526Y-112200887D01*
X96497831Y-112128361D01*
X96497827Y-112128355D01*
X96358645Y-111989173D01*
X96199404Y-111873477D01*
X96024028Y-111784118D01*
X95836825Y-111723291D01*
X95642421Y-111692501D01*
X95642416Y-111692501D01*
X95445582Y-111692501D01*
X95445577Y-111692501D01*
X95251172Y-111723291D01*
X95063969Y-111784118D01*
X94888593Y-111873477D01*
X94797740Y-111939486D01*
X94729353Y-111989173D01*
X94729351Y-111989175D01*
X94729350Y-111989175D01*
X94590173Y-112128352D01*
X94590173Y-112128353D01*
X94590171Y-112128355D01*
X94590167Y-112128361D01*
X94474475Y-112287595D01*
X94385116Y-112462971D01*
X94324289Y-112650174D01*
X94293499Y-112844578D01*
X94293499Y-113041423D01*
X94324289Y-113235827D01*
X94385116Y-113423030D01*
X94452541Y-113555358D01*
X94474475Y-113598406D01*
X94590171Y-113757647D01*
X94729353Y-113896829D01*
X94888594Y-114012525D01*
X94971454Y-114054744D01*
X95063969Y-114101883D01*
X95063971Y-114101883D01*
X95063974Y-114101885D01*
X95124512Y-114121555D01*
X95251172Y-114162710D01*
X95445577Y-114193501D01*
X95445582Y-114193501D01*
X95642421Y-114193501D01*
X95836825Y-114162710D01*
X96024024Y-114101885D01*
X96199404Y-114012525D01*
X96358645Y-113896829D01*
X96497827Y-113757647D01*
X96526994Y-113717501D01*
X96550526Y-113685115D01*
X96605856Y-113642449D01*
X96650843Y-113634001D01*
X119837155Y-113634001D01*
X119904194Y-113653686D01*
X119937472Y-113685115D01*
X119985463Y-113751167D01*
X119990171Y-113757647D01*
X120129353Y-113896829D01*
X120288594Y-114012525D01*
X120371454Y-114054744D01*
X120463969Y-114101883D01*
X120463971Y-114101883D01*
X120463974Y-114101885D01*
X120524512Y-114121555D01*
X120651172Y-114162710D01*
X120845577Y-114193501D01*
X120845582Y-114193501D01*
X121042421Y-114193501D01*
X121236825Y-114162710D01*
X121424024Y-114101885D01*
X121599404Y-114012525D01*
X121758645Y-113896829D01*
X121897827Y-113757647D01*
X121926994Y-113717501D01*
X121950526Y-113685115D01*
X122005856Y-113642449D01*
X122050843Y-113634001D01*
X145237155Y-113634001D01*
X145304194Y-113653686D01*
X145337472Y-113685115D01*
X145385463Y-113751167D01*
X145390171Y-113757647D01*
X145529353Y-113896829D01*
X145612116Y-113956960D01*
X145688595Y-114012526D01*
X145825958Y-114082515D01*
X145876755Y-114130489D01*
X145893550Y-114198310D01*
X145871013Y-114264445D01*
X145825959Y-114303485D01*
X145688594Y-114373476D01*
X145597741Y-114439485D01*
X145529354Y-114489172D01*
X145529352Y-114489174D01*
X145529351Y-114489174D01*
X145390174Y-114628351D01*
X145390174Y-114628352D01*
X145390172Y-114628354D01*
X145340485Y-114696741D01*
X145274476Y-114787594D01*
X145185117Y-114962970D01*
X145124290Y-115150173D01*
X145093500Y-115344577D01*
X145093500Y-115541422D01*
X145124290Y-115735826D01*
X145185117Y-115923029D01*
X145274475Y-116098403D01*
X145274476Y-116098405D01*
X145390172Y-116257646D01*
X145529354Y-116396828D01*
X145688595Y-116512524D01*
X145825959Y-116582514D01*
X145876755Y-116630488D01*
X145893550Y-116698309D01*
X145871013Y-116764444D01*
X145825959Y-116803484D01*
X145688593Y-116873475D01*
X145612121Y-116929036D01*
X145529353Y-116989171D01*
X145529351Y-116989173D01*
X145529350Y-116989173D01*
X145390173Y-117128350D01*
X145390166Y-117128359D01*
X145337472Y-117200885D01*
X145282142Y-117243551D01*
X145237155Y-117251999D01*
X122050843Y-117251999D01*
X121983804Y-117232314D01*
X121950526Y-117200885D01*
X121897831Y-117128359D01*
X121897827Y-117128353D01*
X121758645Y-116989171D01*
X121599404Y-116873475D01*
X121424028Y-116784116D01*
X121236825Y-116723289D01*
X121042421Y-116692499D01*
X121042416Y-116692499D01*
X120845582Y-116692499D01*
X120845577Y-116692499D01*
X120651172Y-116723289D01*
X120463969Y-116784116D01*
X120288593Y-116873475D01*
X120212121Y-116929036D01*
X120129353Y-116989171D01*
X120129351Y-116989173D01*
X120129350Y-116989173D01*
X119990173Y-117128350D01*
X119990166Y-117128359D01*
X119937472Y-117200885D01*
X119882142Y-117243551D01*
X119837155Y-117251999D01*
X96650843Y-117251999D01*
X96583804Y-117232314D01*
X96550526Y-117200885D01*
X96497831Y-117128359D01*
X96497827Y-117128353D01*
X96358645Y-116989171D01*
X96199404Y-116873475D01*
X96024028Y-116784116D01*
X95836825Y-116723289D01*
X95642421Y-116692499D01*
X95642416Y-116692499D01*
X95445582Y-116692499D01*
X95445577Y-116692499D01*
X95251172Y-116723289D01*
X95063969Y-116784116D01*
X94888593Y-116873475D01*
X94812121Y-116929036D01*
X94729353Y-116989171D01*
X94729351Y-116989173D01*
X94729350Y-116989173D01*
X94590173Y-117128350D01*
X94590173Y-117128351D01*
X94590171Y-117128353D01*
X94590167Y-117128359D01*
X94474475Y-117287593D01*
X94385116Y-117462969D01*
X94324289Y-117650172D01*
X94293499Y-117844576D01*
X94293499Y-118041421D01*
X94324289Y-118235825D01*
X94385116Y-118423028D01*
X94452541Y-118555356D01*
X94474475Y-118598404D01*
X94590171Y-118757645D01*
X94729353Y-118896827D01*
X94888594Y-119012523D01*
X94971454Y-119054742D01*
X95063969Y-119101881D01*
X95063971Y-119101881D01*
X95063974Y-119101883D01*
X95164316Y-119134486D01*
X95251172Y-119162708D01*
X95445577Y-119193499D01*
X95445582Y-119193499D01*
X95642421Y-119193499D01*
X95836825Y-119162708D01*
X96024024Y-119101883D01*
X96199404Y-119012523D01*
X96358645Y-118896827D01*
X96497827Y-118757645D01*
X96526994Y-118717499D01*
X96550526Y-118685113D01*
X96605856Y-118642447D01*
X96650843Y-118633999D01*
X119837155Y-118633999D01*
X119904194Y-118653684D01*
X119937472Y-118685113D01*
X119985463Y-118751165D01*
X119990171Y-118757645D01*
X120129353Y-118896827D01*
X120288594Y-119012523D01*
X120371454Y-119054742D01*
X120463969Y-119101881D01*
X120463971Y-119101881D01*
X120463974Y-119101883D01*
X120564316Y-119134486D01*
X120651172Y-119162708D01*
X120845577Y-119193499D01*
X120845582Y-119193499D01*
X121042421Y-119193499D01*
X121236825Y-119162708D01*
X121424024Y-119101883D01*
X121599404Y-119012523D01*
X121758645Y-118896827D01*
X121897827Y-118757645D01*
X121926994Y-118717499D01*
X121950526Y-118685113D01*
X122005856Y-118642447D01*
X122050843Y-118633999D01*
X145237155Y-118633999D01*
X145304194Y-118653684D01*
X145337472Y-118685113D01*
X145385463Y-118751165D01*
X145390171Y-118757645D01*
X145529353Y-118896827D01*
X145688594Y-119012523D01*
X145771454Y-119054742D01*
X145863969Y-119101881D01*
X145863971Y-119101881D01*
X145863974Y-119101883D01*
X145964316Y-119134486D01*
X146051172Y-119162708D01*
X146245577Y-119193499D01*
X146245582Y-119193499D01*
X146442421Y-119193499D01*
X146636825Y-119162708D01*
X146824024Y-119101883D01*
X146999404Y-119012523D01*
X147158645Y-118896827D01*
X147297827Y-118757645D01*
X147326994Y-118717499D01*
X147350526Y-118685113D01*
X147405856Y-118642447D01*
X147450843Y-118633999D01*
X170637155Y-118633999D01*
X170704194Y-118653684D01*
X170737472Y-118685113D01*
X170785463Y-118751165D01*
X170790171Y-118757645D01*
X170929353Y-118896827D01*
X171088594Y-119012523D01*
X171171454Y-119054742D01*
X171263969Y-119101881D01*
X171263971Y-119101881D01*
X171263974Y-119101883D01*
X171364316Y-119134486D01*
X171451172Y-119162708D01*
X171645577Y-119193499D01*
X171645582Y-119193499D01*
X171842421Y-119193499D01*
X172036825Y-119162708D01*
X172224024Y-119101883D01*
X172399404Y-119012523D01*
X172558645Y-118896827D01*
X172697827Y-118757645D01*
X172726994Y-118717499D01*
X172750526Y-118685113D01*
X172805856Y-118642447D01*
X172850843Y-118633999D01*
X196037155Y-118633999D01*
X196104194Y-118653684D01*
X196137472Y-118685113D01*
X196185463Y-118751165D01*
X196190171Y-118757645D01*
X196329353Y-118896827D01*
X196488594Y-119012523D01*
X196571454Y-119054742D01*
X196663969Y-119101881D01*
X196663971Y-119101881D01*
X196663974Y-119101883D01*
X196764316Y-119134486D01*
X196851172Y-119162708D01*
X197045577Y-119193499D01*
X197045582Y-119193499D01*
X197242421Y-119193499D01*
X197436825Y-119162708D01*
X197624024Y-119101883D01*
X197799404Y-119012523D01*
X197958645Y-118896827D01*
X198097827Y-118757645D01*
X198126994Y-118717499D01*
X198150526Y-118685113D01*
X198205856Y-118642447D01*
X198250843Y-118633999D01*
X221437155Y-118633999D01*
X221504194Y-118653684D01*
X221537472Y-118685113D01*
X221585463Y-118751165D01*
X221590171Y-118757645D01*
X221729353Y-118896827D01*
X221888594Y-119012523D01*
X221971454Y-119054742D01*
X222063969Y-119101881D01*
X222063971Y-119101881D01*
X222063974Y-119101883D01*
X222164316Y-119134486D01*
X222251172Y-119162708D01*
X222445577Y-119193499D01*
X222445582Y-119193499D01*
X222642421Y-119193499D01*
X222836825Y-119162708D01*
X223024024Y-119101883D01*
X223199404Y-119012523D01*
X223358645Y-118896827D01*
X223497827Y-118757645D01*
X223526994Y-118717499D01*
X223550526Y-118685113D01*
X223605856Y-118642447D01*
X223650843Y-118633999D01*
X226345295Y-118633999D01*
X226435105Y-118616133D01*
X226478792Y-118607444D01*
X226604546Y-118555355D01*
X226717722Y-118479734D01*
X230192735Y-115004721D01*
X230268356Y-114891545D01*
X230320445Y-114765791D01*
X230347000Y-114632292D01*
X230347000Y-89604177D01*
X230347000Y-89604174D01*
X230320446Y-89470683D01*
X230320445Y-89470682D01*
X230320445Y-89470678D01*
X230298745Y-89418289D01*
X230268357Y-89344925D01*
X230268355Y-89344922D01*
X230192736Y-89231749D01*
X230192730Y-89231742D01*
X226032491Y-85071503D01*
X226032484Y-85071497D01*
X225919311Y-84995878D01*
X225919308Y-84995876D01*
X225793560Y-84943790D01*
X225793550Y-84943787D01*
X225660059Y-84917234D01*
X225660057Y-84917234D01*
X223629217Y-84917234D01*
X223562178Y-84897549D01*
X223528900Y-84866121D01*
X223497829Y-84823355D01*
X223358647Y-84684173D01*
X223199406Y-84568477D01*
X223024030Y-84479118D01*
X222836827Y-84418291D01*
X222642423Y-84387501D01*
X222642418Y-84387501D01*
X222445584Y-84387501D01*
X222445579Y-84387501D01*
X222251174Y-84418291D01*
X222063971Y-84479118D01*
X221888595Y-84568477D01*
X221797742Y-84634486D01*
X221729355Y-84684173D01*
X221729353Y-84684175D01*
X221729352Y-84684175D01*
X221590175Y-84823352D01*
X221590169Y-84823360D01*
X221537474Y-84895887D01*
X221482144Y-84938553D01*
X221437157Y-84947001D01*
X198250845Y-84947001D01*
X198183806Y-84927316D01*
X198150528Y-84895887D01*
X198097833Y-84823360D01*
X198097826Y-84823352D01*
X197958649Y-84684175D01*
X197958647Y-84684173D01*
X197799406Y-84568477D01*
X197624030Y-84479118D01*
X197436827Y-84418291D01*
X197242423Y-84387501D01*
X197242418Y-84387501D01*
X197045584Y-84387501D01*
X197045579Y-84387501D01*
X196851174Y-84418291D01*
X196663971Y-84479118D01*
X196488595Y-84568477D01*
X196397742Y-84634486D01*
X196329355Y-84684173D01*
X196329353Y-84684175D01*
X196329352Y-84684175D01*
X196190175Y-84823352D01*
X196190169Y-84823360D01*
X196137474Y-84895887D01*
X196082144Y-84938553D01*
X196037157Y-84947001D01*
X172850845Y-84947001D01*
X172783806Y-84927316D01*
X172750528Y-84895887D01*
X172697833Y-84823360D01*
X172697826Y-84823352D01*
X172558649Y-84684175D01*
X172558647Y-84684173D01*
X172399406Y-84568477D01*
X172224030Y-84479118D01*
X172036827Y-84418291D01*
X171842423Y-84387501D01*
X171842418Y-84387501D01*
X171645584Y-84387501D01*
X171645579Y-84387501D01*
X171451174Y-84418291D01*
X171263971Y-84479118D01*
X171088595Y-84568477D01*
X170997742Y-84634486D01*
X170929355Y-84684173D01*
X170929353Y-84684175D01*
X170929352Y-84684175D01*
X170790175Y-84823352D01*
X170790169Y-84823360D01*
X170737474Y-84895887D01*
X170682144Y-84938553D01*
X170637157Y-84947001D01*
X147450845Y-84947001D01*
X147383806Y-84927316D01*
X147350528Y-84895887D01*
X147297833Y-84823360D01*
X147297826Y-84823352D01*
X147158649Y-84684175D01*
X147158647Y-84684173D01*
X146999406Y-84568477D01*
X146824030Y-84479118D01*
X146636827Y-84418291D01*
X146442423Y-84387501D01*
X146442418Y-84387501D01*
X146245584Y-84387501D01*
X146245579Y-84387501D01*
X146051174Y-84418291D01*
X145863971Y-84479118D01*
X145688595Y-84568477D01*
X145597742Y-84634486D01*
X145529355Y-84684173D01*
X145529353Y-84684175D01*
X145529352Y-84684175D01*
X145390175Y-84823352D01*
X145390169Y-84823360D01*
X145337474Y-84895887D01*
X145282144Y-84938553D01*
X145237157Y-84947001D01*
X122050845Y-84947001D01*
X121983806Y-84927316D01*
X121950528Y-84895887D01*
X121897833Y-84823360D01*
X121897826Y-84823352D01*
X121758649Y-84684175D01*
X121758647Y-84684173D01*
X121599406Y-84568477D01*
X121424030Y-84479118D01*
X121236827Y-84418291D01*
X121042423Y-84387501D01*
X121042418Y-84387501D01*
X120845584Y-84387501D01*
X120845579Y-84387501D01*
X120651174Y-84418291D01*
X120463971Y-84479118D01*
X120288595Y-84568477D01*
X120197742Y-84634486D01*
X120129355Y-84684173D01*
X120129353Y-84684175D01*
X120129352Y-84684175D01*
X119990175Y-84823352D01*
X119990169Y-84823360D01*
X119937474Y-84895887D01*
X119882144Y-84938553D01*
X119837157Y-84947001D01*
X96650845Y-84947001D01*
X96583806Y-84927316D01*
X96550528Y-84895887D01*
X96497833Y-84823360D01*
X96497826Y-84823352D01*
X96358649Y-84684175D01*
X96358647Y-84684173D01*
X96199406Y-84568477D01*
X96024030Y-84479118D01*
X95836827Y-84418291D01*
X95642423Y-84387501D01*
X95642418Y-84387501D01*
X95445584Y-84387501D01*
X95445579Y-84387501D01*
X95251174Y-84418291D01*
X95063971Y-84479118D01*
X94888595Y-84568477D01*
X94797742Y-84634486D01*
X94729355Y-84684173D01*
X94729353Y-84684175D01*
X94729352Y-84684175D01*
X94590175Y-84823352D01*
X94590169Y-84823360D01*
X94537474Y-84895887D01*
X94482144Y-84938553D01*
X94437157Y-84947001D01*
X71250845Y-84947001D01*
X71183806Y-84927316D01*
X71150528Y-84895887D01*
X71097833Y-84823360D01*
X71097826Y-84823352D01*
X70958649Y-84684175D01*
X70958647Y-84684173D01*
X70799406Y-84568477D01*
X70624030Y-84479118D01*
X70436827Y-84418291D01*
X70242423Y-84387501D01*
X70242418Y-84387501D01*
X70045584Y-84387501D01*
X70045579Y-84387501D01*
X69851174Y-84418291D01*
X69663971Y-84479118D01*
X69488595Y-84568477D01*
X69397742Y-84634486D01*
X69329355Y-84684173D01*
X69329353Y-84684175D01*
X69329352Y-84684175D01*
X69190175Y-84823352D01*
X69190175Y-84823353D01*
X69190173Y-84823355D01*
X69159102Y-84866120D01*
X69074477Y-84982595D01*
X68985118Y-85157971D01*
X68924291Y-85345174D01*
X68893501Y-85539578D01*
X51054500Y-85539578D01*
X51054500Y-76122706D01*
X51054618Y-76117297D01*
X51060952Y-75972224D01*
X53545500Y-75972224D01*
X53545500Y-76267775D01*
X53575503Y-76495662D01*
X53584076Y-76560775D01*
X53622321Y-76703507D01*
X53660566Y-76846242D01*
X53773660Y-77119275D01*
X53773665Y-77119286D01*
X53921425Y-77375212D01*
X53921436Y-77375228D01*
X54101339Y-77609682D01*
X54101345Y-77609689D01*
X54310310Y-77818654D01*
X54310316Y-77818659D01*
X54544780Y-77998570D01*
X54544787Y-77998574D01*
X54800713Y-78146334D01*
X54800718Y-78146336D01*
X54800721Y-78146338D01*
X54937240Y-78202886D01*
X55073757Y-78259433D01*
X55073758Y-78259433D01*
X55073760Y-78259434D01*
X55359225Y-78335924D01*
X55652232Y-78374500D01*
X55652239Y-78374500D01*
X55947761Y-78374500D01*
X55947768Y-78374500D01*
X56240775Y-78335924D01*
X56526240Y-78259434D01*
X56799279Y-78146338D01*
X57055220Y-77998570D01*
X57289684Y-77818659D01*
X57498659Y-77609684D01*
X57678570Y-77375220D01*
X57826338Y-77119279D01*
X57939434Y-76846240D01*
X58015924Y-76560775D01*
X58054500Y-76267768D01*
X58054500Y-75972232D01*
X58054499Y-75972224D01*
X234045500Y-75972224D01*
X234045500Y-76267775D01*
X234075503Y-76495662D01*
X234084076Y-76560775D01*
X234122321Y-76703507D01*
X234160566Y-76846242D01*
X234273660Y-77119275D01*
X234273665Y-77119286D01*
X234421425Y-77375212D01*
X234421436Y-77375228D01*
X234601339Y-77609682D01*
X234601345Y-77609689D01*
X234810310Y-77818654D01*
X234810316Y-77818659D01*
X235044780Y-77998570D01*
X235044787Y-77998574D01*
X235300713Y-78146334D01*
X235300718Y-78146336D01*
X235300721Y-78146338D01*
X235437240Y-78202886D01*
X235573757Y-78259433D01*
X235573758Y-78259433D01*
X235573760Y-78259434D01*
X235859225Y-78335924D01*
X236152232Y-78374500D01*
X236152239Y-78374500D01*
X236447761Y-78374500D01*
X236447768Y-78374500D01*
X236740775Y-78335924D01*
X237026240Y-78259434D01*
X237299279Y-78146338D01*
X237555220Y-77998570D01*
X237789684Y-77818659D01*
X237998659Y-77609684D01*
X238178570Y-77375220D01*
X238326338Y-77119279D01*
X238439434Y-76846240D01*
X238515924Y-76560775D01*
X238554500Y-76267768D01*
X238554500Y-75972232D01*
X238553253Y-75962764D01*
X238545342Y-75902672D01*
X238515924Y-75679225D01*
X238439434Y-75393760D01*
X238326338Y-75120721D01*
X238326336Y-75120718D01*
X238326334Y-75120713D01*
X238178574Y-74864787D01*
X238178570Y-74864780D01*
X237998659Y-74630316D01*
X237998654Y-74630310D01*
X237789689Y-74421345D01*
X237789682Y-74421339D01*
X237555228Y-74241436D01*
X237555226Y-74241434D01*
X237555220Y-74241430D01*
X237555215Y-74241427D01*
X237555212Y-74241425D01*
X237299286Y-74093665D01*
X237299275Y-74093660D01*
X237026242Y-73980566D01*
X236883507Y-73942321D01*
X236740775Y-73904076D01*
X236675662Y-73895503D01*
X236447775Y-73865500D01*
X236447768Y-73865500D01*
X236152232Y-73865500D01*
X236152224Y-73865500D01*
X235891781Y-73899789D01*
X235859225Y-73904076D01*
X235787858Y-73923198D01*
X235573757Y-73980566D01*
X235300724Y-74093660D01*
X235300713Y-74093665D01*
X235044787Y-74241425D01*
X235044771Y-74241436D01*
X234810317Y-74421339D01*
X234810310Y-74421345D01*
X234601345Y-74630310D01*
X234601339Y-74630317D01*
X234421436Y-74864771D01*
X234421425Y-74864787D01*
X234273665Y-75120713D01*
X234273660Y-75120724D01*
X234160566Y-75393757D01*
X234084076Y-75679226D01*
X234045500Y-75972224D01*
X58054499Y-75972224D01*
X58053253Y-75962764D01*
X58045342Y-75902672D01*
X58015924Y-75679225D01*
X57939434Y-75393760D01*
X57826338Y-75120721D01*
X57826336Y-75120718D01*
X57826334Y-75120713D01*
X57678574Y-74864787D01*
X57678570Y-74864780D01*
X57498659Y-74630316D01*
X57498654Y-74630310D01*
X57289689Y-74421345D01*
X57289682Y-74421339D01*
X57055228Y-74241436D01*
X57055226Y-74241434D01*
X57055220Y-74241430D01*
X57055215Y-74241427D01*
X57055212Y-74241425D01*
X56799286Y-74093665D01*
X56799275Y-74093660D01*
X56526242Y-73980566D01*
X56383507Y-73942321D01*
X56240775Y-73904076D01*
X56175662Y-73895503D01*
X55947775Y-73865500D01*
X55947768Y-73865500D01*
X55652232Y-73865500D01*
X55652224Y-73865500D01*
X55391781Y-73899789D01*
X55359225Y-73904076D01*
X55287858Y-73923198D01*
X55073757Y-73980566D01*
X54800724Y-74093660D01*
X54800713Y-74093665D01*
X54544787Y-74241425D01*
X54544771Y-74241436D01*
X54310317Y-74421339D01*
X54310310Y-74421345D01*
X54101345Y-74630310D01*
X54101339Y-74630317D01*
X53921436Y-74864771D01*
X53921425Y-74864787D01*
X53773665Y-75120713D01*
X53773660Y-75120724D01*
X53660566Y-75393757D01*
X53584076Y-75679226D01*
X53545500Y-75972224D01*
X51060952Y-75972224D01*
X51061365Y-75962764D01*
X51061365Y-75962763D01*
X51072322Y-75711787D01*
X51073262Y-75701054D01*
X51125889Y-75301308D01*
X51127762Y-75290688D01*
X51215032Y-74897035D01*
X51217819Y-74886635D01*
X51339068Y-74502081D01*
X51342752Y-74491960D01*
X51497051Y-74119448D01*
X51501609Y-74109674D01*
X51687790Y-73752024D01*
X51693172Y-73742703D01*
X51909808Y-73402653D01*
X51915999Y-73393810D01*
X52161449Y-73073934D01*
X52168387Y-73065665D01*
X52440777Y-72768405D01*
X52448405Y-72760777D01*
X52745665Y-72488387D01*
X52753934Y-72481449D01*
X53073810Y-72235999D01*
X53082653Y-72229808D01*
X53422703Y-72013172D01*
X53432024Y-72007790D01*
X53789674Y-71821609D01*
X53799448Y-71817051D01*
X54171960Y-71662752D01*
X54182081Y-71659068D01*
X54566635Y-71537819D01*
X54577035Y-71535032D01*
X54970688Y-71447762D01*
X54981308Y-71445889D01*
X55381054Y-71393262D01*
X55391787Y-71392322D01*
X55785134Y-71375149D01*
X55797298Y-71374618D01*
X55802706Y-71374500D01*
X55844875Y-71374500D01*
X236255125Y-71374500D01*
X236297294Y-71374500D01*
X236302702Y-71374617D01*
G37*
%TD.AperFunction*%
%TD*%
M02*
